<mxfile host="app.diagrams.net" modified="2021-06-09T02:29:18.311Z" agent="5.0 (X11; Linux x86_64) AppleWebKit/537.36 (KHTML, like Gecko) Chrome/75.0.3770.90 Safari/537.36" etag="3t2SR3btMNAPj1AGmiQK" version="14.7.6" type="github">
  <diagram id="S7XxjSb4aSQIKMiTuMkX" name="Page-1">
    <mxGraphModel dx="2204" dy="1208" grid="1" gridSize="10" guides="1" tooltips="1" connect="1" arrows="1" fold="1" page="1" pageScale="1" pageWidth="827" pageHeight="1169" math="0" shadow="0">
      <root>
        <mxCell id="0" />
        <mxCell id="1" parent="0" />
        <mxCell id="vA_zg9s_kciJOETXED91-45" value="" style="endArrow=classic;html=1;" parent="1" edge="1">
          <mxGeometry width="50" height="50" relative="1" as="geometry">
            <mxPoint x="597" y="677" as="sourcePoint" />
            <mxPoint x="717" y="547" as="targetPoint" />
          </mxGeometry>
        </mxCell>
        <mxCell id="vA_zg9s_kciJOETXED91-7" value="Consome os dados da API" style="text;html=1;strokeColor=none;fillColor=none;align=center;verticalAlign=middle;whiteSpace=wrap;rounded=0;rotation=0;fontStyle=1" parent="1" vertex="1">
          <mxGeometry x="327.28" y="224" width="180" height="20" as="geometry" />
        </mxCell>
        <mxCell id="vA_zg9s_kciJOETXED91-19" value="" style="endArrow=classic;html=1;entryX=0.5;entryY=0.075;entryDx=0;entryDy=0;entryPerimeter=0;" parent="1" edge="1">
          <mxGeometry width="50" height="50" relative="1" as="geometry">
            <mxPoint x="567" y="277" as="sourcePoint" />
            <mxPoint x="437" y="456" as="targetPoint" />
          </mxGeometry>
        </mxCell>
        <mxCell id="vA_zg9s_kciJOETXED91-22" value="Faz o Upload JSON para o S3" style="text;html=1;strokeColor=none;fillColor=none;align=center;verticalAlign=middle;whiteSpace=wrap;rounded=0;rotation=307;fontStyle=1" parent="1" vertex="1">
          <mxGeometry x="399.31" y="355.24" width="180" height="20" as="geometry" />
        </mxCell>
        <mxCell id="vA_zg9s_kciJOETXED91-36" value="" style="endArrow=classic;html=1;entryX=0.4;entryY=0.1;entryDx=0;entryDy=0;entryPerimeter=0;" parent="1" edge="1">
          <mxGeometry width="50" height="50" relative="1" as="geometry">
            <mxPoint x="617" y="277" as="sourcePoint" />
            <mxPoint x="725" y="481" as="targetPoint" />
          </mxGeometry>
        </mxCell>
        <mxCell id="vA_zg9s_kciJOETXED91-38" value="Persiste os dados na base de dados&lt;br&gt;" style="text;html=1;align=center;verticalAlign=middle;whiteSpace=wrap;rounded=0;rotation=62;fontStyle=1" parent="1" vertex="1">
          <mxGeometry x="617" y="362" width="140" height="20" as="geometry" />
        </mxCell>
        <mxCell id="vA_zg9s_kciJOETXED91-44" value="Script Python&amp;nbsp; - Leitura de dados" style="text;html=1;strokeColor=none;fillColor=none;align=center;verticalAlign=middle;whiteSpace=wrap;rounded=0;" parent="1" vertex="1">
          <mxGeometry x="447" y="667" width="266" height="20" as="geometry" />
        </mxCell>
        <object label="Panorama COVID-19" teste="5555" id="vA_zg9s_kciJOETXED91-50">
          <mxCell style="swimlane;fontStyle=1;childLayout=stackLayout;horizontal=1;startSize=26;horizontalStack=0;resizeParent=1;resizeParentMax=0;resizeLast=0;collapsible=1;marginBottom=0;fillColor=#dae8fc;strokeColor=#6c8ebf;" parent="1" vertex="1">
            <mxGeometry x="465" y="687" width="292" height="130" as="geometry" />
          </mxCell>
        </object>
        <mxCell id="vA_zg9s_kciJOETXED91-51" value="* Diário Casos Confirmados" style="text;strokeColor=none;fillColor=none;align=left;verticalAlign=top;spacingLeft=4;spacingRight=4;overflow=hidden;rotatable=0;points=[[0,0.5],[1,0.5]];portConstraint=eastwest;" parent="vA_zg9s_kciJOETXED91-50" vertex="1">
          <mxGeometry y="26" width="292" height="26" as="geometry" />
        </mxCell>
        <mxCell id="vA_zg9s_kciJOETXED91-52" value="* Qtd Mortes do maior país" style="text;strokeColor=none;fillColor=none;align=left;verticalAlign=top;spacingLeft=4;spacingRight=4;overflow=hidden;rotatable=0;points=[[0,0.5],[1,0.5]];portConstraint=eastwest;" parent="vA_zg9s_kciJOETXED91-50" vertex="1">
          <mxGeometry y="52" width="292" height="26" as="geometry" />
        </mxCell>
        <mxCell id="vA_zg9s_kciJOETXED91-53" value="* Rank dos 10 países com maior número de mortes&#xa;" style="text;strokeColor=none;fillColor=none;align=left;verticalAlign=top;spacingLeft=4;spacingRight=4;overflow=hidden;rotatable=0;points=[[0,0.5],[1,0.5]];portConstraint=eastwest;" parent="vA_zg9s_kciJOETXED91-50" vertex="1">
          <mxGeometry y="78" width="292" height="26" as="geometry" />
        </mxCell>
        <mxCell id="vA_zg9s_kciJOETXED91-57" value="* Total de casos confirmados" style="text;strokeColor=none;fillColor=none;align=left;verticalAlign=top;spacingLeft=4;spacingRight=4;overflow=hidden;rotatable=0;points=[[0,0.5],[1,0.5]];portConstraint=eastwest;" parent="vA_zg9s_kciJOETXED91-50" vertex="1">
          <mxGeometry y="104" width="292" height="26" as="geometry" />
        </mxCell>
        <mxCell id="vA_zg9s_kciJOETXED91-56" value="Consulta de Dados" style="text;html=1;strokeColor=none;fillColor=none;align=center;verticalAlign=middle;whiteSpace=wrap;rounded=0;rotation=314;fontStyle=1;" parent="1" vertex="1">
          <mxGeometry x="587.61" y="597.39" width="118" height="20" as="geometry" />
        </mxCell>
        <mxCell id="vA_zg9s_kciJOETXED91-61" value="" style="shape=image;verticalLabelPosition=bottom;labelBackgroundColor=#ffffff;verticalAlign=top;aspect=fixed;imageAspect=0;image=data:image/png,iVBORw0KGgoAAAANSUhEUgAAAjAAAADICAYAAAD2r9syAAAACXBIWXMAAAsSAAALEgHS3X78AAAYE0lEQVR42u3dT1LbyMPG8Wfe8n48Ky+jnCDKCRDlA8ScIOYEwAmAEwAnwJwAcwAq4gTxnCDK0qv4t6dq3oVaQSiy1S21/hi+nyoqMwlI7VbjftxqdUsAAAAAAAAAAAAAAAAAAAAAAAAAAAAAAAAAAAAAAAAAAAAAAAAAAAAAAAAAAAAAAAAAAAAAAAAAAAAAAAAAAAAAAAAAAAAAAAAAAAAAAAAAAAAAAAAAAAAAAAAAAAAA3oW/qALgxfPjJJAUSTqQ9CRpOZquN3tQ7nGu3D9NuROuKAACDPB2Q0sk6YsJAGHJtyxzYSYZULlDSTNT9rJyryTdEWYAEGCAtxFYAhNWstAydvjx3kKBGWWZKR1lme1LuQGAAAPU7/zzHX/g6bCthwIzOpSFrdDTYROlo0p3o+l6ResAQIABhhNYAr0erWibl1DQcHSIMAOAAAPsWWAZFzr+oMfiOIUCizk4XZf7aTRdL2lVAAgwQPsBJpR0Ive5IW2LJR1vu8VkRlyycgcDKvdK0hHzZQAQYIDuwkz2ZE5fYSZRjdsyJoR97THM1Co3ABBgAPewMpf0aVun29LkXafOPzfKotF0fZYr94Gkh7LbNR2GmY0p982Wcs8kfRlN14e0NgAEGMBfgLmQdG4zgtBCKKgKLTNzvmxeS5wFgUK5sxDRVZjZer4t5dZouua9AgABBmgpwFiFi4ahwDW05G0LMF2Ue1doGUua7yg3AQYAAQboKMAUQ8GdpEXZpFSLULDJhYrYMbS4BhifYaYqtOTnCu1EgAFAgAG6DzB5Oxefy4WCyHxvrRELTwGmTpipKrd1aCHAACDAAMMJMNZhxlfn7ynAFMPM1hGlFspNgAEwOCOqAO9YaL6unh8nf4QZX51/CwITfs7Lym3Knt3WmnGZARBggLcfZsaSLnJ/d7uH5Zakey4pgLfs/6gCAABAgAEAACDAAAAAEGAAAAABBgAAgAADAABAgAEAAAQYAAAAAgwAAAABBgAAEGAAAAAIMAAAAAQYAABAgAEAACDAAAAAEGAAAAABBgAAgAADAABAgAEAACDAAAAAAgwAAAABBrATm6+hSyTdFcq93JNyX9PMAAzNiCrAXjfg6TqWFD8/TgJJM0lfJYUDKd5G0kLS3Wi6Xm0p99iU+2Rg5V6acse0MgAEGKC9IJONFFw/P05CE2RmkoKeOv+H0XS9tCh3FnIWJoTNTdmDHqoxK/eCFgWAAINBM53mxnSk+1TucS4AFEPBStJK0tnz4yTKhZlx252/pGXdujQh7ELSRS6EzVsu90rSTZNyAwABBl11/pGkL5IimdsWz4+Txh1wB+UOTRD5Uij3kyl3UhIKYqXzTY6fHydz87Mzj53/naSF7zorhLBZrtw+wkySCy0JvxEA9tFfVMG7CCyB6fwOTGip6gR3hoIOyz3Oldum884Cxc5yV8w7uRxN1xe5oPetpPPPQkvSU32UhbDf5Tbf+19JubN5LSt+KwAQYDDU0JLv+AMPowydhJmy0aE2y50LdyemnsoCTDav5WYonX/JpOWyAOM0HwcACDDoo0MLTad/IH+3SFoPM6YjzoeWNuZ7WI0+mDocZ0/emLKFQ+/8TTmD/BND5nYZ81oAEGAwuE5rXOj4g46LYBUKtpQ9fzsr3JdyAwAIMGgWXG7V3ihLk1BwU3G75krS6QDL/cB6JwCwX1iJd8+MpuvNaLo+knSkdP2QIdwi2Ej6WVWW0XR9Jumz0vVakgGVO6FlAcB+YQRmT5h5DuOy2x4tPGZrY+t8GDP5NRlN10nZ/Izc9/Wx4NyucodK18TxHWiiwvmZl9KPMPf7wXUACDDoKMBESp+ISbRjDkfLYaaq88+HkcPRdB07lLvNMJOd+8a23A3OlX/UObK4BrGp1ycNY2+kwJT/g17mJ60k/WvK6hrussnln3LXdWOOt2r5NeevQ2DRtvPX4T2EmzDXRj/l2mqidGRyZa75kOqirH3m2+h7uXYgwOxlgCnrmNsMMy6hJa8YYFzK7SPMbD2HGRU62VXumsHl1By3bl1vlC4wd93gTfhK1ROjn5Su+JsXSTrX69GiMktJZxZBxvZ4Pl5z0dycO2hwHZaSLlXv9uLYtPkuJqhvJB07BMFA7ttVxOY9YOGhvBdKJ/BXveeclYStc9nN/VuYnyfIEGAw4ABjFTRqhJm6ocU2wLQVZqpCi81mj3UCTCTpXv5GvDam86yzC/R/NX7360yuPttSvrE53rxG4Dwyba/JiMKt5+Bwba7FxrE9fOvw7WFp6s4mPJw3OE9iwlLc4Bh12uepaVOuv0OHDdsTCDDoKMA0DTO7Ov86IyK2AaYsgNxsKXdZOXyEliYBpmmnUPXJ98ix83TtIG5rhI38J91jjyMPTTqduenk2lpHyCVcdR1gYlNvXQW765IRkiG2T0IMAQZ7GGBcwkykdOKqj86/aYBxKXco/d4zyHu5Lb+3yZurSz0cOoQYlw7CR/g61suthXs1f7x/o/RJtcQxvNy2fB1cyjWkABOasvgOdsXw2kaA8XFdN5I+ittJBBjsZYApCwWlmw966Px9BhiXMLNrb6O2AkydYe0uPvHadhCfJX331LF/NPV/28Pr7TIsrEy97UuAaSu8NAkxtu3zH0k/PJW9yYgRBox1YN6X0HS6v8yicvkQcGveMGwmgfZV7h/Pj5PvhXJfSfol/3MfbMrTlVP5fzLL122vsTmWz9toc4dz33fcDud78rueLXjZ5rIKc/05Gdxnm/dV9plAgMGbCzN5wZ6Wu4+wddvDOX3Ps/H5pu47YI0ty9fWnJddTgb4O5FsaS9hR+2yjfN89XisQNVPw4EAA7x5c8c37ETp8PVh7qvOI8Pv7VNk1aO2gdxGQzam3vPX4bLGdQgHGPYfSuqmyy072gj0vuv4C29db8+IKgBa+wS+UPkcgVjp2if3DmFobN7Uk3dSz1WfmF1GpJbmOmxKrsO13J+cCiuuQ2xCq+vo0N81gkfZYoB1RuuWSheCk9JF7WaO9TGXn3Vi2hIKBBjgHQsc3gi3hZdMYv79u+P52wgwC/MpPuvgv6rZXI+NOeaT+e/QBD+XT9VV9Wzbwa60e42U7FFblwmjoaoXjquzhs99jXo+LmkjLtcuq5+k5DW6TAA+aTHAZIsdLnNlc52wHwkEGOAds+00N7J76iFbvt5lFMa345KOJzbho86tgbLHvmNzDteRjm2BLXKoizPL67VUvxN053K/TXisP9c4cRkh3GwJL/nraBuwQ/Ple82VsvaUjTr5ak/YU8yBAezZvvnFsp9bEXsclXC13PGpeVHjE/VG29esyTpLF0HD65A41O9Tj+0qkPtTbUuVjwK5hKCbirpcObaBry3UzfGO9nTmqT1hTzECA7h1Gp9znUS2Ad64EC7uHI75s8fXc1nx7w+OoxJVk2ITuY047TrOZ72MxHwwnVPxOty0EE7b4Pq4c6Ly25OuE4xtbnO5tIGZ/K63stDuEZ3Y1AXBhAADwMKq4k11LLcnW/pa5nxjce5ljbqxOe8Qr4OLA4/HOpX7/IxtoxIux4kt68elfQbye5vmwfJ1zIV3iVtIgP9g4CLqqZxtBKd4j6+DC1+3m+osiHi9o54PWngNidw3suyyPf0U3i1GYIDuhHq5zTFu4dN8Gx18bNkp2R7vyaGTaysQBYUvKb0N1TXXSdIr7b5FEzgcK3E8b+RQt74CNvsXgQAD9BRWIqXzZLInNIbkX8/HG+qOv0HhOkQDKVedLTuOLdpc3wHGVyB3CdjnAgEGQG3Z8vcH5s8xVdKbmdKVVyMNc4JnJPcF6856DIn/6+GcTzRjEGCA9j/hn4uJhEMIkKdK10EZD7ycrreOYlU/MRTVOKatxDGcAQQYYODm6mdDQfzZad5qPx6ndS1n2Wq7XUtoYiDAAG/HrRh1GUqIvN2Tss5Ub7VdAgRAgAG8uGoYXpJcpxSIhbj6Ci/561BcBM+3OreOtq22C4AAA9T6FO06ATMxHdGD/px7cCGeoqijzhoq2SaTZdchUrq3Tlvu5We1XQAEGKCTT9FnqrczMXZznXt0reqtDtric7XdXeEMeFdYiRdw64hcOs1Di/ASU63OIsdAcGyCZB+dfCj3EbbrGu1iVaNcbVjRPEGAAYbHZbfdS8tOKKBanZ04fO+uHbe74LpRY9Vqu764lMmljTISBAIMMDBt7PRLgKnX8bo8yXPZY1kv5H+13V3ill6HSxtlBAYEGOy9zRv7RObSacYOr/sDTcU5SLpYtXDcvy2+J5L7raOmq+0mLdajrX9poiDA4JXRdB1L+qh+lxS36SzOJP0zmq5XptwrSf8MvNyJKd9HU89Ng4ZLRxLRup241Ffs8L0ue/hUdf51JntL6cTk/3Jf38zXhey2p3BZfv9DS3XDCAy66xepgr0KMYnSWxPXz4+TUOmcjJn6vQ2RSLqTtDDlKyv3JlfuQOn6HV8HUO6lpLssbFVwKetPh47Q5bif+C1oxdgxGFUFiXNPbTsqCW0r8/u2LAnKcY1j+whs+d8pAgwIMKgMMyvzZnH2/DiJcmGmi2XtN+YN9May8y+GsAtJFyaEnfRQ7ofRdN3mAmG2n1hPHI8b0fKd2Ha8ru0vC57JlqB72vJrytbAWZgwExcCRNjwNdStGxbdAwEGzmEmNm9ix8+Pk7nSnXhnLZxqYdv5m3ASmc78QdLSjMQUQ9ixKXe2g/C8hXIvt5Whx44zqHGNsgmsdBT29WXTSddZSHBugnjZ33dlbr4Wepn8e+cQ3M5VPWnYJWTf0eRAgEGTMLOQtHh+nGSd3YmaTdiz6vxz5zso+dQ2k3T7/Dj5PfxdvN1kQtHy+XFyZr6/aQjLzrXoKLQUO85TbX8SaSz3lVnzHQoBxt6VpKMd/153E8gTc32Lbeugh9c4l3Rj2vxC9isU539u279HlseKxe0jEGDgKchky6YvzLyTLMzYvFlvDRqF0BLmwobtsHUo6WpbmNlS7q+Wx09UMR+nYSCKHL7/Si9L1xfr4LZBqIwqwtFb53pdZ2akpDhaEphrVDckZxN1jwZSL1kYztrc3PLnvpnXEBf+/lRuWzVcCiDAoIUwk+jPyb9BScdwrXReS7IlsASmA/1i/mwyb6UYZrJRntWWcgd6mS+Tl71hO8/HcVTn8dBbU+YH8/+2Qc8mHCV6nyMxda7xuWnzS0n/UzoZ2sct1m3hqG+Xsp+7MjYhZmVCTCD3yeWxWFEaPfiLKsAuZoJwFljCDk6Zdcx3LQeSOp9wfw2oPLHSrQqK/nPo5Gw63m+yG3naVp6iC9nPOdn2/vRDw1kAsPi6bevLt8NCiHCp5yY2kj7LfmTMd/uMZL8J5yFB6419OKcKUAgsgV7mskTq5umgvEDp8PXp8+MkCzMPO9Zn6Yrr0Hzb3vOEyUvVW2elDUOd93GR+x1u05ncb+sBXrCQHcpGGj4oHW0Z91yWLMx8e36cDKHDamtDwJXc5rQcq9/9ffq2aCk4JHJbyv9a9fct2pjRgKUJZPmvbDPHpq/xqOVwcf3O2yF6xggMXjeI1+vL9L1YXqyXib5D2JJgYzq4e8+v8cgcO9Lu23QblU+4fI+Old468BWyV7kO3+YJONcQma1B9GSun0uwyC9JMHM855Fpr75/f5uEN4AAA3+eHyf35g3vprANQNdhZusTULm1Ysaj6bqvpz+WpvPyMSJU7ASOJH3f0ikn5t95VPWlnRx6CjHZNd3kwkmwJUxWhchNybGzlXObvNZslC5brsB2td+V0jkq9/JzO2lj2uyCJggCDIYie2Oc5+ae3HUUZnaFlrJz9T0CsTBlrvvJNlZ6qyAuCSllnXLWWW9opqWd823NzjkxnfGypJPOrkNY8ve7QuSluXaJ+e/E82v+vcyAec0nubrY9TOHSufFnDQIfLEJdwlND0PAU0jIgsK2pyf+CDMWAaON0PLqjXQ0XR8OpOrmslsscJP7NF4VwMJciCmODlS5siyL7eTLubkWVS4tg2W2DH6VB7nNC5rL7tZPNvfEZlRknAsxbyVEZoss2u5F5tJubZya61TFdvPXbD2escX7Dbe8CDB4ZwHGZ5hpElqGGmAyQeErq6/8F7rpoMPCddiYtrcRt+CKbTYyf/5t6m2jlzWPYjHfCgQYvJEAUwwzN9qyWm8ukGSfXm9KQkugl8XpAodzDzHAAAAIMNiDAJNntfVALrS4bA9AgAEA/IFJvPChbI+j35somo0e5w1DCwAABBi0HmayvVWyv7uiagAAvrASLwAAIMAAAAAQYAAAAAgwAACAAAMAAECAAQAAIMAAAAACDAAAQL9YyA4AhiXbkFJ6vSnlLrFeNqysK9TLrs75/646b6L2NysNlW518mlLfWSbUGYLaG5oRgQYAEA3bpVuuVHHuflzKenB/GnTiYeSvlmGlV3nTUxwuJO/HazHkk6VbkFiE+JmhWB151AP2EPcQgKAYQg8HGNmgtAPSReWIWHsqexzE4Z+NAhi+dfx3QSkOvUSmXoAAQYAsEfGpvP/7imguIaZLERFNX5+LuneQ6BreksNBBgAQE+yW0R9CMy5XTZyncvfyMkDl58AAwDY7xBz0eP5Ty1DSSC/u9bHXPq3jUm8ALAfLs2fiV7mrnzS68mr25zUDDEbpbdiEkk/c3//yQSjwPI4c/Pzu8pwLrvbXYleP/WUf2orX24CDAEGADAA2zr/QOmckXDHz46Vzkdx7dRXkg53/Htkgkdkcaxzc/5tZZhZlOVsx89Hkr6YsER4eQe4hQQA+y0xISOp+L6ohXPH5tzHspswe7ujbLtGXzbmPHFFWc4k/WP+BAEGADBwG0k3PZ5/YQJGVYgJVP6I9dji+C5PFCU0CQIMAGA/rAZwfpuRj5OSvwsrfmbM5QUBBgDQloWq55+UTf6t+pm5RcgBAQYAsIe+VPx73FE5Li2+pzhh1+b20HelE5kZjQEBBq/caD9m7i/V771+YIjG2r18f5ePFceqnoPyqfD/K9nNWznXyzYJAZedAANoNF0vR9P1oaSPSu9jrwZUvOze+sfRdH00mq6XXDHgt0jVGzLe9PA7u0tZ+LhzCGtZkLmX3To4eIv9FlWAQpBJJF1Lun5+nIRKd4Kd9fBpJ1E62nI3mq5XXBng1WPQgfn6ouq5ISvzO92lf2sEiwvL15M3M1+J0ltXC5oJAQaQCQ4rSWfPj5MoF2bauge9yYWWmCsAvPKt5u+U7RotQ3CodK6L6wemQOkaMyfm9fKhhwAD/A4zsdJ728fPj5O5+aTka+g2Cy3cGgL8iU1nnuxRmTeSPpuwVuepo9AEoGMxGvPmMQcGdcLMYjRdHyld8bLup53szfUf5rUA3kPAsexW5x1yiLlU/ZGjW+2e1Iy30BdRBWgQZDbmU87i+XESKB2ROdH24d9E6WTCpZlrA8C/sfk9XGm/b6VcmPeXExNGXG9d376BOgDQpefHSWgCTfb/gZkQDGC7b5L+8/j1S9VzSaKKY3xr6bVc1Qhl8xp1dE+zAgCg3wBzUfj6YdGBf+8pwPyqOO5pg3oKlI6u2IaYgKYFAEB/AabMqUUHPu84wMwsyuRjRDabsFt1LtaJAQBgYAFGSm+T1B2FaSPAVIWKHx7rbKzq0Z4LmtbbxFNIALDfqvYe6nL+2anF+e48ni97kAAEGADAnrF50qaL2yhzVU/O3aj7VYFBgAEADFRc8e8HHYSXW4vvu9H2tV1Cvd4uwVZVOEtoHgAAtKfuHJgsQNSZBxOp2RyYQNVzcGyfiLrInXOu6nVfxrJ7Gimgab1NLGQHAPsvrvj30HT4rivbjlU+KhIq3U4ksjxOtjrwLge5UBXp9UJ0P82/JSaQfJDdvmyxGIEBAKBVTUZgpOp1YeYlPxPJ7+J5dR7lzrRx3ohm9XYxBwYA3obYcoSjS9nIy6Li+9oIGguLOgEBBgDQs4ceQkJVoPosu8ecoxbOfUyTAACgfU1vIUnVi7qFJcHB922bbzUCic99oK5oSgAA7FeAqXoq56qlAPPLnLvuonmR3PY32rZxI5vGviM8hQQAw7DycIwbuT02nChdyTc/PyZ7YmmXWOn8lifz303LHpuvMxNmDkw5dpUlMed9krQUTxsBAAAAAAAAAAAAAAAAAAAAAAAAAAAAAAAAAAAAAAAAAAAAAAAAAAAAAAAAAAAAAAAAAAAAAAAAAAAAAAAAAAAAAAAAAAAAAAAAAAAAAAAAAAAAAAAAAAAAAAAAAAAAAAAAAAAAAFDH/wMTy5pseWSy4AAAAABJRU5ErkJggg==;imageBorder=#000000;strokeWidth=1;" parent="1" vertex="1">
          <mxGeometry x="637" y="487" width="160" height="57.24" as="geometry" />
        </mxCell>
        <mxCell id="vA_zg9s_kciJOETXED91-62" value="" style="shape=image;verticalLabelPosition=bottom;labelBackgroundColor=#ffffff;verticalAlign=top;aspect=fixed;imageAspect=0;image=data:image/png,/9j/4AAQSkZJRgABAQAAAQABAAD/2wBDAAUDBAQEAwUEBAQFBQUGBwwIBwcHBw8LCwkMEQ8SEhEPERETFhwXExQaFRERGCEYGh0dHx8fExciJCIeJBweHx7/2wBDAQUFBQcGBw4ICA4eFBEUHh4eHh4eHh4eHh4eHh4eHh4eHh4eHh4eHh4eHh4eHh4eHh4eHh4eHh4eHh4eHh4eHh7/wgARCAElAQUDASIAAhEBAxEB/8QAHAABAAIDAQEBAAAAAAAAAAAAAAUGAwQHAQII/8QAGgEBAAIDAQAAAAAAAAAAAAAAAAIEAQMFBv/aAAwDAQACEAMQAAAB7KAAAAAAA+KhGdyQM6eiUAAAAAAAAAAAAHnsHjMzTOZQdfpzkZrbOjo26Yh2i/0qd4xMWuP1BqbVzh+jIAAAAAAAAABTLnTIbeJij6Fs62yzbhX6QHU5WKlet4sJ6gAAAAAAI3nXxzqt1OsTdDVet1ne4xv7qHWKbqaO2pywVus2dbZZtwr9IDqcrz6v9PyfYIPh8bDd1WIoMtqudmsXGLpPRdBb44AAAHJeddF51S7t3FPtBiSOkdPMaoz6djnZc0d8y1Xra53n12b6qknrsRWrs622qGYpaJlsSsNtqVtjsvY6nkwAAAOS866Lzql3buKfaDEgAzjBrb+LMKf8b2nvoAAAJaJlsSsNtqVtjsvY6nkwAAAOS866Lzql3buKfaDEmnuR2Yw2HA30PfvHkLn560dHBh3SNPwbWrvoBmKWiZbErDbalbY7L2Op5MAAADkvOui86pd27in2gxJHSMdmFZFjnsmPIzcxX6QFS1drV384MxS0TLYlYbbUrbHZex1PJgAAAcl510XnVLu3cU+0GJI6RjswrIsc9kx5GbmK/SAqWrtau/nBmKWiZbErDbalbY7L2Op5MAAADkvOui86pd27in2gxJr7DOIHBZUtdU+LczDDhreDMbJhgWYZcRPSAlomWxKw22pW2Oy9jqeTAAAA5LzrovOqXdu4p9oMSGnnG5mip7ZUbUhvba9Ji+k6edfMo/p8fCxzxtauYgwlomWxKw22pW2Oy9jqeTAAAA5LzrovOqXdu4p9s+pbOuHjuixu6jyYZJOM2S54iv0gZqWr2qCucPmSwQEN3ktEy0dthtlUvDNvHS8sAAABq0HpCOygzlh9hu18/rZVUy502O3iQo+hbOtss24V+kB1OVipXreL80JBLVRIbqnkLMLNepaQlAAAAAAABTLnHRn+cV8o1LvfGzrbMd1uFfpGW0zr2WVwZ+p5EJQAAAAAAAAAAA8iJhjPHad+k4vTf5haLfuQ26e36s8oMgAAAAAAAADlt7Jdgwm61cplavpstP5N5j1TeYsBuMOYOeSRcULTDpqHmAAAAABr7FFPjBsQBJfWW0FU8sEISdT+8B0CmbdiK1taUkI2TkSv9I590Eo2CZp50rml9hycl6ZcwAAAABq7Qau0NXLlGD52RH5NwaPzIDX1JMYvnONbZDQ+t0YI+XAAAAAAAAAAAAAAAAAAAAAH/8QAKxAAAQMDBAIBAwQDAAAAAAAABAIDBQABBhAgMzQwNUARExQSFTZQISNg/9oACAEBAAEFAv6+97WsbPhsuiSY7/zb3+lpLIRBqkZQw643ZoSQIHoOTHf+VMG/gBSMoYdfQbs6iSBA9Cu/fH+PmPptRuzsifX/AB8w9NqN2dkT6/4BhgwaJHJ13pmXLRTM0yqmSx3tcx9NqN2dkV6/QqWjxqKylq1CTsg+SDKMv+POO3sZLJZpiaeTWRSLJUTqN2djc8EGIVk5a6KPMK1i+esefdXfw5z290j1tWVJQ8ghlewvs7IvnrGufw5z29xiFOMrZfTSrrTV73vq2663Tcg9am5BpVEKsp/ZF89Y1z+HOe34VMtKpQQ16dbSl39NvBF89Y1z+HOe34b/AOKu63aiG1/e8EXz1jXP4c57e4txTbNyn71d12+jfJV7fWrstXq4rF6fTZD2yL56xrn8Oc9vdI9bVvk2F9nZF89Y1z+HOe3uketq3ybC+zsi+esa5/DnPb3SPW1b5NhfZ2RfPWNc/hznt7pHrat8mwvs7IvnrGufw5z290j1tW+TYX2dkXz1jXP4c57e4hv7rdwFVcJ6rjP2pLbiVqdbTVymLVc1mrnpp1X63NkXz1jXP4c57fjf5/BF89Y1z+HOe34EtuKpIj96SAqn4NSluQpiacjzUUtC0bovnrGufw5z29xbimmh5l1umZsRVMljPaXv9KWSymln04S8ui+zsi+esa5/DnPb3SPW1BJfbfWta76l9nZF89Y3z+HOe1qm173ZjS3aYhKyUEcaI1G7OxiHAMCLxW9FQ0kPV7XteovnqBFeZ8T7LT7cjjDS6ZhXr0zECIppptu2mYem1G7OyJ9foSIMTYvGQnKGx0pgkGPZG+FmPptRuzsifX/HzD02o3Z2RPr/AI5wrJg8ljZDNLSpCqG7OjaFuKEh13pltLTfyT48Q1MljRDNMpUgxtC3FCQ61UOO0wn5pYIpVDjtMJ/t8jKOekIgr82NU4hKvyhvuvPMs2QtK0PPss2ZeZes6QOzdsoZ1S1JQlooV5SlWSlZI6G23EOIqSeLOnmIowUmUZMfalY4wAOHJuZG+N9xLLOKNXeGxS9xSsrstUtLwILMRCxrMiDjFriyhkfE2KaUENlMjHR5V8ZCZekzk3lckmYMJMegpRmH4/EjmRsKj8HJKmYkhwwCddSUWp5A84/LOMRKhlR3jzF9SI5GMBWQYI3AzGSe+nfTYt6CF/lANw1z7zgbuU5Yb/sjzouySnP2rKpqZD/b0CqDw/FP4+P/ADmrzYDZWREsSz8hIjAKlpmNTHYgO6PDeNxlpxdPMtPJWyytS0pWlpCGkJZaQ4QGKTeww9qeFGeU2GIhbrTbqGAAmFrSlaWm0NIs01Z6iBBiaHFHHs6226lqOAaX/wAT/8QAKhEAAQMDAQcEAwEAAAAAAAAAAgABAwQQMQUREiAyMzRBEyEiMEJRUmD/2gAIAQMBAT8B4wjI+VHGcfsX3C297KKh8mgBh5VJEEjbCVRpPmJO2z2+yDqNZl4XhT9QvppaUCHeJHp0EjYUmj/w6GimiNtrWa50shSEg0/+nUVHE3hV2nNGO+HFR9JkOLHyp/ZeogrP2hqAJFmwZWoduXFR9JkOOBwBbnAGVqHblxUfSZDix8q33vusjzYMrUO3Lio+kyHFpOWzLxY82DK1Dty4qPpMhxaTlsy8WPNgytQ7cuKj6TIcWdegKeBl67r1iuGVqHblxUfSZDizvsRVL/pFVSIXN0EUjrFgytQ7cuKj6TIcI544+Z0epRP8RuzWesj33Z0JiWEGVqRi0DtxRynG/wAUddMX5LaoOo1mXi0/UJbUFXKPlHIUj7xfTEW6e1RzBI3xTLwp6qKFvk6kLeNy+1n2YUVcQ86n1Uz9g9k772f8Z//EACYRAAEDAwMEAgMAAAAAAAAAAAEAAgMQIDIREjEEEyEwIlFBUmD/2gAIAQIBAT8BvJ0Qdu975vpE6oPLeEzqv29r8bWY+mSQ8ITvCb1X2u8xwtEgDUZ06Vyhn3fE3S5VbTajEjGUKO4UGd0uVvla2O4UGd0uVQtF+FqtUKO4UGd0uVW0NRR3Cgzulyq2hqKO4UGd0uVm9b1sWwVdwoM7pcrO2u01eEXCruFBndLlQMJQgdzb2naLQoqAfO4tDkIWCj+LWY0MTSg0N49LvIRYW1ZGXJvge50P0mdMBz/G/wD/xAA/EAACAQIBBwoEBAUDBQAAAAABAgMAEQQQEiAhMXFyBRMiIzAyQVGB0UBSYZEUM0LwFVChscEkc+FgYnSy0v/aAAgBAQAGPwL+X3NCGE8+5NujsHrQBPNv5H4252UUg/1En/b3fvXXSWT5F1CouMZLBs5PlarE82/kfimxGZn67WvauuksnyLqGWLjGhYNnJ8rUktrZw2fENxroRcY0YeH4huNdCLjGjDw/A5+IlVPLzNFMDHmj532/aukVkH1FdbGybtddXMpPllPGNCLjGjDw5etxKX8l1mrYbDM31c2okugULfNC6qCydXJ9fHs8PwHR6EzD6ba62NX3aqKLnK2cNR0IuMaKQnnJJFGsKKtBEkQ+vSNdfiZHHlfV9srcPtkeJnJVRqv2WH4DpnfoI7NYBrmtUq/fQffotw+2SXd2WH4DplVGuvyXNa1zfTQ6DsK6QV/6V0lZf60zDYdFuH2yS7uyw/Aey6UaH0r8u240yjwNbOwbh9sku7ssPwHstdfmL96c5jWzj4di3D7ZJd3ZYfgOnnLtrv1rkb75F35NYrXGv2ruUyjYDotw+2SXd2WH4DpnfoDfovv0W4fbJLu7LD8B0zv0Bv0X36LcPtkl3dlh+A6Z36A36L79FuH2yS7uyw/AdM79Ab9F9+i3D7ZJd3ZYfgOmd+gN+i+/Rbh9sku7ssPwHTzL2rVIPtX6T61+WaF0Ya/Ktcij1rv1+o+laoz96L2tfRbh9sku7ssPwHtJOI9i3D7ZJd3ZYfgPY6kb7V3bb66Tj0pmTEDXrsVro5j7mrXh39NddNWXeNJuH2yS7uyw/AdPPQ67+VdLDxNu6NdMPH/AFrq50J8r68muu/fdXQT71raw8hT79FuH2yS7uyw/AdP10I1SVwM4C19VdJidB9+i3D7ZJd3ZYfgOhZQSfpX5WaPNtVddN6LRaNOlnDWdCLjGjG8sNpCO8psavhcT6SD/NdLDMw806VWIscjcPtkeSVc0MNQ8ey5uaNZF8mFF8FJzZ+V9YrrZFTdrrpAyH6mrIiqPoMp4xoRcY0YeHL18Ecm8VeBngO+4o9bGyEWv41cDOf5j8E3GNCLjGjDw/EHjGhFxjRh4fiDBOpZD9aL4RufT5T3qKOpVhtBFskXGMuailj5Cs7ENmj5RQjQWUbPirYiIE+DeI9aL4RufT5Tqao0dSrBxcEWrNRSx8hWdiGzR8orNiQKPjgZ4gWXY3iKzYkCj+cSwYCeSMYWHPkzGteoMR4svS3+NKrOoZu6Cdtc1+Ii5zZmZ4vV5pUjB+drUGRgynYQavNMkYPzNarwypIPNWvVpZ44z5MwFZkeIidvJXBos7BQNpNZkWIhkbyVwaLMQANpNCRp4lRtjFxY0HjdXU+IN8h5KgxLYaJEznZNp/d6jkg5TnkjDdOOY3uKWPCYgYe7dN7a7fSnxuH5VxbPHrYO1wagxLCzOuvf2jyvqVFzjWJx04u2MkO35f3esbyS51xPnJu/dq5MSKQxuxZQ4/Te1TSQoRNEufzmcbm3nSY3lItipHFhnHugaq5Q5PViYY2ugPhT4rHsrM+vrpNQ3Vhv4ZIhhmW0io9xfX/xXP4yENmL3ixFhUvKUEXM4ZLrAvn9aOAlY/hcOmeyA94/s1LNhYuYmhXPVlPlUk8nfMDhvra9Q4nHZ091zY1JICAGsXyfEW5jM5xV8tnvkXlLk6Xm8Uu0HY1LguVsN+GmOoN+k07YeMSSgdFSbXrMx+FOHwZI5xobOf71D+DN4Atl7RcLH+ZiXCDd+7UA0uJvbwkrBYuJ3MLnNkzzf9/8VyP/ALv+RWM/2W/tWF3H+5rlX0rH/wAW5vnQ/VCbZb19KwJwKKIgc0si2Un/ADUXJYlEIl1zOfBaiweFxMZt0VUGmxU4Iw+KTNz/AC2e1SRYaZZ5plzFVNe2pYJO+IHJ9b1hdx/9jWI/8f8A+ckuGncwPGbdMajWFweA6+XPvnLsUVEMUxUS3s1tQtUwXExys6EBVN73pRMpUuxcA+XaK7xIzJ3SVuRkzZokkHkwvSM8SMU7hK93dRR1DKdoNBI1CKNgUWFNIsSK7bWC6zQOIw8UpHiy3pLQRjm+50R0d1Z8uHhkbZdkBoOmEgVhsIjArMlRXXyYXrPhwkKN5hBeirKGU7QaCRoqKNgUWFc8Ik5w6i9teTr8PHLxLeuogji4FtWbIiuvkwvWfHg4FbzEY/6K/8QAKxAAAQIDCAIDAAMBAQAAAAAAAQARITFRECAwQWFxofCBkUCxwVDh8WDR/9oACAEBAAE/If48wIABMogoaTpyR1DN/U4n8wTgAEyVJgVQdURUCudma7Ctje0kML4z/wBQR+QcY+AAsxFwK52Z29hW43qRXDPkOorc7CvzU7itzsK3kHwGw0yE+gTK2UbfwQi2cICPAEMzATc5qmPpQs6WtzsK38cJ4DDncQT6V6R6zW6yQweU8J7IoYbtK2CVssqosRBgkIk5Cnc7GtzsK3QKMWSncp1q9/hTk8ND0Qt6etgBJpGYYXSVsErvA3BiA3sTEY3KDjBLp62OBwukrYJXX2Tl9IFCjbkgBNvCKVJ49k0A/sxG1cl3p62OBwukrYJXz4sFMRiagQNIFAWiUKX+nrY4HC6StglgEAcmRJi6kykwUMIEcYHT1scDhdJWwSumWaZUDsAp6fNEuYl1wFgIAGy3p3YoZuQu9PWxwOF0lbBK7wOMZ9PWxwOF0lbBK7wOMZ9PWxwOF0lbBK7wOMZ9PWxwOF0lbBK7wOMZ9PWxwOF0lbBK7wOMZ9PWxwOF0lbBK6E2bd2WcO6AS8CfnCKcOTQkxpKh2CGkFM5t01aDXenrY4HC6Stgl8OHT1scDhdJWwSveFNMmSt5ZRbFFDBQSJ4j7X0P/hEGKbF7p62OBwukrYJXWKAITcoAIbK5QE9qGcJiHTJrAA5ABV9pEsjzIBIcMhMuvp62OBwukrYJXZmy4fG6AbJ9bzgn09bHE4Tpf+lmVgdSKJNRCQBMh0f0pqWzec3OwrdmHTUIpzT8j/xPp7fQiiAgGRs6eqAElgiDIAJhDwm1C6gcxn9qMgvIoj2lJaK6Zt7WtzsK4CNyETfI8p2yNA+1HlFwZuoCIyTH7u+KfGD2FcJPPx69hW8A+OR4DwYxqoMhGQP4UXljOAWdhW0JOuQm32h9piwWB0Pk0HcBlPREB+FR8WABFBJ1yE2e1PtVKQ0z84yZx5XmWx3M/wCYzgB8IfjcobjD+CHILI7qB21TD4X1DshuVwgd7Qs+O7AoWkMIvsiMXTCDhDJ0Dgs5T1czAghCchgFrlhnCFgZyIBSDxQ2CpWAGw2OZN9l/wBEI6HebGvhVN8Qf2Q0Z0mclJ5x0Fj9Yh/3QmginDoCMwOG9oel5UibtWRwHRKuQMx4iclVGM3MB0wNsgjgGOqelCW2gMCQIT9gSSbwi0/ZgBjkd042TodJJ+x0TDTmRInw9pyFBcKoqJOQKmHT0C4U4GDbKPaiQZrATIRoFn9yjBGAEsx13UmihRbrV/YIzQmtBVhXXEfHZhpwfrPKas8UAPpBHJTM4GR4N0GhagwGTSQiTKSSM1tRFu7aHCAR+xK3ZcH0mMcmgoIvLBd7dN0KWYLvyOWUjKmhcbmw5wX1Yeo9QdUGm6POy+I+T2SzqvHAQPtO0VvGGjRDQPFEEzfWISdzjtjSweA5cBg9WKKj9wRJfRDIKwLgrJI0h4UqPcDcOaFVCAZIjpp/qE1WBEhvKi4nLARsSptC0lvnsgthYBwQnqxQU8IoACYC8UedjUTQgCMgjYCjNl3pFJ+mxIMB0Q4D/iv/2gAMAwEAAgADAAAAEPPPPPPPCk/PPPPPPPPPPPPPxSLSh/PPPPPPPPPPLPaffaPPPPPPPPFVC2vaffZzvTfPPPPPVP6+JvO9vfavPPPPPVP/AO2zVz332rzzzzz1T/u8ry/732rzzzzz1T+v2j33732rzzzzz1T+v2j33732rzzzzz1T+1z+a5332rzzzzz1T/8AuoWE899q88888ec5n95c93//ANfPPPPACf0vaffKMxJvPPPPPPPE/wCn3ALzzzzzzzzzzzxLBmPzzzzzzzzzzDTjjzDzTjTTzzzzzyRDTjzRDxTjzzzzzzzwzxwywxyzzzzzzzzzzzzzzzzzzzzzzz//xAAjEQEAAQQCAgIDAQAAAAAAAAABABARITEwQSChUWFggZGx/9oACAEDAQE/EPNGwvGLNuZVbDMkDAWllt5byfqO1bOT36bQhj2HhMZoBcX6imf6xPw3ptAxRsDF2d00Qzi5sfHmdNDdR9yK6JZwJ2ksb6aeCHTXHcYZJh1LWrp4IdNGiSK9wcktcivUFmU08EOmmym5CjbTTwQ6abKbkKNtNPBDpoRLMUgcjH44tFVu008EOmlveB1KfqK4JtyIu1NPBDpmaMie5aWFzDDBGa6TKOa4q3L5XQoXZsItys9um0IZ7T/sGamtm8W7wgT6l0KbQjsbLFdvK7upbDKdW/cdXd38M//EAB4RAQACAwEBAQEBAAAAAAAAAAEAMRARICEwQVFg/9oACAECAQE/EOz9sIbH7Lo24b3jW3Pygdmz6Xc1fErrGbg/mLOnktP5EQbGOv16sjePDDTCP5wsrkp6sjefYOLfBX1ZG8e3TAkcAyPzJX1ZG8WxTNclfVkbxbFM1yV9WRvA6g5vAwjrXhkr6sjeA26gH9gEQ3C+QreSnoeo3KshjfKreDVSJ3Kx0PV1Pd1ACpbzVEG4TUK18Q85dZqyDWfVBgs+36YAV/jP/8QAKhABAAECBAYCAwEBAQEAAAAAAREAITFRYfAQIEFxgaEwkUCxwdHxUGD/2gAIAQEAAT8Q/wDNmpo1/wAowBrTlDqOYEuB8T3K0N7oXTC+nShCDJU1P5MtNjoqIAqbk+MFdbp8XxTT/ZKPcmfNY6RW15eEzcQkkAycS1Se2NsPbC/ukJIyfkjQw3iXErDamk+yUY0mfNdI47Xl5LCdaRQNHEt4ohbBMzFRj+WZteXl9LXT8CampqeE81m15eX0vBPCTOpqan4j4yWW7DPgKTxDICalYzlXUKK6pLGif5TDNkP6v6p84AL3V6FYI+eZ/a8vL6nggXQ81ja0YAnRlTzFWxBAInMMo8lIL2CiQ7rPW9etQ/WBeWj/ABoZuXPi3LLyHaoMM2Ib2Gx4ohbB5S9ZrOkksMxbk2vLymRdEDLYz6mjltYZDUmPsNMdRr23px93wrmhmLvRemFvi2LLzmw5vEJsF661KcQCrBfo0encLDfO9frj7v8AXL7vhbfm/FsWXnDruUJjDVtWLxi8Zj6mmhMYzH3NXQoXu4eOnjjgmzg8PjB+qjSVYx9MWPqpsQ3bXyX9UQudHCeX3fC2/N+LYsvwgkRs61PT2aJqZunX0cx6pbd3XoKfooDCkBgDn93wtvzfi2LL8RBac2hM8sEJl0oLZmnQy4mdqC5Q/A93wtvzfi2LLzjdBGJJs1jr7f7iatBeT+mnlZ5t62XM4BQfUKnpE9YH6r+y/wCsKbIRJ3t35fd8Lb834tiy85sObyeq/fLuNOX3fC2/N+LYsvObDm8nqv3y7jTl93wtvzfi2LLzmw5vJ6r98u405fd8Lb834tiy85sObyeq/fLuNOX3fC2/N+LYsvObDm8nqv3y7jTl93wtvzfi2LLzisQRHPCjzpsxU16l+6nZaM4/qorJix1xmkJQwiJn7msdL132EV63Af2jeBYqn4p73l93wtvzfi2LL8B24zXTdP3Pw+74W35vxbFl5z9VekLAvUUfdREmcEf5Se+wr/lNlNucKzEjfHKpdDvB/PL1KSox8PGf/L1oPhn1z3bm93wtvzfi2LLzj0GokbuTaKjTSEqvdueqhI6umPZvfqlkFhEfbf1wSl2Kp9zU+IAw7/5WN2K/w/2jb4uF4zoADle74W35vxbVl5zZdeRnly8mhC7dcrVMOz1MH8OHfDhuNOX3fC3vN+ISpR/PwOBGJwJb2otder7GPqrK3Lwf3fqsZ844+vJteXlPoGvM5sWXuNAjd7acSr0DHWLfdCmzzCcJHRMSu9e7qPmq2Avd0petizixTp+/ixjQFPe+DrSySXmeyXnzVYxZgPb6B7qNxumA+oFaHYR9VB0Kjl/2vLy+l4QdajVbA/ZYjxUvUzZzS/VIr87e8XodFv8AdDkBiVmcf4+2sPiiooNeEVHDa8+Ta8vL6Xlj8Nhd88m15eTvS+r+QOEJTMmwTqfWdabaHa5Z2ekNTmZ2WdEYZ04bXl4d6wG5yWP8o3D5nl98J4+6RXe6YDvf8pCkyPCYX1jDMq16S2B/55Q6NDBvWXGyNztWAVOS9+2dGYOM8vvgPH3WltjyLi+fy4y4RRKWnJAyQbxPTDMoJ16hfucV78Y/Emp+eampqan5WiedpK0skw3pUYlgB09VNT3sQVRiFvCTCkFhiXaL5nSn1dBu8hZeomkAHzEs1bfQXrospyUQFnVVT4rJRmCLWoyLFHrOwzUVWwz5q4VZJq2j62VIVEVDCVVwNa9xdGIYamZNFdkluBQtQB0sCQhZic29im5cLHCjcEYizuVj62FHYdN0dTvR12LAKFJQXvCM3KNNLhhIY0VJ3+QRuRUavRUZIeWT4khGQVPamUxUFnUnGrQyBolIfqCxrXWRdCSSSnQEOFQzHK+AbLqleq5y1ObvmyU9iG3RSaxhMsc9CI74UigN4KEQLGEOHlTBHINJdjIJVRHbR1pPNcFthMTHQdygJ4/Y2dCF2hJuRzFZczYb4zGUU/p/31Tge7U4XoAERkqpXXu0V9SiL+y3tInqBPAL71oIguyWYLgdMUYHUojASMwLaKnYvUo6hU8WXYtrRl2ExgYHgJDoXglqWnicJaks4zr8gfIAXApDVXkVFtIZWRMMJMwVfDeS99QJtoZ9XCvfc3BduNSpL02CP/JiXC4Ui+knCzgWJ3WzVgQDbmHmtGgwWof94NRcrrC60P7cGBBmMkr1ifSnDt6mK+lgcMVgCh/jIPvp2eOSIevJ62XoacEdGJFBsnsEEI5MF6FXcYSTBgbk4bODNSCqfZTAw3lmMGopI4hTb0klGvyS+2kmzLSXYbZVFQ3j18WwG92sPt0nEUl9jCMCofNCneiNk0qWPIAFZsLGNemkH3E+VR1KEQylML00rSs193Bj0ih8Jo7ySFi+GtLm6TVmISUzWhDVNG1AAbA67AmnvRPqYiOI1YyYKSywLEqvmob/AFKOXRkWLT0OABUQqZmBSQmh37HWabwvV9uAz+G1WRNsPmMSVH/xP//Z;imageBorder=#000000;" parent="1" vertex="1">
          <mxGeometry x="367" y="457" width="100.55" height="112.88" as="geometry" />
        </mxCell>
        <mxCell id="vA_zg9s_kciJOETXED91-64" value="" style="shape=image;verticalLabelPosition=bottom;labelBackgroundColor=#ffffff;verticalAlign=top;aspect=fixed;imageAspect=0;image=data:image/png,iVBORw0KGgoAAAANSUhEUgAAAlgAAADQCAYAAADbGh9AAAAABGdBTUEAALGPC/xhBQAAACBjSFJNAAB6JgAAgIQAAPoAAACA6AAAdTAAAOpgAAA6mAAAF3CculE8AAAABmJLR0QA/wD/AP+gvaeTAAB8p0lEQVR42u2deZxcZZW/n3OX6u4sQFhlU2QTE1QEUXFtNxQdSQJTcRv30Rln1NHxNwJJGC6SBHWcTUcdGcd9TQlJYBR1XNoNR2THBEF2lC3sIUl33eX8/njvW3W70kutveV9Pp9Kpatu3fve7X2/95zzniM4HA7HLEDLZV8qlRRAoyjg2upLyORk0OeAHAm6D+AhPIzKLQhXQPZjFu79v/LVf9hu1rHel8qKdLr3xeFwzH1kuhvgcDgck6GDUSBDUaLlqEQcvxvVv8Xzj8EPIUvNSzOzsHjgeeAFkCWQJncifB52fEo2/tsjWl7vU1mRCeh075fD4Zi7OIHlcDhmNNZypcvPOgmVCwj6jzXCKVaQFPAwfZntzzR/ZYCH53v4IcTDd+F5fyMb1vyPgoAiiBNZDoejJ3jT3QCHw+EYD40iTyqVVJetejMqv8QLjyUeTkiTDESAgLrAskj+mfkuSzOS4RgvOBTkEl266kwBFUQVdQ+ZDoejJziB5XA4ZiRaXu9LFGW6dOUH8cOvgHikcUJdVDWLhxKSJSlZqpT6z9elq/8FgOhcJ7AcDkdPcJ2Lw+GYcdRirk5dfSqBt4k0Aevy62zNCpIR9vkk1ffJxrX/0e3AdwWhXPbYukTYb7NCGbZuEQbJJIqyaTmeUeQxhMcgGdE5SnmFad9QlLpYNIejNziB5XA4ZhQaRZ5EUaannnkk4l2JeHugWQr4XdmAkKF4iAeZvlguXvvz4gzFjto+yXq0XPaprM+mKvZLiTwimEjYdWvfHQ7HaILpboDD4XCMief9E0H/HiTDMRB2bb2KB5ri+T7E/6qqzxKRVE1QV9vCpxaMX17vU73ulYiehHIA6DBwI0HpUqlEt4LURGQvD59pT5QSgS47+wQ0eQ3IUxD6UO5F5FcsHLlYvvqJ7VPRHodjd8NZsBwOx4yhJlKWnvVCxP85anVPT7aWEvT5xPFfyMVrv96Jq7BmdVu2+mRUP4HnP40gzD2SYlJIxCM7Qf6LReEZ8qVouJeipnYcXxvti1f9FPB6wn5A8zZ5pk1p9VaQD8vGtRcqKm5WpcPRPVyQu8PhmHmI9w6CEnkahl5txLx52V8CUFnRltjRctkE4y9f/S487wf4wdPIkozqzoR4ODHvIwnIAKWB9/NwdUjLZ+wpUZRpFHW9D67NvCyvOhi/ehmlgdcDSjxs2pFUU+LhhGQkRYLD8cPv6NKVHxREtVzujhvW4XA4C5bD4ZgZWFuPls/Yk6p/I+Id0FsLVm2TVdR7uly85sZWrUr1HF2rXwrej8lSQO1Mx8alFSSmNFCiOnyJbFp7aqduyfF2CECXrfoFQd8LiIerGBfrGMdRUxAfPwRNT5ENa77vYrIcju7gLFgOh2NmUC6b/igJTzDiKqPHz4Bi3ISlEn72fACGmu8TFaQmRDT7J6MDxxNXkAvFEtWdCUH4Wl226nQjKNd3z2pUXu8B6NLVbycovSCPXyuNfyDFB5J8H85XVKRSSdU9fDscHeMElsPhmBlsXWIG9UyPJQgx1pWeD/SK54PqkpZ/mQtCXbZ6ELzjyeKMpicOCai+FYBKuXtxWDU3Z/YmVEG1mT4+IK0qeMex7OwXF/fN4XC0j7uJHA7HDEMPQjwQmYJZbSpkGagcBMAgzW/z1kV5/5mdRFACbfa36pPGgJyoJ/+/+SajfOdCcpSLVeSZJneYNNnHS2r2IXsOUBe7DoejbZzAcjgcM4P9FptYJJH5xvoyVW4qNdsEiKLm46EWHpQvK/u2FiYm5OUS92DPBQtrbeiYyDQiDfZCdaCldQqKCIjs3YWGOBwOnMByOBwzha1bcpWSJb2Lax8H1ST/Txu/ZRgwIqVpBISYcHikeztxjtl+HG4HWgtSr4lZ3QHAtrudBcvh6BAnsBwOx8xC5YGp25ho7o7cCkB5Ret9ougNZGmewLS5PcTzALmZb5z/SL6SbuyLebskehDhJjzfbKs5PNIYVK4D4PCXu6SjDkeHOIHlcDhmBtZFiNxsYpSmtH+6BWgt9mjoHGMlktIPSeOHEBMt38QvU/wA0EsEUR2Mgm6kahAorEs24AVmW5OT4fkeafInquGPgbZzgjkcjjpOYDkcjpnBki1GZAThb0mTkTxAu9eZxX2SKiCXA5jizM1hE3PKhuh+0E8R9gEST/KzBM8PqY7cj1Q/C9SFWjew6wrDzxDvvBs/CLFpGMZEFTAB7sI/yaXRY1pe73crN5eCaBR5Wl7v62AU1F7lsq+oc0M65jTuAnc4HDMOXbrqZwThi0iq3SvyvCvGcpOlt1Had4lU/n5nq4k/azP3VIXlq79POHAy1e2pcT3iFQL1s3x7oSlXk71aNq67tBdJPWvJT09b+RJSfowfCmmcgAoigqpgSuJkgE9pnhDv/KZsXPvG4j512gaAyfZNQRiMfIbOSV2ZHsdcwwksh8MxY9DBKJChKNFlq95NUPqcKTHTs6L0CWF/QDzyUdm09qx2axHW6hC+Lernkep/44VvxPMgTaglS/V88AOo7rwP4e29Ele1NtVqOp79QiT9EkH/4WiGyTSPkVBegLHe6b/JxrUfBOi0HqGWyz6V9Zldh57yyT76tx5DmhxhZih6Pp4+Tqp3A1vk4nX31X+73qeyIutmZnuHYzpxAsvhcMwYahah10bz8KvXI/7hZGlG18MZVBFPUH0cX46Vi9be0Unx5eJvddk/ngLp21F9FrA/MAzcjCffIwk/I5dED0xFOZqayHrz/5vPttI7UF6DchRCH8J9KJcj8kXZuPbyxn3oZHvmGKweBH0D6MnAwUgQ4vuYSLEsF3byCJJdhXoXUgq/JZXooW60w+GYKTiB5XA4ZhTWkqTLV70Jv/Q14pHuuwmFmHAgJN5xtmw8f421nHXUblTgXBFyoVWOFvD4yABZX8oPznm4ZtWZwlp/jdsybcLj0Lt3ygUXxGAEDVGk7VqOlMgD83s9/eznkKZrEf9l+CGkMWQZiGaoau6aFMBHPGPVE4F4+F5U/oXjS/8sUZR143w4HNONE1gOh2PGUXO7LV35X4T9f0m8MwYJu7T2mLA/JK5+XzatPQW6E3dUW3t5vc+SLdpohdHBKJiOWKN6nFOUFvfR1ECsTBonNeG6i5a7pSvPQOSj+CEkIwqSFuLQGscaNU2RDJO2IiAoQXX4V6TyOvmftX9yIssx23ECy+FwzDiKsUC6bOUQ4cCLqe6MMfFYnfRbMWFfSDxyC/OzE+UbH324Vy4pU/7G6hlhJsQW1dvUeXuUyBOiTEFYuuq/CUtvJx4BM2ux1bi5DCHFL4Uk1fvwZZlctPb/nMhyzGZcmgaHw9E1ch9Qxw9uNgUCAGG6lHjnjwn7Q7OJFrOUGzJMUHtIUr2WUuml8o2PPqzl9X6v4n3ETNvLX9Mvrka3qVNxhUBeVmjpyi9RGni7mZCgSnuTEjyUkLQa44cHkOoP9fSzjpGhKDGWNodj9uEElsPh6AgF0fJ637rZ7OBt8h+V2x4cpVJJTQzRxx6VjeteTjL8KYLQww99rGCaMLGnKmgKpHiBR9gXkIxcSLjPSVKJ7mx31qADKK/3BFSXrfowYd9bqO5IAJ9OaxwpIVkc44cLSWSDLov2ksqK1MR5ORyzC+cidDgcbTNGEHWJkR19HD9vey02J4o8onO03dijUXE+p618DRkfwQuPr6VCyFKMmMrXb2ope4gHQWi+Sqt/QFkjm9Z9xbSzc3GlIESRsHmzQLlQS5E8K32lsHTD97XlNitLlph2dxBoPpXUZicuP+sk1L/MpKJQ7VhcjSamNBBS3fkV2bTurVM5McDh6BZOYDkcjraoDbRvi/p5JHk7qqeBPhWhBPIIyv+BfEU2rfkRdDb9XlEhOlckymN+Tlv9WjJ9PaovQuRgxAcvj6XWzMxcI9sKchlChT3DC+VL0bAVRa20Q0Eolz22LhH226xUKj3N1TRqewCDZDNJfNVSaSw966cEfYMk1V7lKsvwPI9UXywXr/25E1mO2YYTWA6Ho2Vq4urUVc9C9GuE/U8ZlcgSzBT8LIUs/SojB7xLLn3/SOe5lkZbnvRN0R5sS49A9AhE90ZF8LJHUbmVMLzZ5lYa67fjbgMVyhXjkpog8aWWz9iT4dIhBHoAqotA9kJ1EaILEAmBEhklkBR0BNERYASREVR2kmUP42UPkfkP0ScPQvyQVD726PjtKgivaRJdtfO+bOXLEP9HvclRViMh6AtIRy6SjetOd/mxHLMNJ7AcDkdLjBZX/AI/6CeLYxQPNB9sa6VYhNI8n+rOH/HM8JXWAtWJMDBCY73XTIoBjSKPIbzGFAXjL7drGgV9zZmL6AsXk3EUZE9FdQkiT0Z1f2A+IgN4vsmMbssnjhUaVvOgGR8mWWpcnGQxyjAwAjwIcgvoLYjeinp34Osd+KWbpBI9Pm67B8mmQnwUBNZ/E/S/g3i4l5n2NS/ts4OSd6xU1txmZy72ej8djm7gBJbD4Wiamnuo/MEBqvOuxg+eQhrHQDj+T4gpzSsRD58vG9es7Karx7oO2bxYajFO+y1WlmzRyeK+xhNfujzaH+KTyPRERE8CeRqq+xL2C3gmbl6zPIY+s2LK1BoUtFB/cGzqywjggQgi1F9e/hKTqDONY/AeRNiCchXCdeBtIVy0RSp/v3Psfep+vq1RWfa96g14/hPJkm7HXjWSEpR8suTdsmHNf7m0DY7ZhBNYDoejaWq1Apeu/lvC0n+QDMcokyQArZWl2UaWHiuXfOzOTmvetd1+a/1qSASqp698Opm8HNWXo/IcfH9vk4k8MYIqy8DkdwKsOFIpdKHt9qU66s0cEy18YNSWl4suzzeCLhlJgHtQfo3Iz1Dv1zzmX18UH90WW7Xkr6etPJ6M3xqLJTYze68w9SKTkQtk49q/cnFYjtlEr0y7DodjLjIU5YObLjPWm2bib0TQLCXoX0gSnwJ8jsFzfYaYMkuERpHH5sUilRUplRUpFdDlq58K2Z+hLCfhRMK+AM2MqEqTjDTJKzWrl2uIhv6yK7pCGtY1xkpVyRJAMtJYjbDzAjzvULzgUERWEA8n7JXepstW/RzhBwThjyWKHgIyiGr731Ex5c2LTdsSjiYIvPz49Dp9guRxfUdCnrqji1n3HY5e4gSWw+FoipqL6OT/Nx/0qWbQr4mPSRDF84BsyZS22QqryAS3m8LHA69Bs7eSZS8j7O+rxUKZeCIrqDxq4mHaDf3WUubX26OKpkqS2NyuAeIfhR8cRZa+k2p8vy5d+RNELkbCH0sU3V87JoNR0FbMVi3NhOyL52PEXs+PjeRVdfZ17kHHbMMJLIfD0Rr+Ah/i+S3bEFRBZR5g8j/1kF2E1WnRIWTVd/IYbyPwDwPfxDcZUeVhlELeH067oGoGMXFctq2qZImS5VYl8fYnKL0e1deTxg/pslU/QOQrPBz8SIaihCF7jDZLyy43jyD3kk6NFck4IUP2c4mxHbMLJ7AcDkdr7KRKSR9AvL1QaT4GRwS87EEAk+Op0tTPWsGmWKgJq9PPOoZU3k9afSNh/56kMSTVNB+1PeZOH1gImgc0VeI0M8Yvb2+C8A1k6RvYM96sS1d9A5FvSxTdYo5Z5FFuQWhlst0kF50iJSpApttZQtKDS8bh6BnuicDhcDSFgGoUeTIUDYNeiR+AmT3X3M/TBPAuB/JM591DQXQwCgRRqaxIddnqI3Tpqs+SyDUE/e9BZE/i4STP2+SD+MwSU1V7iOT76BuxNZKQJhm+v4Swby2aXa/LVq3X5ateIESZFVcT1v2zVkfhT+Zc1oLce4iqmVHJn0yKD3XxV45ZgxNYDoejeWygsy9fNTPrtBmRkuIFPkl8K2l4KQCVFV3LZaTlsi+gpjBwtLcuW/kJyK4n7PtrkD7i4QTNbBHi3bDPE+v+NIHp8XCCyAB+qYzKL3TZWT/QZStPATB1/5Axa0hW8pI+vm4my4aRnqZnsG1XPB9gCwCD57rCz45Zw27Y2TgcjnYxA7CKXLTuu2TxRZTm+UCV8a0KKaiH50MgK+WSaIeW1/vdsELUrFbW+rJ09V9Rrf6OoP9DIAMmvkpzYTUVYmBWYNyiqkoyYoSn33cyXvA9Xbry17ps1ekCagtta1QsshwpgFy09g6E6/AC6L0FyyepAvwC6HnsnsPRTZzAcjgcLXKuESvZnm+juvM3lAZKGA9iiskVlb80xfN9wn4hHflHuWjttzWKvE6LLEOD1erUVc/SZSsvIwz/E88/0FisrLCay27AjrBWLSEZSY37MHwufvAdXbrqp3raqhdJpZJKFGVaXu/XZpAORkH+6425ZamXWdUzvEDI0ttJSz8DoFJxWdwdswbX+TgcjpapJZ18W9TPw/E/g76LsC8c1aVoBkl8F8pZcvHar9s5/Z1ar2rJTstRiWp8DuhZBKGQxHZGoHtwbA8jfIOSbxKs8i08PiIb1twAeXxWZYsKUaavjZ6IV/0dIguN+7UnFsI8yWj1XNm4Jmq2lqTDMVNwAsvhcLRFsfiullc/hSQ7lYxjUfqBBxF+ie55iVx8xjaNIq/T4sTFdZhs4vIFgr5nEA9jrGfi4nO6Qwp4BH1COhIDn2Bk27ly6adGtLze59YfeXLlBbEuXflxwv5/IB6eqFRSu2R4vkeW3U8pO1Yq52+druz/Dke7OIHlcDjaxqRFWOFNNMW/G5aH4jp0+coPkvFP+KFPGieYBJyuL+s+CUhA2Afx8BY8732yYc1P7JdajhYQx1fhBUfl56FbKS9MofCg5JNU3yqb1n3FWa8csxHXKTkcjo6p1b0DE4i8dYmw32KlUs46tTrUXIKnfnghXvAlgr7TiKtA5qxWvUeBFD8I8sLWn2HvPc6UL5yxDUCXrTwO5TLEG0DTbpwPRUgIB0Linf8uG9d9oGgpdThmE05gORyOGUs93ursp1FNK4T9T8lnB/puZuCUYmaDhgNCPHIbPm+Ti9b+HECXrlqOyEWIQJZ2YsnKQJXSPJ94eJNsXLsMjJXUuQYdsxEXDOpwOGYcikqe1DTRZauXUc0uxw9zceXSLkwDPggkwzG+/2QyfqZLV/0/ANm0dgPwSrLsAcK+ADOLtAV3niqQIJ5H2O9T3fmZmriKIs+JK8dsxXVSDodjRqGogJjM8UtXvR/P+3dTxzDrZpyPo31SwCfsg6R6IWH4bqlED+npq48iyT5HUHoJqnkxaM1deyL1pLSiGNejKbMknk9QgmT4UdQ7Qzat+RyMnkThcMxGnMByOBwzhlEzE5et+hh++OE80aQpYuyYIaiCpIR9AfHILfiskIvWXQWgS1e+EXg/4j2HIJ9cmKW5oSovXen5phSkppDGW0G+jvIvsmntXWa26DnqLFeO2Y4TWA7HboSCEEXCEJ6pB1gByrB1S9eC0ttu2yhxtfIzBP3vIR7OjOXDuQRnJEKMF4ak8eME3nK5cM2P7Fd62qrnkuirETkB9InAIhMEr9uBexH5Pao/ISv9UC6JHoB6zN1075bD0Q1cp+Vw7AZoFHls3iwTpVMYvexiobIim6rCug2Wqy8R9L2VeGdqzByun5rhJHh+QJYqIm+SjWu/2eje0/K/DMBjAwzj0b8zlsrHHi2uQMvrfZZsUecSdMwlXMflcMxhGvNU6bs/F3Lvnc9A9Gg8DiZlIR4xnnc/aXY7pdK1Uonurf2+XPabEWWdttFazXTZqi8R9r+V6k6X32p2kSLiGwNV+kHZuPbfdDAKOPpu4aCD0rGEkw5GQbetpgpCeb3Hki1aS0qLCuWK5wScY6pxnZfDMUcZlZxz6VmL8by3o3oqyuGEfYGJgcnHNRFIqpClDyLya4Sv8IzwQlOLruxTqfTEmlUsn1NwC7pg9tmJiZML+iAZOVM2rfuYvXbM18XLRzoumdRIMw8DLmGpYypxAsvhmIPU8ke9NtoXv7oWeDtBf0iamIBjdIw4F/URX/BzbZNUrwFvlWxa8z3ozayuWk3D5as/il86w7kFZz0mZs4vCWn8Xtm07tNTIWqsuNLyep+Ra8oIrwV5KlAC7gIdAvmGbFp7V3GW6nQfLMfcxnViDsccozbYvHbVc/FYT9h3qKnXhy2GLIx776spUwLgl0xW7jT5qGxaexZ0V2TVROCyVe/FDz9FUs0mbptjlmAsWV4AJG+VDeu+0svg9dr1vuzsEyD7b/zSM8wXGcZGKia2Ph7ehshK2bj2P6h/40SWo2e4jszhmENYa4EuW7kC5Rv4gU+axBiXW6v3ewoIYb9HMryJsLRCKlG1GyKrJq5OW30qKptyq5q62YJzhgzEMxJGT5NNazf0QmTVxNXyVS8g0x8RlPpIqknDzFPz0CBeSFCCeHitbFq32uXZcvQa15k5HHOEukVo9cmI/KBLyTlNlu3SvJB4x3rZuO51+YdtP/3XRODylceiXA7eAJq5PFdzjxTxfDSLEZ4tG9dd002RZSdH6BvPX8T2bdfhh4eQxjEQjvMTI6aCkofGp8lFaze4mCxHL3EdmsMxByiUlTkCzb5lPkxTOg8WFyAk3hET9K/QZSs/AkC53FbfoVHkSWVFqm/+f/PJWI8XDuQi0PVFcw8fzRL8IAS+radEe8hQlGgUdedclytmPTu2/x1h/yGk1YnEFYCZ1aEKqUaqKlJZkaozNDh6hLuwHI45gLUo6dKVPyHoewnJSLdn4hlrlecLWfIi2XT+L9pJ4VCzOixbtZ6gr+xmDO4WJIR9AcnIRtm4bjl0Hv9Uu97L632q116L5y8hS5q0gqoiviD6Qtmw9pfOVejoFe6p0eGY5Wh5vW/SHJy9gqD0EpLhbliuGhEgNSVO5DyA+vT7Jts5GAWCmPqCQcmJq92HgHgkIehfpstWng1AeX2HY0+uzarXHgR6BJpC8waDjCCEjOMBGHLjoKM3uAvL4Zjl1GJINP07MwmwZ4bpgKSaIf6LddnKlxkLQtlv5odaLvsyFCW6/OxnIPoJ4iqgTf3WMSfwzUxW7yN62tnPl8oKk1KhXaJzzUWuugjwW7KFiWSIB8IeAGy723lyHD3BCSyHYxZj41nMFHVOIo3BZEDvFRl+CCqva7qNIFKppDoYBWj233hhaJJxuRmDuxECaiygafYp417uIP4pOsdIqqD0EELS0lpUPbIMUFOuZ+FBLlWDoyc4geVwzGase0OzVxD2CybXVS/xSGMQfZm+LeqXSmXyQXIwMoJvz/hsgr4TSOPEJCZy7F6ITxonhH3PJD76LKB+bbS+LvP2dO4GuQnPh6ZjusQjrYLKlaYNuPgrR09wAsvhmM3YwUE4fopyJgpZBsoTebR6JABRNK7AqrkGl608DnRVnvDUiavdFvWJR0D1H3V5dGy7swptgLtEUYay3iQ11SYmXGiKHwqaXS2b1l4GQBQ5C5ajJziB5XDMUhSkVisQDjfJOnt+TwtkiucHIEcAsHnxmALLugbNH/LvBCU/HwSda3C3RQSylKAUotV/AeruvlaplM3DhcafIhm+laAUgsYT/MKUYRLAl7MhfwBw2dwdPcIJLIdjtjN/SYhm+9QKN/ccyfB8yGRvALZuGVsw5e4fXbb6nQSlF5GMpM416ADxSaopXvgKXXbWMkG0nYB387uyLxd/fBv4K0jibQT9YS7iE0wlgrT2t+f5hP1CkqySi9Z9t500Iw5HKziB5XDMdrY/KnmB5Cm2DWXjDoqKigxFiZbP2BPNziFLcEHtjl3xVhtLZ3sB76bAc9mXjeddSeCfRDrya/yST9gXEJR8gpJP2O8T9AWobiWuvkM2rV2nqMwwcTUT742Z2KbZgkDvBJZg4iyC/N0rvKSwjP3MLyw31QehuO3J2ufjLjrHTGPRMQnwuIlMmZItiimkK9sA2G/xrlsdPNeIrzg8g7D/ULLUZWtvFxEIPCj5EPrm/76AJ3kvJebvwDPfl/JlZnZP5ZPGKX54AstWloG2c2MZkbXelwvP2ywb1z2PJF1KMvIF0niItPpLkpGLSEfeT5gtkU1rvqhR5Aky09yCM6093WxT41gaMPf7ArU73i3sQQRjmu10PRm9uejs+hXanj1in9y7+QTUzQuu1f0SunstjLX9bu1fM/vWrW0VxbY2vGYEhQzu3ycovZKkmtLbIPJCoi15vmxae1ljJmz7ty478zDUvx5hAZp1t5BzMAX9czKNk8sECPLTOJLAAztgawzzfBjw6iKq5EOcQpxBNYMdCQxncGAf7D1gBFem07sv45Pihz5Z/GvZuO55na6sGZffDK49ONYFPZ19TbfGhIkuvKkY66fzMUO7kUXZWn1yfzcAfcDTgacARwBHAwcB84F5mAGgCjwG3AH8AbgWuB64pbAeO7B1A2utsr558jYdDxyXt/UwYA+glC+3HXgYuAnYAvwOuAIYKazToztCa7p6wKJ46CVTuX+93lbR0tmrzqE5BiOfoShB+B2e/8ret0VNGJXqg5TC3wN5kHJUX6QW9O79PWHfApOxXbqTsV2AVOGubb05ywKoGvGy/7yp754FI4riFG59BBKFp+wLy46Bow6GvfeC/RbBXguhLzCeYc2gmsDD2+D+h+CBh2HLnXD5rfD7B2G/PjhggRFa6YwSWj5pVfGCk3T56pfKhjU/6SQuqpYypFz22LpEGDonrcV3bd1i/q7ITBRX3wSejxlvig//ewFnAF/FWH16nYIF6uPBp4BlmDG6kwe2DDM+bgPuxozv1wJXATdQHzt9umewsOs6GfhPYJipFVsJsC/wsU46vaKwAiNMTsGclGcBh9OcJeEFhf8/BmwGNgIXAI/QHZFlD3iCEXmnAm8ETgL2aeL3ryr8/w/AT4EvA5fl67X72Y7lSIEnAf9E/eZqhwxYCHwf+GSTx80+PRwFrO1w+xYfM9peR/24zwc+CyygvZtIMaL3T8AHgHiS/VuDEfj2xmqVEWBn/vsHgDuB+4A/Ys7/zjH2uROLaPtY95x4QyTxh+i96T3DD3yS+DdSiR6ytQXtl8Z6tSLV01cfRZL9JcmIPT6d4wnsjOHw/SF6i7HwdDuwXzHuth0j8O8XwrZhI7amQkIHnhFANzwEh+4Bf/kiePZiOOJQWLjAtGsiDtwPFh9u/p+k8PBjsPkW+Pk18J3rYO8Q9p9vrF1TNiFiMiTFDwPikdcDP+l4baBUKilUgAgb32W+jaZ7ZxuaigL7Y8bM/nGWeyVGYE31CTsMODh/9YJhjMj6EvAVTJ/bTZEFRqAe1qP2N8OB7Qqsopo+CngvcBpwSMNydpliz1D8vxbeBSPSTspflwNDdGYhKlqYSsBfA+/HWNUsWf4quoMa22f/H+T7exTwbozQOh/433yZdi+QRzDidEGb+1nkAIzAssd0ohvTCqznAeUubNsez/c2HL8Q+As6f4K4H/gQRmA1UtzX12Cskt1mGLgHI7J+jLk+r2T0U9jUCq3KCrOtJPgJfvUOPP9JZGmTRW/bRUDkIsDEWg0Vnqyt9SrR9xL2D3S13qAIVFPYYx4cf0zvdg8gToyF6BGFUHovSEo+/HEbLOiDlX8Gg8+CA/cdvUzWRBi4bWbgG0vX4LPghcfD8lvgO0PwzWtgyV5GzMXZ9MdpSS1x7cla/uCAVP51Z6eFoEevfua48xuw49KzMOKq6LUB04cE+fchkz9UdhvrpYnpzgNS41jajxl3ngf8PfBBjHHAPuR3Yz+TwvtUWrBijBev2monbAVLAhwI/DtwDUa0HELdTWjdJgH1QPfGYPJi8Lhdxooda22igwNtT1QKvAzj2vt3jLiy7dR8uWIbx2qfbaMdPJP8/y8Bfgh8DSNsWi2ya0XQo8CP8s+qhfa18rLH6xDIa2w1z+L8faTNbad5u8HcJHczujPQfB9h1PTppl9WUD3W5P5sy9/jDvaneFxtm/uBJ2NMzx8DfoO5/ldiLLb22g+Yopu5lnDxkmgH8EX8EHon8DK8wCcZuYv5QQWAoaj2QGFmZq1I9bSVByL8BUmX6w1qPvRmagQQmP9rF19ZfuhGqvn26O2QZgPUf/cQnPoM+PwH4A2vMuJKtb5/dlmZ5OXlL3u8MgXfg6cdBWe/Ez7zFtiZwaPDRtRNt/xQhCwF5UnE854GTJi4dg5h9/HZtSMxevyx980RmAf64m+msn3eGC9p8TXeWGr712OASzEPz0VjRzf3pdl2exO8WtlnqE3tbo7i0/kbMX7U92NiqpL886JIaecgFU/GWBalVtpqB5nzMeLlaWO0s9V12/bZAdQOqG8CrgYG8220MqjYZa/J3xsvxlZeYFyeT27y2NnB8dj8Pehg2/Za+lXDftl2+IXP2923Zq9Xr8NtNXYG9rjY678oaI/FuFevx/j7n0xdgE9NziebcFH0P4iH7zFJQHsiskwdQuGf5OvRY1pePzpJo505mPE2gr690SzpamB7sUewq21GdLT0yi8du/5eChDfM4Luru3w8RXw4bfCE59QF3tWMLV7CO3vwQitwIOXPwc++z44Yn+493Hom3aRZfrRoAQizwDq5Z/mNrbvfU7hOOx6XEzfY5eZKcelVYFV7Dezwjps/2qPxSeAv6E+RndKcRxoRRh1ut+h3X6zJ8wehH6MtebrwH4YC4G1VM2Uk2/ddAsw1pQzqavlbrfTCosYY9H7KfCufFvNXiC2e/ttYZ3tINQvzGMKn020vAID1AVWu8fGXgNg3GYwfUH7vaT4ANBo0ZwH/BVmIsQ/MrqD7HGjTCCvbDj/QTz/7/O6bNDNoVOICfoCkp0/kY3rPgXU3ZPksxmHokTLHxxAeUdedHqm9AkzD98zgemPJPC5v4I/e5ERQ3ayZbdThnm5FM4yePJB8NG/hucdAXc9NhNElprEtXr0tLZi6rB9717ACfln480ihNFWrukmwYS0NPuqMrrftK7R4r4UDSL/gZl41o3Z0DaW9qEm2/owdU9MI2kL+/xg/psdzXT+Nt7qQGATcGK+saJSmylYcbUv8APMiYqpWyB6RUj9grgg395nC+2ZCHthXYVxbS1k1FT4lrCxN0/J/25GYB2GObedYNt7J3VL3EzoDHpN0axsRfw84Fzg1cDbMTNlej4DSCorTMLFynnf0uWrnkZpYCXVndaa2tloLcR4YUg68kek7w1QT8VQW6a83qOyIiWd9yr84EjSuMdxYLMYT0wQ+rDCp/8Klhwx2g3YKwRjocsyMwtx1dsg/QJccTvsN9/MXJwuNAPJA6oHyWqPaXMTKzKegTFUTLQcwHMLv5nKOKwi9n6+Gjg9/6yZi7UP8xB/OMbD82rqLs9iH2FDjwJM+MUraP8h3V7IP8IYG+zxmqi9HvA48BlMPLIdz20b/5C3PWbyfs16Lx6ZTGDZgeEIjGXikHwDM01Y2QNkLVf/iwlynsq2Fk/GZzAnq5XptfdiZlA+l/YFlsU+CU6WgwSM6zRk9MXeKva3vwB2UA+e3x1iKSxC3aqVYMz6v8XcrJfS/Rkyu1KpZACyYe0qXbr6EEoDb6G608Y1tvuAEeOXQtL4ITyWykXR/ToYBRJFo6/pJVuUCpDpW/A96gFMjlFYOX7XDrjgr424yrIWnAldwMtF1h7z4R/eBO//FGzfCaXAWNCm46hoBqr7A4wS7nMTe2M8N38fbyKIXe4YzEzz25g+gWW3uRO4q43fX4fJDnAm8B7go5iJZ8Vxx4Y2vBwT3/xTOus3d2Ae+lvBxvk2HuMq5vi3xER3tc0ZdRBGCc5kcWXdYwDfYerFlcUKC4AvYky7k8VkFWN1Ls/f2+1g7Pk8hslFjv18SYfbLK7r5w3t2B2xll2bEuR7wJuZAnehmesWeQCyac1biYfX4Icenm/v5WbPsRWJSmkgJImvB3m2XLTuKh2MAhkaLa5qiUVPjY5EeSVplRbjO3cfQh82PwJrXgfPPMYImqkUVxYrsg7YG85+E9w33Fvr2cRIPpzNs6p8jqtzKxis608avitaXDJMaM5MicMqBnx7LbxsWMUw8K/An+X/b0wNZPuoN3ehra200fbNwQTrKjUcg8le43aC1hq0EDNL7jBmrriy7QUTZPzKaW6rPXY+8G1gEaNzZY2FvcGubNifVrHrOQLj35+IxgD3djs0KxBj4Gf5Z3P9CbQZisGbX8GY1buXsmAchCiriayNa88mTcto+kfC/gAvsKLbFsC1QaeZ+Tv/TEQI+wLEE+KdX6AUPk82rrllLHEFFIKS41MJ+wZQtdOiHUVC38Q8/eVz4eSTzGfTWZ7R84yh8dgj4YOvhD88YmYWTmOLZk5+rp5hLVDzqQusYiqiH2By7sHolC8nTnfDC9gsAbZ9zbzsxCArVP4XY82y67PYC/AVGP1h3aLt0Er7ssJvJtrvVtarYw3kRRPkFzEWjpksruxAVsYEGU9JYPEkWMFxGGZmBEx8kdgT91vMRdhpws89mXhqrz3HJYyLcLL2TYRt5+8wfuriZ7s7RfN2BZMuZIpEFqLlsi+b1nyHMD2WZHglWXojfuAR9OUFcEs+fujhhx5Bf/0z1cdJRtYj6fNk47p3SiV6XMtlf0xxBdQ+9/TUfIB04qoRERPU/oQ94M2vrmeMnylH6rUvhhMOgser02TJUhAJWLFiui00vcYe3MWMzhtpP9+EqRqSH5RRcVhQFymzFaWedufTmNnXxSB3yyHUcxnO2mtirIbb6egfov7UPVPFVTEn13/kn01lQrGJsHFN78AEx000K8IKkluo+3nbESnWpCzUA93HE9FgsvQ+seGzVrE3xs+ox/o4gVXHiizBiKxDaT2VR8sIaK0IbuVjj8rGdeezKDyOJHkp8ch5xCMXk1T/jzS+hjS5krT6E+KRz5NU34ovx8rGda+TDef/Wstl3+S3Grt8iUbGWqbLVz8V5SQSN3twTEIPbnoU3vkK2H/v+mzB6UbEuAoXzoM3vQxu2zY1dR7HQjVk65IZcFB6SqNgShs+/ykmFhdGh3g8jc4nI80U7KzzBNMn2n0l31/7IHdC4bNZSeOTtI3VeDrw8cJnMxV74D+GKTnQc+tAi1ihsQ6TMmK8WSD2SaWKsWIdRftB540zCSc6bk/DzPLoJKjetvHnbf5+d8DeV4swJZZeyhTNCJLKilRRYfBcX74UDWM68J/a77UcldhKtktcVbnsm99X0gkvjaE81k/1lYR9JeLhFGQm9xlTjyewvQonHQIvzseMToYMrf1TpxOxZn/73KfB8w+Fux+B/ukIeJeY/TbP9YczKyTGSr1wH8YLYAWWFJZZiHETXkz36t/OhONwKWbWtZ0gVLyQrRdm1l4TjWLE7vQnGD1tciZiLQPPxgTETV1ix9bb+AzgrRiX63g3h42PuRKTyLVd7AVqZxKmEyxzbGGZds6zFYaPYuoygou/Gg/7xPYS4GzgPOrCq6cIogyRKCqUV5hCuPstVqmsSKUSVSG3RA3hsd9mZckSlShqrgMfOieFCFRfMnu7wR4TeLB5G7z7lcZSpB1Yr2q/7eJDvZjpEcwfgFefCCsvgqfvY8oSTQ02Zf5j7RZ6niVYD0OJugXL9vs+ptoImCTeUPcG2P752RiBNWstOgVsb3ETJm9UsS6U3b/D8vdZO6YUB1UrBv4CE2DWi1gmLbyg+Qyq460LYHX+3q3sr8X2dcNWbvftHzAJWm3itbGsWFCfSTiWom9le0+lPqg3bs9esEtaWO9Y2GN+Oebpa7qmEM8W7PW5CjMB4iZGzzztKYIoFVJrlS9GAOVT4007KpWm1mcLPevys/Yhk+dNWXJRpZ43aqyg6Jngequ1BSNUjtwTnn1sZ+uy4mokhs03w+33Qn8JnnoYPLlLNXmPfyocNB+SbArv5prg3Fb4ay72I/aIHk1dPBRnwNtJTjdi+tMDCstAfSZhzx/KppBtwM0YgWXHO7u/+zN6NvysuyZsZ1jMOn1m4bNuYWcsNdYlstM9iyn0m8EGxT0PeC3ds14V22hPbKeDn7VYPTVvq/2sEbud64GtHWzPnrcnYcrmjPW9FUY2wL2TDO5Qdw/ONAtip3Tj/Bex8QV9wEeme+cE1L7aWkG5Yq+bk/C8fdG094FFqsblFubPfmOVu5lJeB48vBOeeyQ8Yd96m9vZbxF4+DE49/Ow/JNw/kZY+S149Ufh4qHO2mnbdPD+cNwh8PjIFB5L0dwqZ2qIzt1ahMX4q+IsY9tvXpW/P4xJ6AmjQ0WOB/bO/z/bj5EVU4rJAWk/K7I39dQIsxKv4f11GKvGZGkFmsVO57SC6iHMRTSECYr+HfVq3e34ld+Sv3fDrGzbWcX4wG9ntNDqBm8vbGus7QvG3Va8udplAXU34Vjn8gBMdl1o34LYWB5n1j1hTII9/7BreYd2sZbJ12EyG3fL8jr1bN1irhv1nkNQAqS37h3FlJgZieG+h+Chx+CBR+HBwuuhx+oFm2cCgQd37ISTFtddce0gAmkGn70ILrwenv8EOGxPOHpvePoiWP51uCIP3Wl3G6pGuD73GPjTjikOdheQvCD85s2zXTyMx3ilbwSTFPOqwrJXNyyjGMFxfP73XJhIYs/zjjGOB5gM8LN6P+0AaTvGv+viuouz5r6PKSFjXUnWxDmAsbScisnuelj++WQZyFNMiYHT8s86HaCsuPkyJiD9T/mxeR5mduLhdFYbyV4kr8BYsm5gbOFmY3KuAE6m/ZmEtq3HYLKrFzssK2SPxeRi6VQ03EV3BOFMQzEi28fMtLTnvhslYKy1+G8x4nR2CtOhPE5LeRZZCr1+qs4U5oVw+1b40GdGfydiSr3sNQ/+6W86j3XqBgKkKRw0Dw55Avmxav0oZbnVbsst8NUr4Pj9YEehZFrgwUv3gsoQHHcMBG12U/Z4HXYgPD6FKSSE3IKlxnJ/66K2griVyKO8WGoT05YsMfdVTbCVYckWnaZM8cV+uZg01F4RN2HGHTsuXFVYBkYXfv4Rs9+CZY8JmKonYxEyBwSWjb16PmaWQjfcbfZCehBT/HhDw/f2oO0Efp+/Po2JpzqTia1GVoQsxYisTotC2t9/AhMnVeRS4IXA/2Gm17c7uFrXUAl4FeMLLDvQ2mDHdvfLrmesmYTdCnC3v/slsJ0pjCXqMbbDSzC51W7CWALfALyf0XUn28X+9lQmFtwzFhsno+Uz9iTmeNIEk1dvCvr9LINHt4/+zMY6+dq+BafrCOxM4KhFcNB+9Xa2iu1xrvw9DAgkDfuXZLBHH1xxB9x5Lxx+cHvi0i6/zyI4eiHEUxSHpeoZq6NnEmwuPKilLWoUeWzeLFKJUorhg7vEElagUlx+SgPqi7Vfi7VirbfoSsz9b8vFXInJdN7PaFlurV9zaTLAePvSeR3VaaY4sK4o7Gwnwe128LkTk1jxZuoDSjH7K4wulrsdOAvzRP8tTNHcsbC/Pbmwzk7b+kvq4qroGy8BdwPvxSSA6wR7obwKUypgrIvK7tsVGLPpPDoLdLc3cnFb9nh1GHE7ZnmcWSMQmkAxAZjbMJ3dlZjA9IswSfA6EVlFwf024AxmW0cSRUIUKdXSMZDu13n5zBYJGw695NFkgT9zjqQHDCdw8D5mhp5tZ8vkxaGvuxX2HTCuwkYCH27aBvdubV9gWfZfBAcugAd35Jndey5YPbIE0PsB2G9xUxu0s2LtjFd9dfQE+uLnkMmJSHY06D4oHsgjiNyK6pUEpf+TKLrV/B4himSKLFq2f3wOJgbTBm7bk2S9APbvuzB5EZcwOuHoiZiUDduYpYHfuxNWTMwHluWfdWKSs9av7cBrMOIqpJ65dazlreCS/Lc/wExltzbw4sVvA7T3xFiWoDNLgt3XswvHozhDYyRf5mKMCHsB7Q+sdlvPwwzQf2T8G+RPGKve8XQusErUZy5CPZDfCqx2zrc9zwlzuzxOsT6VYHKUnQz8GnMNduIutL87FWO5jZlNHabNf4UuJigJSbVTq15rNOZokvyzGWO9wgic4cQIlnbrDVqhtGMn3P+oETzj7WK/wNaH69tup70A/X2w13y4bxv0+b2+Is0OZil4YixYtnD4RD8ql32pSEqFVE87+0Sy7H1QfRVeaT/8sWLdJH+sqT6uS1f+DPQzsun87xFFOm4JqK7vJ1C3QNnYS3vPXFn43KZIuhIjsIpxmgdiJiddxmzqL3ZT7F3/bEycSaePoXaQ/RAmgH0icdWILTDrA9dgygU0XkD1WUvwhA7ba4XGzzBWs2IG2bGO0Tc6OC4U9mUB8KyGdRePgZ0h+duGY9rqtsBkah9rJuE+1APgO0mRsQXjQit+Npew+5RhruMSxp33N11Ytz3uxzD+9TDzUT0Gz4e5ef47wxN4LIEnLKqXxmmXh7bBgztNRvixDnWqsE8I93QgsGrt9mDRQhPTNhUxbGYbI6jc08ziOhgFpkrBGXvqslWfJ8suJyi9Gbz9SEZS4uGUpNrwGk6JRxJgAUHpNfil7+rSld/XU888UoaiRMvre/lwYF2BMDr/leU+6uVxig9tVzesw45PM6Xws2MS7Amy1qBOCivaJ9hrMQHt0F6+DuuTHkudN+YD6YYf+pv5+3g3mBU4P8D4xDuxmdv22gF1vDqBUI/D6qSHmwccmf+/OCNuMcYC0y72mAxRP++7wwBbxRzDb2ACTTvJqFzsMF9d+Gx2YAPcRY8xAe46e9o+VYjA9hQWDnS+rmps4rnGrROoJth9x0jnd6KIya+VTsUtnT8ji2xnfmCC3KNo3A1reb0vQ1Giy1c/ldi/nLD/nagq8UiSpwnx80oCDS/xgQDNlGQkJY1Twr5XIt4VuvSsV0tlRWqrF/SQg6l7Dor5r64FHqM+5tn9t1atgNFntWgFc8xg7ID7ovy9k07S/nYd9Sn87d6h2Ti/tRfU4g7321qKdmKEU3HdYy0LpkbgDQ2ftXuMbI2lieKwfkv74qX4xHRk4bOxAtw7Cbv9RcN+7Q7Yff90F/bd/tY+4MyKBIK1APfBKAA5DM2YeQmoZgACPJ7BQJ7KpxMLVpLWg87HwxOI487dpCLQHxqB1fOzKop4oHov8+/eOdGSxnK1ItXlZ72YLPstXng01Z3WQxI0dw2K1ARYMhLjeXviBd/V5avfJZVKaq7prlOMn7Izt4sGBDtjsDhTGYwX6MEx1vMcTPB7sVahYwbiYSwZxxX+bgdr1vwDsDH/rNuzHKziD+hegszrMVPxi5+NtawVOfZGaPfJoZhlvXF2SGPbbsIEOk7Utmb28YgxvntKwzKtrtfDPHH9Kv9sLs1omQy7r9/DdICdBPfb6/dYYK/8/1PSYWoUeVpe72u57NfeW932APNADzYzwJwFa0yGFfwuGEY8wcQWTbCM5tvqhtadulzqmsen3SMXXBCDSYC7y0LlsrFcnXrmkahswg/mk8YJJgylvR1WQrIszR8QLtBlK0+RoSjpgcgabwagvf/tuKIN7w8D1+X/L4qpJ2FCC4rrdsxAPMwAvKjD9RTdaFV66zI6kNFlBjppb/HJYaL22u3c2GHbiyUA9h9nGStgdlJ3E3YSh3VkYR32xu7k5ixa2GzMxO7gHrRY62yV+szSTk31+1C3yva0wzTCquxLFGWmFmElrb2DNhWLYjNth8mBwEJjMXH9/C4osECgag2THRyjIJg4wB2Mxak/7PxUqML2EQimRGSZHFhi+hKNIm/XBVSkUkn1bVE/4lXwwj1Jk27VyfVRTUFB5VtajkxM1hjt6AB7Adj4K2u98jATqawrsHi07b4VvyumdRgrlmu2Mt4+JMzysSXAzFKwT+HtnizbKX+vh221F+UTMQlKu8HvC+ueCHuSb8/fO72oBzDC507GjuOx5+MK4M87OF5gxGjRyjKAsaC1ux+N5XEaZ17uDthjYC14naRrsG7g4zAzg3qW7iIXVmZK+9JVh4I8DS97AplsJ+AWLgyvksqKVIk8iMYvoWMTN/ocjEppRs3cm0kosMCHHcPm706Ez57zYVEfjCQmm33jqfEEHothvzy0stOC0jtHpi6Tu3igeXmwoTGu/3LFo0LKQ/G59A0cl7sFwy62wEezmLBvD+LqJ4FXE52jEHVl7zAna19Ge4qsYLoFMw7A2Pfb1YXfFJc5EfhPZrcAsW2fP873MbM8zswDjsr/366bp1ji5Tf5Z704KLa3sAUw231sLiZSva3w2WS/AZM+wT55tJtl3R6bJzbs11jbsxasduLZiubk/sLnhxSOYTvHzj5Z/azw2e6GPYe/AR6gs+nSdl2H9bLBZlp7JdWlqw7VpSu/DHo9QfhdvL7/Juz7Fim/ZWl8hS5d9TohysxE9/HcfmXb8r1NOIuLBRkTVdgzgK2Pmb87SZ2w5wLYb6FJpjrWajyBB1I4cJ/6ttsly+Cx7UZgTZV4llxgbbt71N5pFHkmAH31kxF9L/EwoN2Pk1JC4pEMzz9Fl69+lSDapaD3Yh3BRdTHrWKB54Rdx5Ti93Hh+7HqGc7We8/ur815KQ2fb2eWh594mJkNxZ1rlWIQ+KM9bKtt34H5eycizloO/tSwD5NxH/X8XO1i271fE8tcg/HDd8IiRrsjj8GkG+ik5/wTo/O27K48RN1t3OnEh4Py964fTy2vz8XVWS8EvZaw/y2I7EkynE9fH05QVfzgmYSlb+myVZ8yDRMdMy6rVoOQRXn8zO4osicnU5gXwH0P75q3q1VKITz1SfDoyNgzCZMMjpgP+3dYUBpg23a4/7HJXZLdweTAshasxizuQ7mgiPUdhP3zUE16N6FCTcB9lr0HgMqSbuz9ZDPfGy1Utcbk77cxOk64GPrRSS3Z6ab4ULr3OMs8ROfj7bTiUe/YO41nupG6f7iXt+UTGrbbLlXIb+rmLVgP0/kJt+vap4llHsRM4e1kf/swVizLk/P3dp58bOfwS0z9qF6f65lK8Unyjvy904kPBxfW07UOs2YBOPXDT0Hke/jBIuLhKpoVp7SbRKppbHIIlQbeq0tXrQWgXN7VT2StDMLeLgfWBKjCQAh/2gpJB150K86esxjuqebZ1Qv4HmyvwjMPgsPy7rwTDbL1Ebhn+xRlcVcvTzJq+uJCFncFqQWdq55msr33MuZIPNIY4GV62qonCVGmnU/esH2mFVhWWIwVYzXqwOT7WmX0w6y1fpWYG3FY86h70RrdoPex64zLWYWHcRlB5xasWwrr7CULO2yvpUrrFrcRjNmyE2y780fNcS8cewNeMclyE23HDvpjCaxO2l4sj7O7Yvf99g7XU7TMlrreyugcc9144b8S9C0gjfOEqWOOwD7gMbJDEVbqaWefaBI6NrhKalaGbGGeIXtWdn49RxX6A7jzYbj/ofpnrWItVscdA298Gmx50BS9Dn0jgkIPvv8grBg0+avadevZ3z36GNxpXYS9PUIgks/i22Y+KqRwt5MpFqVLgGNMvcueWmsE1Qw/nE+mJnXK4LmduAmtMNiDsZMJP4iZyQ5jP6CNlXC0uKydlTgb7z97Hg9hV29O0XoHU1khost41GcQtnvh2t890uF6JsMe9L4urW8HzWeZt6T574rtaRV7fBY0uR4rsNoRM43xXlAXWK2ep92lPE6r3J2/d3r/zKc7s6JqaBR5gqieuupZqJ5CPKIgkwQHi3GfB32g2bsn2UTJzL6alS6K3qOYUjObH4E/3pd/1oH4KQXwdyvgJUfCb+6HWx+Bmx+BKx6Ar58OLzzeLNuu9cr+7ra7Yf6UpWkAVQUxObCWFNxy1j1Idhx+aIPfe32tZfgBqDyjC+uyffbTGR33avvN66mHgIx1tBvzZNlY3GIclg13mW33oN2HF2MeLIv7YN9vanWlM42A0QHQ7WAPRqfCYzK6JbCsyXEHrQuEFJPNvRtYa8V4x6uYDmEk3+92A/ut+6mP9v32dtu/pz77cjY+OXUba9HstIMboNsWQTsjS7JBwgGIh5st5G5cJaov1nJUkkpUtclFRy0lk4k1BxmwTwDX3wLPfXr7NQklr693wD5w/nvgjTfBHfea9A2LnwxH50bqTjJmiJhC0tfeCgeMU1S66wigKZrummTUuqJVn0gQQBanpnhzL1Ehy0DUPJQOdRzrC3VXnk0tMVam9rF8yMVM749Sr75RzKd4KPVZiLMJewyWj/G5tVh1kqZoRuBRF1idPoE/PkVt7laKhoTWT5ytl9gNJnMH2QvwTkwC1+JnzdIYQD2fiWcvToQ9Vj9j9yqPMx5233d2tJY6Jbo79byOyCEtWjUEVVCeQDKycPTuAvtt1vwjl6JhMpIMDpwPQ7+DR/Must1jZkVWfwlOPBb+/OWwbLA74sq26ZFtcOt9xgU5VfoKMjJv1/vIuqJV9sj3byoKI5JbZfc0f0WdHIVGV55lPNffeGzFJDU2R6Ee/jGvsO7ZFK5hLVYvBk5htFXO3hy3UnefztpOpiiwOsVadmbLwWjnxlG6N210MgtW0SXXbuHnRoF1AOPnHJkMewPY+KvZZpLuFdZy22kgpkf33N+j0XaHSlEG9hjjt2X7deoq5EyCDXS/8l64Pn9O6uQqsSKr8QWd3ZF2HbffDdc+aNo8deI5JVAzfkQTNG5KY/1EwQSJtbsCTH89wGgRZMVEzOQzsYvWnMZlG8XbTL8RJd+XEBP/PA/4ZGFfpPB/gO9jHl5n9YN8N5MadmoJa5aRLq2nnRIL9iLpBs0c904LPzfOUDuQuouolXXZTmEbZgYhzPL8JF2kaNHsaIijZwlb5XYTSNxCW8QDuIu7R7btsmv1NA078q9mbQc4JaQKBw/Ad39tagp6HXaRIru+OsWuY/MtUJry06kkcR4Pe05947WcWPJIvtRUiAibWd7ERtlA+9YpuvGKXgO7f3dgrDQwsYCw67m64e+x3I9TJbL8Nl7WOBHnx+MnmNg06w0prhvga1O0Lz3FlmSB9lWi/d2CNn/fLPbi6VRg2fWUaN2s2k0rg92PiW6KYhxWsSZiq+yNEcDtprgoJr2zQd1uUDUUY5o6OSYJ3Xt4MAza85b9iHikMf5jfIQUPwDRH8lQlGh5/egqePU0DTtn/oPzDCDNYJ95cMkNcHUevpjNsLASERgegV//Hg6ab1ybU7NhgIz583ZNf1Obraq35+kTpsYNJp7ZJhQC7VtmvED0Yl9aZfJUN8Xli6EZdv3PoP3E0e2Q5O1IG/4/2WsB8ExgDcb19xx2FVdWJF4C/Jqxq5zMKgKMa2+PDtYxXjbWXtGtQaiP9gRWt6bSFwXWRG5CgC2Yun8HTbbSCfZ1f+o3YqtlkWw77OzB3bE8znjYmMBip9cOVboc9SJRlGkUeRJFW3TZqgpB3xuIh/M0DeOSoRKSDMf4+p8ALNmixdnztYFP2AGZm0XYDGlmrFhf/gEceyQM9HVWzqabZGqsanfcC9fcDQdPpcAyLcCz+QULx2OQjCEg0KtIk9jMgO154UszwSMTYzEq5OVqeZ8M46VSKCYYnehg29/dDPwRk3KnWE1kD+AETJm6XgoS27ctBr6a/3+i82DP05756wDg6ML3jeIqw4wrMXBWj/ZhyrECqxMas7H2yrJhT2a3Yr36aN3d141JAbbdzRx3e5FuxzzBHIS5EFtpt13HobT3pOPK44yNPf/24aQTC7BgLMm9G9XC8O+Jh19IUDqEpFrFJhet7YcqiJllWOqHZPj/yYXrfl+sX7hry2WnGe9UnCVrElKFPfvh57fCxT+D15083S2qY0/dtTeaTPGH9toZYakJzMd4bIwHtihSALnw/N/r0lXX4QcnkMa9FFiKeB5p8gh9pV8AUCm3c09aS1VIPcGoFUS27766YfmJsJ6mq6kLLDAiJci38b0eHhfbRsU8qP9FB+uxycj9hs/s3+8BNjNHHuI9TLIzaH+AsMr2yPy91ya9B/L3Ti+mfuqisNl1zaN7rlB73CezetgLzwa6t3KeitaxQ6gnN23n2N3DHJg220WaTRjbLA/Sg7IQEkWZqUMY3UvovZwkvpHSQAnP96i7LjLEF4K+AM+HZORM2bD2k4qKVCrj389Zts24umaCGWYWUE3h6EXwie/BtTeZwzbdrkLFtGPHMPzkWnjSgql0D5p4J5WH2bbrtS+gOhgF+R/r86oBvWxcShCCyKVSie61eeTa2bH8/UjgiIbPbN1eG7SeYM7CRC9L4xgwWRmebmPHk2bdgsWXPW9+od1Zvv92jPsg8N+YMXHWiyvyHWm1Hl8j9mAdQz3Go5cd7n2FtndCidE1+prZxwPo3qxLW6ZnsmPVWPi5Vaub/f3B1JPKtkKxPM42dt/yOI3YDuPAjtZSP5b3Uo/T6OrxtdnYpbLmRkrhs4iH15CltwBK0OfjBR6aPUJS/S5kL5QNaz6meYr2MbFpGnz/rkL5EndNNEOm8IQB+Mevwh33mLxY0ymy7EzBm++EX98FC/o6r5vYwtbzy/1hGYrGHlCHzknz4/Zl4uEHES9AeiWy1CeJwfM+DcDmze2OY8X4q5Bd7+vfY0JEFmAqkyyY5GWrl9i6p37Ddk4A9qL3Yy/5+r0WXgUr+ajYLevmDDDB/q8B/o3uTrybdgI6D1q2B+9JmPp697W5nsmw7bu/YbvtrsujeYuO/X5/Os9VZNdlLXGTHXd7sV2FETgLae1GKgosKyhbOXZ22V/k73PqBugAewwan1BbpVh3y66n6yNcXWRFjwNn62uj8/HTp5KO7IVqFd+7Uy5aeweAWW4Cy9WSJUqlAmlyJ+KNINLn8mE1SabQF8C2ETj7C7DmnfDEJxRSLbRwGXUjhsv+/PLN01CQRPOAcmPNV1QaLUaCqClWvuI+XXbWxwn7Pka807qZuklMOBASD39DLlr3qzx2sV2LkN2HExv+Ls4svILW+gxl/GTT+wLHAUNMTWB4O+PHWFwHfBn4HCYMxp+Ctk8pAXULVicoZuB/NmYGQC9OcuOTvp1N0U7qAvv7JxU+m+w3UJ9u2xig1wq2Y/hjw35Nxn2YZHMntbjfxVQNBzd8Nhk2ZiDF3LzgxBXURVA/sKTwWSfYB52eCVipVFJFhXLFk8qKHdTdFIAprcPmzRO7BaEWG0Nf/71U40cR2T+vJ9eLZs894gz26Id7H4EPfRbO/gt4el7vNssmT73Qjhgbbz0i8MAjcOnVJvZqSoPbRfPM9qYvLFc8KmOMG5UVGYBsPP/jumzVK/H7XkoyEtO9xLwJfhCSDN9BST/Q6U5RjzNqLMZcrE3YycSy4rbs7ODnYProXt+EMa3V8LUWqx2Ycnq3YsTlrzAuT2u5nHPiCsyJuTn/f7tPBMWTfDJGYPUCK0RuBx6jPXdX47qe2vD3ZCxpcfmxtiuYWJubmlxXUeRcjhFYrcwCtDfcUbQec2bbeyNwQ4f7PpewHeVTaD8zvsWexxvb/H2LDRelQqoglMueSRpagSVLVKJWs1Zv3glH34V4++d+JaewmkEw8Vh79MOOEfjrz8IHT4FXPR8WzqsvlzWkuVTMbD8rrB7ZBgsGTLmcTrjqBrjuATh+XxiZ4jHORBndBdTzq+16uDS3KGXI/BUkj19BUDqMpNoNkZXg+QFpkuJnZal8dKuW1/sSrej0QDwREzaT70Jxd3aJrWqFxn5/quKw7JhzDXB6w76MhxWbMcZCtX2MZQLqrsM5R4CxinRiEYL6SV8KrMS4snri6sCo4D9grGXttrdoqoXJT679vlvWiq205pq127MWh1bEsF32GFrP4WVvqp9RD0ackzdCi1gr00uoB2S2M8ppYV1b8s+mxIQgoFQqKTb/QqXS0m9NALykumzlHYh/AsQdJL3eDRGMtagvgINCOHcTfP9K+PMXwjOfAvvuDYE39m+2PgRDV8DAACx7cQdtEBiJ4fu/hSfPN5a1qcUji8ETY8GaICWCRFGmg1EgG1Y+qMtXv5q0+sN8RmwMGrRhzjOJff0gJE1GUE6Xiz76Wx2MAqms6CTA2lbfeA4mhUvjw3An4oox1mf/fyKmSsd2ejP2FkuD3dXmOmz8VnFf5kQw+3gEwG2YeKBOkpVZl+ChwArMTAB7oXWyzuIdXxyMbsAIrFbzORXXDcZvvQ8mBmC8i9J+vhdwfMPvW8WmWLiB1opjFxOO2qe2VsXlvBaWbTxOrjzOaKzItIVKOz0uD1O3JM8OC+HguT5DJIhci+edRnuzrRyZmtfiveGeh+FD34CDF8KLjoLDnwB77mFyZsUJPPIY3Hw3bLoejlwEn/8Hs452YrFs7qsbb4Mf3wxH7wXxlD47mf48TRR8k9G8Md9aAzIUJUZkRTfo8ugE0vjblAYGiYdBNWHXoOox9xybc6nUH1IduQ3hNNm07po81qtbA77Nf9U4Rk3WvnY5BGMAuJzeGTegfoyhNU+Ifd+tHtADjLXpeozAajXHUhF7sM8Avo7J89TuiR7PUlIUWJ1g85TsC7wQ2Mj4cWP28xdhMqG3K+ooHAs7I7DZXB/FApi3YRK29dolYwXtdlx5nCL22nwB5poo5rZpFXu/XU09rmF2CBU7kzDVK43HW32nvzugmkJ/CMfuY6xUP9wMD10NfmEyZ6JwYL+5K8/+C5g/UBdKrWJ/8+MrYJ43lXUHcxTEB80epeSbIo3ROTpOMcIatcoClRX3q+pLWb5qNco/EPYvJEsgTQCSMXKzmf7M8z38wCMZyaiO/DfzF5wh3zjr4S5YrqAeLgN1l13jybkPc6+3W5VDMO7HsPC39UA9FyOwej0RScf5v6MB69b4OfByOi9Wm2BifdYA/4/6YNTseq1wSTEmzxuAxwvf2/X8qtD+doWGFUqnYATWZOv4s4bftXuMwNwExf2ZDCt2qhgr1tEdtqPZ4+Nj3JKtBuTPVYoPDOfk7508lMzeDPmV9RkIBFxFmj6OeAvQnmfZnttkaoSWAAfMhwMXjL7jSj7c+jC868Ww+HAjitoRV9bideuf4DtXGovZ1GZuJw9wF7LsD1R4JP+suV9WVqQaRZ6IZMB5+tozvkwy8i6U00GeStgX7CIYRTAZ2tM70PR7iP852XjetQBdtlyBeRB/ev5/m8LE7tybgJ9i0i+0c9AT4GLgFYwO7YHRVjPHDMAO0EP5e3O1ysbHnuwPAW/DXAyNWVvHa0dA3Xz7XuAbhbY0Vtq+mvb9wMW2ggnY27/Q1sZ2pRjr3ukNv2sVK5Iepy6wWrkRbNuubOE3nTDW4L87Y6/jDPh7zANJJ7NJYfQDDswqAZvfkhetuxfhhjwJ5Cxq/wxGMYKnmhq3XZyavx8fgYP3hGUv6c52fvpb2BlPV57YDC8A5QYhL+nUwvUjUZQpiJbX+3LJx+6UjWvPphQeh/Ac4uF3kVY/TjryBZLqF4mr/0Yy8j5IBllQerpsXPc3suG8a7Vc9k0sYccB7ZZiPJRNp1NkK6bvzzATtR5v8bUd4xlqfEC3230OJs7WTemdIdgO/krgTozpsZOn0OIT/hcxKv0/8r9t4jFtWD4rvA4CPoZJxb+FXcvJFN1WlwGvo14uoJ22ppgYrL8HzqReC6mYBK2KEYx709mAai0dv8SkxmjVfWrFmL25epnUtej22p3L49iOy14HGebB4Z8bvm8Ha4G8lXqG5lnz5Clg8xOlqlyOF5xImvTaqrr7UvLhmofh394I++7VvmvQWq/ueQC+czk8aSEk0+X5V5C85t9Q624tM1HDWLPYvFiksqKK6R8vn+h3Wl7vs2SLmjxXXe0+7cqsJcmOTXbcuJb6BLB2sHHN1+R/F9M/ADwZ40H6Hb2Nw3I0SYA5aTswZsf30rnrSQrr+BTwMozL8ErGv4EOA94C/B31VAKPjLO8vRF/iBFYndwhdj8/DPwkX2dxH6oYF+I/NCzfCd/N31udBGBvlusxyVabzULfLoLJObY7l8fZlr9XMWb/VZh7BDoXt/YeuRAzM2f2ztBU/SFZ8rc4cdUbPIFHd8LLD4cXn2A+61QX/PwquOsxE1xfnfLLztQ3jUcAMWLIFnZuA5teZJfUI6PIP6usz6QiKc1Pmm2F8eKvbN99Vf7e7gSwYtLpEUYnHi3GYf0OlxB6RlC0/HwDM3h0I5+vtVQpsCx//RJjdboJYx7tx2TBfg4mYNjW+KtiythsZ/TsA4vtDS7BmFz3o7N0DXaguwh4H+bOfByTCO71mPT90Hlwu48ZSC8trK/VdUh+7K4GXkln8T8TYZ+8LsMEZO6ON6tg8rqlGHfgqzDiv9Ft3Q7FAtrrC5/NLvIEkPRlP6Oa3I3nHUSWdiG9uGMUoQe374BzT4Z5/Z1br7Y+DN/6JRyxx3SkZqAe4J7eT7X0O6CevLYDdkk9MopKfaneYC1Ge7PrbHP7fnWrK931wAHG23QLsJj6uFCMw/o8s7E/mYNY8yXArzGm1WfTeWwJ1Kej2nW9IH+Nh82zZLf7eGE9jbMWfIy4+h/g7bTvJoS6eJgPfAE4G1PY+GDqmd47terZ9v0P5sZoV7DYJ5/fYgRWr24i2wvZ2KDdSWDZfQ+B/2r4rhv3BdSF8RD1khmz7vgaN2HZl8rHHtWlK3+EX3oL2XAn96KjkcCDex+HNx4Hz8rT8LUjror89Aq46SFYMi3WK4AMP/RJst/KpdFjueyb7YLAxus+ExN2YilOULLxs+3e63ZdSb6uxdTHpmL9Q2sNd27CacaeFDtofKoH27CB7xNV2rZP9MULoiiwxuNrDe3v5Dgo5mJ9MvA8jLiybevU9WF///km9mki7LGxN2ovrFdWwGbU469m3eDfJTJGX6PdOt72/H8if59y15qCKCpK5Jn3Nq/JrUvy38n3yNJp2Zc5jQA7MljxcvC99gsxF61X3/w5HDld1isAUXO1yRAAg9GUV0HsxU7l79Y9mDB6PLsduCP/f6ez9WFXa5jd/tGYkJviZ45pwp4se6d9AxNA1+14EKFunRrrNdaFsK3w20asOv8J8CPqlrJO22gtNSl1K0OnF6mtS3U59Rivdttqz9MV9D5j703A5obPdjfszMFuXAcWez38EhOP141rtyk0ijwtr/d1MAoEVBAVosy8G2uUDkaBRpHXtOAaygvizl/wQ7L4Hjx/OpIqzU1CH257FN7xAjjmMKBN12CRoSvgpodNBvnpOU15/NWw4utPABN/Nfux97ANcG+c+X4lxorVONGrVRofsouTnTJMXFZjDUTHNGFN+cV6dx8FvjWNbWrWgmVNsh/HxMh0awDs1UW5Ln/vhnj9E/B74AS6P5OwWB4n7lJ7HYaiNTTK33tRGH30Ru0sq4b6avqaMxfheyVizTigb5t8KRqGSi1pi50lONG6a7MJv7HiYV268lsE4QfJUucm7BTBzO7bdz4szcvhtHunF61X3/g5HDWd1isULxCy9Pfsu/V6oCvxV9OMfdBdgEnRALuOI1cXPu/k4Nvf/g54iPqkMPudhxF5X2f3fTCeMRQ7QWsV+jbwZuA1tF9jrRtMJrCsJeB/MYHjp0xze8dro49JLLeJzq0VjYWfT6D7CUddeZzekWBiuy4AfswUiFcdjAKJogRAT1t5ICmvAHk56FMQ9kXppyQpD1cf1aWr/ojq/+HJpbJx7eVSWWGKQkeRTFgIulbixP8i8fD76G0Kkd2D0IfND8K5y+Gg/dorh9PIj34DNz8MT5222CuADD/w0PRSueCCuBkRPwuwAutpmFRDluJklqsKn3WDhzAzyl9M3dtSzIcFLg5r2hmvMvf7MS4om/xzKrFtsAKrmYvj7zE5szpNlNpNijE7Z+bv3RBCjYWfuzmIWQvLDlx5nG6TYsTVXZhyUtDDe8vGVslQlOiy1Ufo0pWfJWUzQenLhKU3E5SejfiH4/kH4fmH4ofHEpReRakvAn6jS1f+SpevKguoLbQ73rYkyhNFbjrvekQuJSgBOhfcPtODJ7CjCiccBK94bmfrKua9+srP4Mg9p7rmYCM+SRUku9j82Zt8CVNMo7Cx8VeWRzE5sKDze34i0Wa3eSxmkpZjmmkc8E0RTJP88IP5Z51W/26VRoE1Eba9vwdW55/NFEFg85ysxVibijM2O6FY+LmxVEK31n0VZiowXVz37kwxncZfYHK8dfO8jcJkxTaxVbp81d+jeh1h/18j3iKSako8nJJUU7I0I0uULM1I44xk2Hynqvjh8/DC9brsrB9oedXBttDuuBvdvNjct8p/mdgel6qhbUIfbtwGbz8Z9lxgAts7PZzfvwzuedyse/ru6AwvEDT7PfsddhkAlcpcEOJ2H57d8Lk90r8DHujBdotuR6hbq+YX2uLisKaRsQ6+LRnzX8AnaT8pWru0asGyouWfMa5Cm419OrGuoCupx9p0S/gVg9C7LYJceZzuUzw3f4VxvXZLbO+6sSjyJIoyLZd9XbbqS/h9/4wwj3g4QdPcqio2cN/LR+58mrfY74Q0TklGUoL+k6lmV+jyVS+whXbH2q51J8qmtZeQJb8kKPU8tmxO4nvw4HZY9lR43nHms3bFlbVe3XkvfPWXcMSe0+kaBOMeBPE2yAV/FdvJFtPZoC5gg8v7qVuwGiePFWd9d2N/i+u147Vd73jB9rsjhb6tqZf9zXh4La5TxlO39mT9HfA9jFiYKtHSigXLttXux+sxBaKnsr2N2ADfRzCZ5m1+r26KIA/jEu12lnU7eM7C2ngzEntePIzQvoB6Hpuuo6jU3HnVo35A0PdW4uEkd9cFLY7URmwlIzFe+AQy/bkuX/kKqaxIx7Vkldeb+1B1TZ6yYXfu3NvDF7hvBN70CugLc+tVh+v83q/gsWHwptWYkc8e3Jmi8k2g6dmDXTgCvcS27Snsmh7Bvl/T8Hen2H75FnZ9yB4rXcTuik291MzLHqfxjpet7GJTTjWzTh3PQmEH8Qw4DZMg8+UY0WLzVfXqgNh1b2vhd9YF8xhwKvB/mGRvMUZsTRXFRJRvwNwAAd2/yO25uRJTA6Ib2GN/P+0Vo3aMpjjhYiVwPp1P0Z6Ec42LYK/q5wgHXkZ1p7n+O5sUHqJJgucHZOl39NTVz5aLoxtNgtHKKHOI5HXhJIp+oKeuvJSwdArJSJpbxRyTEXjwx23wlmfDcU8xn7WblsFar279I3z1MjhsumOvNCPo80njH8vG8643DwMybv+iUeQxhMcgmY3xK/49jTvSiO2Ln0t9RrB9oLaTWDpNMLrL4cm3NZKv+3B2TTj6TGBfjGtydw10X4CZdNBM8WsPY9RZlP/duHw/cAxGU0z2pGLP/QMTuYCsaBkBXg1swMwstDMTevk4lNFakDvULUc3Ay/C5Mc6kKkTWUVx9Xrg+/RGXBWPiS0S3I1ZW/Z8X4axvu2uN2WnZNQDUR8H3oVJe1IsH9V1aoWXl6/+W/zSO6jutG7qbhCQpQlBaQ+S6no95X3PlsqnRsbMwL15s7kGRdaQJqfkVnI3o7ApFHwf/vyl+Z8dxF7Z313yS0iSGRASJ3afvgzA4Lk+Q7v2jYoK0bl21mqtPmHxb40ij+gcFWQm9E+2DSc2/G2v+T8Bf2j4rhtYYXc1uz5kK7AXZpb5D5iCVDAzDCtsX4EpgbeT5vVKUFgHhd8dTd0SORkxRtytmSzGxoqGGPgz4F+BD+TfWddXL+7chOZdhI2/C4AtmLI8mzAzKnotCosi7vWYVBe9jF2zT0LXsGsulHaxN791D0517N1sxpqioX5j/gR4DyZWzmbG711Qe7Qi1XL0RKrxOrQK3b/WA9JqTNj/dJAzgI9QXu/RMMVeKpXUWLfWXqbLV32eoP8vjZvSxfNNSMk3CUA/cDI8+eDOxJX97Y23w9f+Dw7bY7pnDmZ4gU9SvYlFpYuAeoLaYrOjyJNIMiJUT1t5PJm8DuV4ROejsh3lKgL9tkTRVRDV4g2ncb9s2p2AXZN7Fgs876T7D6xjFZC2os7eb8/BCKzpVtfThe2LB7qwLsEkcW0G29cFzXTCNt8UmJmFb8YM6kHh+24PHFXqLsJW120vrlsxgX7fpJ4jJOlyW60vNgT+CDyfurjqZY9m9+EhujP911pcFFcepxmsoEqpT8m2geM3AG8CXoYRVzagvXdP29ZqVK1+gLBvDzSzga9d3msNSKqAvk+XR/ubwHbdtfOuLDH7GoRnEI/8Cc+fjnQvswcRGEng8EXwmhd0Z30KbPo5lGZEGHmG7wPyX/KlaHis4Pba5IxTPtmnp678HKlcSVD6MEHp5filkwhKL6dU+jApV+rSVRfoYNRfcx1OH/baPxw4quGzsQRQd4+p4VrMWFm8D+3/baD77mS9KmLPgX24beY12fqaedlzo81enNaH6WPq/z0NI1zsZ1Y1t/uUbhtlLSYDmFxM7WKtazuBN2JE4T3U48c6bWuxlI4HrMeYYy+jhzPEGrAC17oJ7T6187LtvQkzpdjuZzex22i3jdD8IF2cUdPu9op1CO0roS6obBmdAPNA8GPMpIbjMCWn7DI9tQIqiFQqqb7mzEXAG3MB1KOYJxE0Swj79yWLXw8YV0/jUphAe6lEDwEfyoOrp26YtyVgNP9/q69ia6fi2b/kwdUPwdtfDvstgiyr70errzT/7eab4etXwMELIZlObauKeAHJyFZKmXEPDp0zuqKAnZxxyvv66Lvv+/TNezcoxCMJSZ5SJBlOiUfMvVQaeBd7xj/Q932yT6IoG1PkTw12/DwRKGE8GcX+FOqpFHp1/d+H8djAruPa8cBC2nPRj9WHwux8UKoFnTfxmjBovYV1QAsCC+rCIgDuxgiX5wMXU89HZacxJtQHpYkGL7ucHYzC/O+LaS3IfSys5c3DiMKnYwKNH+xCW62wugITVP86THD4dLjV7BNSH61NSS2+rFj7FUYs9CJH08L83R67dtq3oMltzcvfww6OSbEOoX0F1OPq7sTE2b0XE1D6cozQLh6/3ndGtlBu6L0CPzwAzbIeB9wImoGwFBjT1QMgQ1Fiko+u/TZpfCFhv4/0emZvfsmGubfeE3MoWnnZoPIwqFuCenk0PYGHh+HPnwqvPCn/zGu93fble6bNFw7BXkH7xaG7hqQEJci8/5TK+VuN9aohdqq8woxDpYX/Ttg/SHWHna0V1FOKiL3/lOqOKqX+F3HnfZ8CIDp3ugSW3Y+X5O8ho/uKlLrA6nZfYAOpFbiusP1if3kg45fumQzrVitRH5uh3rfOBoLCezvjTrsv60rsaycuouh+uAxYihEvK4BlmGCwVoNrH8Oo8EswwfQ3FL7rpIewF3WAmU2xEvhU3tbXYwbGZv2qlgcwQuS/MMV6KRyPqTTF2m39H0Zk9dH+TZxhBNAlPWzrb4E92jxGmu/fbYx/PRQ/35xvazvtucqs8N6JSYfxGMYFfBdwO2YixY2MjhNsLBY+Ney32O73C/B9SONul05qxCNNQPVZeurKA+TidfcpKhMGHA/wt+wYPgnPPwhNi5NBuosIpAr3PWASdKZZe8/tvgeP78h/32MXm+/BAyMw+AwYqcKj29qfOZgp9Jfguj/A//wODls4nTUHMdYrPyAZuZ++zIihoXPSemrAmmsw1VPPfiak76a6E8z4Md5BECDMl3uXLjv7cxJFV05TPJZ94C5hAtltf6OYWWe/w3hOes2PMCEJjzF6LNqL0aV7WuFGTOoJu84Mk8B0c2GZ6Vbvk/FQvh/DTG0cWoqZwXlnpxttfFL3MO7DEzCukqOBQzEXm1XCI5iB6zZMLaVrMIPvrYX19mIGm7U8FS1MizEK/9l5Ww8ptFUxJ2Y4b9v1GCHzK+DehmMwl3zcbvZg81gr6NRYqyZAl638EX74MpK4dwIm3xQgxtrDi+WitT8fK2VDbeHBKJChKNHlq1+K6o+NC64bhfUmYFu1c8uNJ7CgNDXdsk1V+chw++Kqkb36ZsJdnBD2ByQjZ8vGtWvstVBcoH59rFqL37eyhQkRZt3x8Mdk07ozx1r3boLrr2cwnc7ssZ2qHWhSTNDdtQ3LDWCEi4+JrRorvspaAHo1WCl165vt0rbkry8XlluQtzXL2zk8xrqK+zvd4qrbQ0CvbtZuJ9mbim2NFThaFFTTK6py+4qWoxLV6sG5qOi1JDD3jud7pMkhAGxdIuPVlLMldmRD9BNduvJMwv6PEg/bUIPesGerRulxmCr3mt3MPt2Y7ETeM037mJvh+QHJ8B3ML30S2MV6ZT7LXczKcXn5ymavX+OqRp4xaj3Tw0Rt7vWJsE7s8YRWu9ufzn3qJtM6g7JbroSiW6QYu2LXvxN4GONe2zHOcsXg8V5i22qTtTW29fG8nQ9RF1fF5YSpdgNNTLOBd92YRTET2jmV2xor4N3G4s2gTuZRH5jP1OW81rwIRHPxGENRXkZn3cdIRi4k7O9tOatMu/OaSqSL7Z5+cQWo4vkAkXw9emys2KvaAwIIqnvlEwxaEFgK6CLjos7XM007y9T3p43bHy8Ie7buUzePzbS9ehGrURyMrFiShtd4y0017bR1tl1gjrnO/D21FkA+NVen5MNZUy4ZASWKzL2Uhm8hHr6CoBTi8qzNUTQl6PNJqr+Sjeu+BIxpYbKiSEARHs29xs0/RJnlHxGkvh6HYwYxVTlEZpMCnk1tdTjgMKrAA1OYrVvIUvDYCsB+mye9T2wBarkk2sE8/oykejt+2KtKB47pQ00Nyxg8/x8AtFz2xxU/dhascl1uFW1BYHkgcu2o9TgcM4hprf7pcDjaR0Brs6eUm/EC6L01WPN8WDFaMiVAlixpalCUSiXVwSiQb667j5L3KtL4kTwJqRNZc4eUsB+Ef5EN5/3a5EOrjB9OYQs+q3yHeBiaSxFjUhTEIwAXjlqPwzGDcALL4ZjNDOX3sMhvp8jgmsfWyM3cefdtAERR0xuuBb1X1tyI57+aLBt2ImvOkOIHAfHwzaTh2cAuSUUbsdnY5eK1V6Dy35QGBBOfN1E6ljhf7ouyce3lM6BkjsMxJk5gORyzmZoFIPshyUhMveRRr8jwA4D/lSsviLW83m819qU+s/C8XwMvI0u3O5E16zGThjQDj7+RS6Id5tpooiBzdI5ZRsP3U935K0oDNk1OY3UKU+qsNFAi3vlrdo68b9TvHY4ZhhNYDscsxpYKkU3nb0H5CUEJ8vnuPcC4ZpIRwPuG+ajS1opqImvT2svw/ZeQZY/hBU5kzV5Swn4h04/KhnX/a6yUK5qaaS2IcXVfEu0gK51MvPNLiOcR9gf4oVd7hf0BnudRHfkKO6qvkB9+YrtGkdeUiHM4poHdtcq2wzFn0PJ6XyorUj119asIvEtJk15lc08I+gLS6iWyce2p3XDN1BJNnnr2M5H0f/HDfcjiGG25GoRj+kgISgFJ9TdsWntSu7P6iteTnrbquWSUgWejLAJ9BLgcTyuy4fxfNy7vcMxEnMByOOYAdrDRZau+Q9B3OvFwTOslqyYiQ8RDNQX/mbLpvOu7NcDVRNbpq48iyS4m6DuGZKTZjN6O6SXD8zyy7DG0dIJcHN08UWb/yVBUiM6Via4rjSKP6Bx1livHTMe5CB2OuUSYvYd4+Hb8oJt5phRU8UMQ732y6bzrtbze75b1oOYuvHDNHyilzyWp/sgkI9WUPPukY0aioAIeePIWuTi6edJZg5MgiNqUHlou+4qKgigq9jOJosyJK8dswFmwHI45Qs1VuGzlcSi/wQtKZElnliAhQ1Upzfep7vi0bFr33l65Zor15HTZqs8TlN6ZT8XvdX1FR3vktQaHI9m47tzduB6gwzEmTmA5HHOIevHcs16Mehfhh3uTVmPAR1u2WCeIBPghpNVPycZ17wfjxumVBaHoXtJlqz6A6r/iB5B2KBQd3UWICfpDkuGvycZ1b7Zlalw2dYejjnMROhxziHoKhPN/Rn94Amn1t4QDIXgetTqKOl6VAlvTzEyHD/oCNFPS+H1TIa4gT0aKihJ5snHtv4E8nzS5jbDPzDAUl1By2hFigr6QeGSIjWvfAkAUuVI1DkcDTmA5HHOMmsj6VnQ7+z/wfKrDq8iyrfm0dx/xreU6yWsYmnxDIoIXmOnw4glJ9XuIHC8b1/6HRpHXa3FVaz+iQpTV0jhI6XiSkYuMyBIrFB3TQ4JfComrm1kULhdEbVzUdDfM4ZhpOBehwzFHGeVuK5+1H7H3OtA/B3kasDdBH7X6hWkCaTyMyF2o/hDP/3qeCLQW2zUt+1CMy1q66m9AP05Qmk8ykgIeU1iA0UGCHwZkyS14+kK5aN0903ltOBwzHdc5ORxzGAVhMPKLwcd6anQQVJ8CHIDPPDISkIfBu51H/RtqgobIIzLJTKd1HwrT8rV85pHE3mfw+15BGoNmLjZrasjFVfxH+ksvlG9Ft7ugdodjYpzAcjh2AxQVyhWPSnnSKe5aLvtg4qGmu92j2jV6luF7Uc4nLC0gHsmwWeYd3UeI8cOQJL6DoPRSuTC61Ykrh2NynMByOHYzjNha4bF1Sf3+32+xsmSLEkU6k4OVtVz2qVQyAdXXrn4yXno+Xvg6RCCNEwSvjdmSjvEQYvy+kKR6I378crno43904srhaA4nsBwOx6xjlDVr+epXkenHCUtPI7FuQ/VdfFZHKKa+YEAy/FtCfY1Uzt/qxJXD0TyuA3I4HLMSjSKPzZtFKpVUB6OARdUPkvFhwv59SUZANcG4DV0/1xrG5Rr2+yTDmxh5wuvk0vePOHHlcLSG63gcDsespjiTTZdH+6Pxh1D9W8L++cTDYNI6OKHVFJoinr9LctkO6gs6HLsrrsNxOByznsbZknr6mYeT+GeCvt24uaxFy7kOJyDBDwLSJAX+Wjat+zzUC4l3unKX7d2xu+E6GofD0TIzdbBUVBg8tyC0zl5Ckv0d6F8Q9g+QVF2M1q7UXYLx8G2gb5BN5//GTChY31FhZQWhXDYTKoaiVEC1XPbN3+ekrmizYy7jOhiHw9EUZrBc77F1izB0jnEXDZ7rs99ipbIim0liqxifBaDlM4+kKu8DeRth/x4uRqtGgniBqfcYf5MweY9UPvZoN+KtmrF8uUSljrnM7tyxOByOJmkmBmcmxukYobVYajFaS1cdivABVP+asH+eidHSFGR3y6FlrFZBn08ysg2PD8iGdV+A7oieUVUElq9aivJa4MkoAej9IL+glH1TKudv7ZYL0uGYaTiB5XA4JsQOllpe7xNfuwzllcChoILIH1H+lwO2XiQXXBDPRJEFudAawqu7DqPDSeJ/AH0XQck3pXdEmPv1WU36Bc8P8HxIqheTeR+QS9bcplHkQeeZ+2vXy+lnLyFJP48fPhfPB81Xaz2zychWRP5BNqz98lTVuXQ4phInsBwOx7jUBsvlZ52Eep/FC55hBst8LBQxBqAk3oKnfyMbzv/ZTBVZMIbQWrbyOJB/xi+9lCyGbE6X3jH7FvZDPHwPImfIxrVfhdF5xTqhdr2cuupZiP6EoG9hXjdSqY835uLxvAC/BPHIWbJp7Udn8nXjcLSDE1gOh2NMrKtIl608Bfgf/JKXW3oUNO878v/7JZ8sAeU02bR2w0yPrdlFaC1d+ZcI6wj69stL78CcsWZpCuIR9AnJSILIJwnDtVKJHupmvUlrhdJToj0oVa8hCJ9MUo1BwnF+Ygp2+6GQxa+WjesudSLLMZdwAsvhcOyCjYvR8uonU82uwfP3QNMYZbzBMsHzA7J0JyXvmVJZc+NsiK0ZVXqnHD2BavVf8cPXoxlk6Wy2ZhlXIOoT9AlpAmQXIZwjG9b9DrpntaofSyvIV60m7D+P6o6JxJXFFpG+SjauOyFvuMykCRMOR7vMkSc0h8PRVTZvNg9fsa4i7N+DbEJxBRCQpTFh/wCxnjPdzW8WqVRM6oDBKJBKdK9sWvcGsuSNZOl9hP0BJhh8RovE0ahiXIFC0BfgBUISfxdPXiAb150uG9b9TsvrfUWlq+IKRCorUi2XfZQVpDFNThwISGMFOV6Xn3USAFHkHvwdc4LZ+nTmcDh6hKIiFUl1+Vn7kOkykiqgQRMG7zyhJ6/R01YeKFF0z2wJXpahKCkEeX9TT135E+Lhf8EP31iwZs3UlA4KZEbm+D5BKSDemZJWNyLep2TT2p9B7hYFJOqF6zYPsao+4yDYcRRZSvPHSjP8Pp945wnArxnCY1aJWodjbJzAcjgcoymv8KiQIt4ShH3M7K+mxkpBVRFvD1J9OnBPbV2zAOvO1MEokIuj+4A36fLVF5Jl/0bYf+gMS+mg1IQVAX7oIx6kI1tJRioQ/KdsPO96KOQEi6LenYfoXCFC8Ub2RvFbcvCJZHiej+/tCcC2u2eiiHU4Wsa5CB0ORwNl85ayD+KRu52aHfQUzwORvUetaxZhrVlaLvuyYc1FzM+eQTz8aQCCPh8TnD0NolHzuKrcBegHnnFjqpLGvyKu/hWhLpGNa/9WNp13fW0foijreeB4dI6RVJI9gpK2ZOdT9cgyUB4DYOFBM97i6XA0g7NgORyOBirmzZNHc+uVMHqa/XiYZbIMJNs2al2zjFHWrG9EDwPv1WVnf5E0XocfngxAGqf5LntNHJtW0XzdJiEoeIjv4QfGUhXvVNL0GtJ4I778j1y07qraD8tlnyVLdGonGOS7/1D4J/as3or4i9GkSWEuHmkVRK4GYJCMoalrucPRK5wp1uFwjKI23d7MqrsRkT3QpqxYZgKY6E48eapctPYOJfKEmT2TsJnjQbni1bLBL1t1OqpnEoTPAoEkBtRYlVCvXqZxsmNVO2Rq/lI1aS8QEB/Pw7wCSGNIk4cRrkDlhyhDcvHaK4oHnsHIn876frVZhEtXnUvY94/EO5uYRagpfsknja9j09rjBFE3i9AxV3ACy+Fw7EItTcOyVesJSmWSkclmEQIkBH0Bych3ZdO6P5uOAHct9GndHqQbix/r8lVLSfWvEF5G2F8ywfAJZBnY2YdSaIMiJn9YnjFexLRSxBjBJBdUWUqeP+pBRK8H7zKy9Cr6+i6XSnTv6Dat91myZVJrlYIQRcLmxcLWLaP7/f02K0uWKFGknRyzgjDfm2r1OvzgYNIkhnGvG9PmoOSRJstl45qNMz1/msPRCk5gORyOXagJrOVnP4MsvRIRH80mCPDWFDwfATR7rmw6/zdTmTSyMXEo5OKDCt1uQ6MI0OWrn4ryatCTyfSZCHvjhz5+wOguVslnJGLyUlFF2InyGMIfUe5AvBvJst/jZX8gy26Siz++bdS2UWHwXJ9BsmZcgGMdl3GXrVnBorRdoVXP/L/qBWT6Y4JSiaRqt+3VNiVk4IUEJUiq58nGNf84G/KmORyt4ASWw+EYk7rL56y345e+kIuDGDNQFsueZHh+iOdDOvI3svH8z06VuFJUiM6V4sCsb4v6OYxqLY4qt950e/DW8nqfyhYtukD1NWcuIgiPRtInod4iyOYB4MsIKjFoFZVHgUfIkkcR/wEO2HqvXHBBPPb+IZTXG2FSKWfNWgR3cWuWyz7ZkUeReM8APQxhT5QMeBDkZkrhtVKJ7izuW7uWpJrIWnb2CWj6BYK+pyOQp26oW+vi4W3AWbJp3aftvjrXoGMu4QSWw+EYl4Kr8HRUP03Yf4ARWrmm8GqD5YPgv182nfeNqbJEFLejp515Ipn3JuA4VPZG9HGQG1C5UDat+R7UB/5etIMhvE7jn5TIo5y78AbJ2nXZFfdTl646FLK3gyxHeDpe4CF+veCyPZea7ET1N6j3bfrCr0klenws8dpqG3QwCtgzXQHpaxB5CpqVUPkjIj8Hvi6b1t6lxm3adZeuwzHdOIHlcDgmpO4uPGsfMv8tSPYKlMMx/cdtePwYSl+WDdH9Uy2udDAK2Kv6SZD3EPQZwWDzdnm+dcd9H1/fIRetu6fXlrVarNPQBClw9lusUMHEPZ2j3RQXtvyNlqMScXw2qn9H2L/QHIcYTNyTzaEFNjBfPMEPjfBKqncg+hHZsO4L0L4wbeZacDFXjrmME1gOh2NSGgdZzYs9Fy02U+cWNK4kjSKPq+PvUhp4FdUdNkdUHjkOGDEhhP0+8fBtaOkFcnF091yN9amJq9eufjKeXkip/5nEw6CaYNy6E+U9tElLFc8P8ENIRr5JGL5NKlG1bZFl47oKMWNjfeZwzEWcwHI4HE1RC7AuBEFPR3qAmvtp6cqPUpp3BtUdVcxMtfH6syphf4lk5H9l49qT52KsT01cnXbW80m9jQThvmYmogZ1f2DTmBmQYX9AMnIVYfgaqUT3TuWkBYdjLuAElsPhmDXUY8JWH4Fm1yEyD810chGhKUGfTzqyXDaeP6fSAdQE5+lnHUMiv8UPFpAmCR0nktaYcCAkHrmSUvg8qUTVuWr9czh6gSuV43A4Zg82tkk5lbB/nnF/NWOhEc0Trp8OwJItc8KCZQpzV1ItRwtI5EL8sEviCkBC4p0xYd8JVKtfBiCK5sRxczimAiewHA7H7GG/zXnNO31Gi7/0SBNQnq6DUSBRlOlcsOCXV5g+PI7/mdLAYtI4pqsl0CQkHk4I+1+vy1a/U0BNfjGHwzEZTmA5HI7ZQ2W9cU+p7mFmC2pzIkkgD7vag8PmRg3Wmmvw1FXPQnk31Z3Qm/qyHmkMmv2jnvrhhVJZkc4Jcepw9BgnsBwOx+zBWmxEHs5dfs25rBRbs/phti+Om/rNbMHjvYQlgLweYg+2kKUJYd8TIXwTAIORs2I5HJPgBJbD4Zg9bF1iBcTVLU4EzPACELlaKitSLZf92TyTsBZ7tTzaH9U/ywtO91L0SF6L+g0AzZTecTh2d5zAcjgcs4ehc8zMPy/cSDLyKCIBtmjwxAhZAnjfnu5d6ArlSh7sH78QP9gHzbI20jG0gpcnKj1RT1v1JMgzzzscjnFxN4jD4Zg1CKJaLvtyUfRHVD5O2A+QmuLBY6JAldKAT5ZcJBvX/FCJvKnM56TGj9ld8bN1S74+OQE/hOZEZicImimeP0CSnQBAebGLw3I4JsAJLIfDMbuoVDIA2bR2HfHINygNhKYgIgloihEbaf43lAZKVIevhtI7p6qJCqLl9b6W1/tiIvFVo8jTwSjQZgPzJ2IwF1SaHt5SsH9HSGrK6XiHAwWR53A4xsIJLIfDMasQ0Fqpno1r3kQ8ci7oTsL+gKDPxw89gpJP2B8gnhDv/BoLwkHZGD2iUeQJvU2UabaBSmVFapOZKohEUSZDUWKtcB0dA5vsU2RvVJmSSX2CySXmsaj3G3M4Zj9zYrqyw+HYvRBEFRVBVDauifTUM79GPPLniJ6Iyr6g20CuB2+jbDrvN9Bc8eFO0XLZlygyomrpqtci+mcoR6D0qcd9iFyG6Delsu4eIxJbL/Q8utRPTwPbx956NtXbdDhmJ05gORyOWYkRWQjlsieVj94MfHSs5TSKPKJzVCLpvbiqVFJdftbRZPJ5/OCFeD5oBqrg5Znk4+HVunT1WbJJPgeNgqmZ/Tbz+cxvZFu+dXpuxdLaBsw2t93tXIQOxwQ4F6HD4Zi1GFdcJW2Mb1IQHYyC3KKU9boQdT3p58qno96vCfteSBqnxMMJSTUljTPikYR4OEG8RYSl/9RTV34EgChqXaiU1+d9t9yF59N0PrDOMNnwPfkjAAsPmrVpLhyOqcAJLIfDMespxjdBLryGomQqZgsq5PUA/2UA4dv44d7EwzHgY7wEPqavDYAAzTLi4Yyw72xdtup0iaKs5fIz9QDz68nSfJd7vZt4ZHGGhtcC9UB7h8MxJk5gORwORyfYrObxA39D2H8MSTUGCSf4hQcomoLqR7S83m+5/IwVNyK/II2rID69TZyqeAGo/IH9794MuMLPDsckOIHlcDgcbaIg9azmsiK3JjXTr/qkseJ5i0muezEA5XLT/bEtVi0b1tyAZpcR9DwXVoYfgLJJLrggtuknerg9h2PW4wSWw+FwtI3RGPqGaF9UF5ts8c32q5LilyDNE3fWywA1h43DUhMs30O9o0BAPFwlzL4IwJItTlw5HJPgBJbD4XC0S3SuEUXbh/ei1VnZNq+UsGdb266sMAlXL173LZLqbwj6fEzB526TUBoAkQvkwvN/bycO9GA7Dsecwgksh8PhaJfoHGPJ8ZPHMNnjm0eRPIXDY+1sWqCesNT330dazVqozdgsCX4QUt15M+HC1QBU1jtx5XA0gRNYDofD0TbGgCUbPnE/Ir83KROaFjimgLIvVwOw3+aW3W5SqaQ6GAVy0Xm/ReQdpi6hSgttmIgEzw9IkypCWSpnPmpir6YkJYTDMetxAsvhcDjaREB1MDKuQdUKfgDNiZsUP/DI0pvY70lDQK3GYsttGIoSLZd92bD2y2TxOYT9Uq/N2PaOxXh+QJaCJytk47prdDAKbOkfh8MxOU5gORwORycMnWNER6n0aeKRW/DDEIgn+IURUp4PIpFc8Fedz8qrVDJFRTas/QjxyLtAFT8MMCKrWeGmebHslKA/JEvvA3m+bFi7SQejoD5b0uFwNIMTWA6Hw9EBtnizVKLHycLXk8bbCUohRtxYgZMBKUKMiEdpwCce/oRsXPtNjSKvU8tQXjbH1FvctO7zeP7zyZJrCfsC/ND2843tMW2CxAgrEVMsO/BJRi4BOVE2rb3MiSuHoz1cLSmHw+HoArVyOUvPfhpkXyAIn4UIZBlG/3jmFQ9vR+Uf5eK1/wKt1yKctB25INLyep/qNW9HeA/K8YT9Zmu2PQCIsaSpQjJSBX4K3idl05rvFdc13cfW4ZiNOIHlcDgcXaImslSFZatXAK8BPQqkD7gHzX6N1/c12RjdbjO39yJhp21H7e+lZz0Hzx8ky56O8ESUPTAWrIcRuRXlKlR+LBevuRFAiTwik9B0uo+pw+FwOBwOBxpFo0IvFKSWTsF+1vB3T9oBMl6NQ1sIe9ffqLRcF9HhcIyJs2A5HA5Hl1EQBiOfQTJrBRrrsylrSxQJQ3hjbVvLZZ+tS2Sq2+VwzHX+P8XdPqPPjWRSAAAARGVYSWZNTQAqAAAACAABh2kABAAAAAEAAAAaAAAAAAADoAEAAwAAAAEAAQAAoAIABAAAAAEAAAJYoAMABAAAAAEAAADQAAAAAGPC2MAAAAAldEVYdGRhdGU6Y3JlYXRlADIwMjAtMDYtMTFUMTY6MTA6MzUrMDA6MDCYXf4cAAAAJXRFWHRkYXRlOm1vZGlmeQAyMDIwLTA2LTExVDE2OjEwOjM1KzAwOjAw6QBGoAAAABF0RVh0ZXhpZjpDb2xvclNwYWNlADEPmwJJAAAAEnRFWHRleGlmOkV4aWZPZmZzZXQAMjZTG6JlAAAAGHRFWHRleGlmOlBpeGVsWERpbWVuc2lvbgA2MDBDfVboAAAAGHRFWHRleGlmOlBpeGVsWURpbWVuc2lvbgAyMDjXoJdwAAAAAElFTkSuQmCC;strokeWidth=1;sketch=1;" parent="1" vertex="1">
          <mxGeometry x="37" y="207" width="231.11" height="80" as="geometry" />
        </mxCell>
        <mxCell id="vA_zg9s_kciJOETXED91-66" value="Script Python&lt;br&gt;Consome API e&lt;br&gt;&amp;nbsp;gera arquivo JSON" style="text;html=1;strokeColor=none;fillColor=none;align=center;verticalAlign=middle;whiteSpace=wrap;rounded=0;" parent="1" vertex="1">
          <mxGeometry x="534" y="147" width="114" height="50" as="geometry" />
        </mxCell>
        <mxCell id="vA_zg9s_kciJOETXED91-68" value="" style="endArrow=classic;html=1;" parent="1" edge="1">
          <mxGeometry width="50" height="50" relative="1" as="geometry">
            <mxPoint x="557" y="247" as="sourcePoint" />
            <mxPoint x="277" y="247" as="targetPoint" />
          </mxGeometry>
        </mxCell>
        <mxCell id="vA_zg9s_kciJOETXED91-70" value="" style="shape=image;verticalLabelPosition=bottom;labelBackgroundColor=#ffffff;verticalAlign=top;aspect=fixed;imageAspect=0;image=data:image/png,iVBORw0KGgoAAAANSUhEUgAAAPAAAADwCAYAAAA+VemSAAAABmJLR0QA/wD/AP+gvaeTAAAgAElEQVR4nO29eZQkV3Un/HsRuWdl7dXVXV1VXd3Vi6RuNWpJMFIjsAWSQGDsYQY04+WYbY7hIFlgzWFmDPZMfx+2xx58kJDUzScLCzNmwIDNZwuQEBIWAoH2tVtSa+mu7tr3LSsrt4h480dWZEXGexEZa2ZkKX99oivzxdsiMn5x77vvvvuAJppoookmmmiiiSaaaKKJJppoookmmmiiiSaaaKKJJppoookmmmiiiSaaaKKJJppoookmmmiiiSaaaKKJJppoookmmmhii4PUuwN6HDt2TBgaGrpQEIRuWZa3qemiKNazWxWQZblZr816CSGEUjqsKMqcIAjnCCHTgiC8+slPfrLoS+feJAgMgb/+9a9vJ4T8MYDfBtCjP0+IeVernbcDSqnj80EsG8R6AUBRlAIh5DlCyIOKotx30003PWZaoAkGgSDw3/3d3/0ugK8CSBnlaRQCVzvfaETzk8Cc/K8AuDsWi33tE5/4RNpW4Tcp6k7ge+655z8RQu52Q1AvyauiKWX9bbMKFimltxcKha/80R/90bLTSt4MqCuBv/71r18M4GkAETcEdXK+KWVrV6/Z71Ol/gUAfyGK4h3NsTIf9SbwvQA+AFT+yKlUCvv27UNra6ulemotgau150LyOAavzXr0w6j95eVlPPfccygWzXlo0OfnJEn62M033/yCtz1sfNSNwHfffXdvKBSaBCAAm6QYGhrC0aNHEQqF6tU13xAUYterrddffx2PPPIIkx6Px5HNZqvVVaSU/mVPT8+f3XDDDQWXXd0yEOrVcCgUeqe+/VgstmXJC/ijKTQShoeHkUqlQAipOLq7u3HhhReiq6sLglB6JNRzGoQJIX86Pz//zB133HF5XS4ggKgbgQEM6BN27NixZcnbBCAIAvbs2cOkp9NpJBIJDAwM4MILL0RnZ2eZvBwiHxJF8dETJ058qja9DjbqRmBKaUKfFo1G69GVmuLNLoX37NnD3IN0Og1RFCGKIiKRCAYHB7F//37E4/FyHl2ZKICvHj9+/Bt33XUX8xy9mRB4cSfLMpaX3c8k1II4VtvgjRW3ArG112V0PaFQCJFIBIXC5jCWUop8Po9EIoF8Pg8ASCQSOHDgAKanpzEzMwNKKQgh+jZ+X5blt9x+++3//uabbz7j02UFGg1B4NXVVSbd6gNvlxhOiOSGfF4Rt9YvADftdXZ2Ynp6uiItm82ira0NiqJUWKp37NiBtrY2jI6OIpvNMiQG8BZRFJ8+fvz4B2688cZHHXeqQVHPMbAjcMZEpnnt1u1XX7wsq6/DT/LqDU5etNfe3s7Usba2hnA4jHA4jFAoVNGWKo17e3sr+qTpYzul9Kd33nnnf3TVsQZEQxHYzoNjN28tJLXTtnjl/SKtl0Q1QltbG9PW6upqmcDhcJjphyAI6Ovrw65duyos1SoEQYgQQv7++PHjn/Cl0wFFYAhcbQ7RT/LagdMH2yvieo1aEFYPnoNOPp+HIAiIRCLlQ2+JJoSgq6sL+/bt4xo8CSEhAHffeeedn/f7GoKCwBDYDEEir10Ejbj1IKwekUikLGVVKIoCRVEQCoUQCoUYSaz2HQCSyST279+PRCLBuwZCCPnz48eP30YpbXzLYBU0BIGtwO7YuBYqtls120sDVz0Jy0MsFgNQeZ+KxWKFGh0KhSCKIncMHg6HsX//fmY8rfn8mRMnTnzt2LFjW+YZ52FLXFwQpa4TbEXSGhnBtHO8ar58Pl8hffUGLTWf+lcQBOzevRtdXV1GJP54T0/PHVtZEgd+GqkagqJeOy3jppxf9dSivXg8DkIqp4Ty+TzC4TAopWWVWpIkFItF07Z27dqFcDiMqakp3ulPnzhxQqCUfpoQUt/VHT6goQkcFPLWk7i1Iq3X7agSWK2XUopsNotQKARKaflQyat15ND+VdHX1wdBEDAxMVGuV/Ny+NSJEyewFUncsAS2M971o16n+d2W86p8vepWwVOh19fXywRWFAWUUkQiEayvr3Pr0JN5+/btoJRicnKSl/dTx48fXwTwBT+up14I1BjYa1L6aajaStNJ9bBMR6NRpj1VAmuPSCRS7qP+r77PhBDs2LEDO3furMir+fz5O+644w9rcHk1Q6AIbAV+kdePPujLBNEqXS8jl3bVmdqHfD4PURQrCMxz6jAis/p5+/btZRLrQQi5bSt5bDUUgetN3npNJ3mBehNWD/2yUUIIZFkGpZQhsd7zyojMehL39vbyrlcA8I0777zzWj+vr1ZoGAL7oV4H2SrtlYErKKTVk06dHtJCkiQoilI+r0pgQRBMpbDR5/7+fnR1dVX0YQMRAP90xx13XOz3dfuNhiBwPcfGTvPXY3zsdT122zM7eGV4fVUtx4IglElsRW02+rxr166y77UOKQA/uO2223q9uAf1Ql0JbCVeUz3J60RK14u4tZC2VslptS6z7wDKi/ydSF/1syAI2Lt3r1GAxF2iKN73pS99KenoIgKAhpDAZrDzEPmpMtebuF7DK6JWq78azMbAdj7v2bPHyHf60lgs9jeN6q1VdwK7iZroFyFrJXWdwg9S+UlWHngxo41UbafSV/s9FApheHgY4XCY153fueOOOxpyfrjuBAackdgPQjpRme3CrdrpF2lrDUVRKvoBlNRdVdpqofW6skNi/fdoNIp9+/aVN8rTXff/e/vtt3/I04usAQLjiWWHxFYfOEopFhYWkM1mPV1v7ARuJW69IAgCkskks2DALWRZBiGkQhIbEVi1TAOVZDb7rNap/55IJLBr1y6cPXtW3wwB8De33377c40UXyswBLYKO9J0YmICKysrntXpFPUkoBftr66uQlEUbNu2rXpmi/3hvVB5i/RV8rolrvZ7Z2cncrkcz+WyA8D3v/SlLx393Oc+l3F1kTVCIFRoFV5JSTVfOl19g7taWG3rAa/VY15gQbM2zQ4A5eiT2v4lEmyEWFXVtjPerfadEFIOlsfB4XA4fHfViw0IAkVgM9glL7C5aNxtnU5Qb+J6Da10NCOmVfD2SEom2dkcVdW2Slxef3j9EwQBw8PDFYEFNPl/+/bbb7/Z1gXVCQ1BYCfkBUpLzGKxGJPup2Ssh9T10xhFCEFLSwv6+vo8bUMbF1qtM5Vit4eWJMmWoUpbZ7U0dacI3jVRSv/yK1/5yiG31+k3Gm4MbATejxCNRjE8PFw1n506vczvtIwXZWtZJw+qCq0Fj8DaxfxOxrtGaWp6MpnErl27cO7cOX3TcULIP3z5y19+6y233JLVnwwKGkICV4NTCe1lXidkd0oWLyWhGzXYDdbX15n2WlpamHySJAFwN97Vgpfe3d2N7u5upm1K6UFBEI7bvLSaom4E1s4DukEQyGsHQSBuPQirRybDGnl5RiytCg04G++aXa+aPjg4aGQz+ditt956vcXLqjkC7wttBq/Ja+ehdip1ncALsgWBtCrU8Dn6318fpQPYNHa5He9qwTunBsjjzUMTQv7m1ltvbbd5mTVB3VVopyT2g7xet63N73R87BVxawW9Ss471tbWGA2so6Oj7CGlglJqaMTifTdK0/fLqN8tLS1GgQD6Adxa/eprj0AYsfQByqrBal5KKebn5w1jKjlBraSuG3jZpvpgm4RutQ2ecw2POISUlgNqwZOQAMrRK9WjUCiU/+bzee60lfYaVEHS29uL1dVV3o6YH73tttv+6bOf/ewPq1xeTREIAgPWSWxHolr1xLIKv8kYBPWWh3Q6DUqpZ55Yy8vLFZoXpbS8cZkeRoTVQx/NUg2KpygKZFku/9XCSPsbGhrCyZMnefn/5sSJEwc//elPL1nqVA1QdxXaDuyqw1Y8sazW92YiL88y7dWLkFKKubk5Jr2jo8N13fqAeGpoHjVIvNHLQH+94XAYg4ODPILvyOVyf+G6ox6iYQjsZCxbzRPLy3bd1B8E8lYbI/L8lJ1geXmZ2dw7EolwvbDsghBSDgKgEldPam1es+vt6uoyeql88tZbb3276856hMCo0F5A/2P09fVhYmKi4oFxU5+XCApprSCRSKCvr8+TNmdnZ8ufVQm3a9cuz+6HKIpldVk/ZhcEAeFwGMVi0ZLf/a5du5BOp8tz0eopSunt3/3ud992ww03yEbla4WGILDTsXE0GsWePXts12Unn928TvK7Led1HU6hKArGx8cZ8iwvL+OJJ54oj1Wz2Wx5WxXtFiuyLCOXy5W/q+NdAMyYWv9Z75ml34MpHA4jGo0iGo2W56PD4TD6+vowOjqqv5RLJyYmPgbga97dHWdoCAJXQ72mlBqFuEGxhE9OTjLaEKUUs7OzZclcjYjaz9WkqNF5RVHK1mlenYQQxGIxJJNJpFIpRCIRxvWTUvo/jh079s1jx47lTDvhMxpmDGyErUxet+Njv8fXZnO9PGjVZ4AlmB3yGsHteTVPNpvF3Nwczp49y/XbppT2t7a23li1Mp/R0ARuBPI6IVFQiWuFpGbQSjkz8jqt18vzFon+3+666y7W/7OGqLsrZRA8sew8kH6OjZ2WUct5TVy3hNXDyFjlRhKrxinV+qwNRauG6OH138lzxynTnU6nf8d2RR4iEGNgvzyxCoUCxsfHkcvlDH8wv1TMWo07/W5HjYk1ODjIbIdiFz09PbjyyisxNzdXdpJQDVW85X+EsKF01LyEEMZJg1Ja/m6Uph76QHlqPvWvDXwWdTRmBYLAgDtpzIPqiZXNGi/l9EvNrAVq1Y6iKEin05icnMTg4KDr+trb29HevrkuIJPJIJfLMSTjkU5PVjdQJbRWgmuD6kmSBEmSkM1m9dNIehz88pe/fPCWW255yVWHHCIwBLYKO1NKPOODnXrsohakqtc0kNm9dAM7mpFeYurPqVJVm0/9qz20geJ5arYoiuWppZaWFqytrWF+fh5ra2vcPlNKbwHwCYe3wBUaisB254NTqRTPKb1JXgcw2JrEFHbsCoIgVBDQSppa1oioKqm1LpRa8mvr1EpjfR2tra1ob2/H/Pw8JiYmeC+duu102DAEtkteYDMmlpka7aY9J3mdwK1F2i1aWlrQ2dnpWxt6iWklTS9NgcoAeNp0RVHKhi0t+QRBQDQaRSwWKx+qM0coFEIsFkMqlSqP/SmlOHXqFJ555pny943+1G1vpYYgsBPyAqUfSBsqpZ7TSbXI71XZetarlZw8K7ievGrcaD1p1bRwOFwmZiwWQyKRQDweRyKRQDQaNb2eUCjEhPm59NJLywTW9LtuMbMagsDV4JTgtchnN6+bMm7K1ao+PXhENTpUdZinVguCgHg8XnEkEglDy7kXe3LVc0ijom4EVhTF8lpPM3h5E4NA3iAQt14PppG01Y971b2DVZImk0lu+OBqbWnh5QxILVFXCWx3/tcp6iGh7eZ1kt9pGT/rcdIuz2ClV48jkUhZDY7H44hEIp73Q4VdMteT/HVXofXxfO3AK2LWm7z1Im4QVEBg0zKsJ7HWqOQ1Yav1p1FQdwKrsPsWs0rMfD5vaXdCL9qzk89pfrew254oikgkEq4IZNQmpbQikJ2iKBXL+vRB7rTlaoFGIHJgCGwHVsm7sLCAqampmrQXhDr9ao8QgqGhIdO5YDdjd3VMG4lELLlrmrVVa3W23mPnwBG42rjYjkrMi71kF41OXi/aUtfsqgT2sv+iKFomrhXw+lZvkvmJQBFYvflujFtBt8bWirxet6N6KHkJQohnsbaqtaPFViJ0YNcD8xY32H2Atm/f7rh9Px7WWlncvW5HFEXDsK+NCP10lVME4UUQKAnMgx0rtT5Pe3s7kskkCoWCK2u31fbc5nOa32kZK3UQQhCPxw0NSo0ON9NHQUDgCQy4mwpSV5W4rcfvfHbzuinjRx1bAY1I5ro7cgDeOcPXIo8f+ezmdZLf6/L1aLOWpKqmYgeF4IGQwF74pdYijx/57OZ1kt+rsvWuv1rdQSFVLREIAqvw4wcIMnkbnbhBU723srXZCIEisF1YeSPPzc15sjuhly8Cv9r3G0Hogx2IooiOjg60tbUB8I7QQXoxNCyBrTxMExMT3Igcdurwsj9BqrdR2neL5eVl7N27Fy0tLVtSQgd2HtgMVqWhV7sTWmmrkeq10m6t5q1rAaOdFbfCNTYkgatB/VHMvHy8+uG2Cnm3Gmm1qObt1cjX3nAqdLWbrD3f39+P8fFxJqJikMnbSIscatWum+D/bW1t6OrqslWmkVDXiBx233p2b240GsXw8LDtOuphubab10l+t+WCUr8efo1lG4HMdZfAXro42pHOfuexk8/PvF6Uq3WdXvRhKxiorKDuBFZhZcNlN+etIMhzxk7zOy1Ti7r8hF8W56Bdf2AIbIZG8/ett4T2opzXddQbjejnbAUNQeBqCJLqHBTyNqKvdK2wlcjc8AQ2e9AURcHCwgLW19dNf6hae1kF2WNrKxFX74nFgxdkflNHpXSDag/bxMSE4SS+l+3Uq65a1u0n/PSQWlpawt69e5FKpSz3o5GkckMTuBq88MRqBPIGlbi1GLdbIdvq6qolAvvVvp9oWE8sK+PeWCzmaxv1qqsW9dqF1pupll5NVtqtRdytemFLLOg3Qn9/P8bGxlAoFByV32oeW/Ume74oYWJuFfOr61hZy2FpLYvVTA6KRogplCIWCSEeCSMSFtHeEkNPWxI97Ul0tMQQCVt/ZJ14YtlBvaUvEBAVWr0RVm+IVatzNBrF3r17bZevdR47+ezmdZLfi3py+SJOvjGGZ0+fxxtjMzg7MYep+WXXwRv6ezuxf7AX+3ftwJEDg7ho906IonVFMgik8xKBILAdNJJDR72dPpyWcVJeoRSvnJ3Ez589jedeHcUrI5OQZNlV23pQSjE2vYCx6QX89MmXAQDxaASH9w3gsguH8OuXXYCB7ebS1itDVVBeBA1HYLcI0pyxH/mc5nda9vnXRnH/oy/gF8+/hqXVjOM2nSKbL+CJU2fwxKkzOPG9n2LfYC+uedtB/NavX4q2loRhua0yFxwoArsll9/nvczjRz6n+e2WS6/ncN+jL+BffvYsRibd737hJV4fncHrozP42395BNdecTE+9O7LccFQn2kZu1I5SIQPFIHdoJFUaz/y2c3rpFw2X8B3fvIEvvXjx5HOONmUniAWTyDRkkQkqu48GGNiTsuKBFmSoMgyctk8stl1ZLMZ5LPW2ywUZfzoF8/jvkdfwHVXHMJN/+EadLebTyU154F9hJOHU1EUzM/PW4qJFUSf4VqQ1yoePTmCbz/0HFYzOctlovEE2ju6kWprRaKlBclEEoLW4GTIE6o7X/ogyRIya2tYS6eRWV3B8tIiisWiaR8opXjgsZP4xXOv4lP//l340DVvrcnLvlZoCAI7veHj4+OWPLGCRl6/HyA79a9kcvjWT1/EyZGZqnkFUUB7Zzc6e3rR2t6BeDwOMNJM893mZYZCIbS1t6OtvR2gA1AArGfWsLK4iPm5WaytrsLorbCeK+DL/+fHePbV8/jCJ34TLfHqc8ONQOSGWtBvF7WKieUlguRqOTK1hK/+4EmsZc3n0VvbO7G9vx9d3dsghvRbsJi0SZkP1ctoCosAUskWpJIt6B8YQC6fx+z0FKYnxg3n/n/29Ct4Y2wGt/3n38XObR0W2gk26i6BteMN7YZm6sPmRt2JxWJV1ecgSd8gkffkyAy+dt8zKEpGU0EEvf2D6B8YRDLZUk6lejISL8aT1voej8Wwa2g3BgeHMDszjXMjb6CQZ4k8PrOIz/z1N/HVP/4oejqsu1gGEXUnsBGsGBKqPZQDAwMYGxtjYmJZLW8F9SCv36rdybPTuOuHT0FR+L/Bth07MbR3H2LxBKMiEz3ZdFUolKIgyZBlCklWICsUiqJU5BEIAAKEiABRJAiLAsIh69ubEpFg+47t6OnpxvjoeYyOjoHSyjYmZpfwmS99E3f/6ceRtKBOBxWBJbAXMPLEUrFVp52c5geAkYk5/O3x+7jkjcZjOHDRxejs3mZYXi+BC5KMfLF0FCS50rnDphErHBIQCYmIhkOIhUWEqnhghcJhDA3vRUdXN14+dQqFQuWLfGRyDie+91N87vffZ1pPkNGwBK73nHCQyetUQiuU4s//9l5kOWpna3sHLj5yGSKRSmn1lt09uOpgPwa6UxAIwdTSGh59eQL3PzOC9bwEqpOujIQGYMhkXVZJViDJCtbzRYBShEQBiWgYiWgYkbAxmds72nHZ296K5555CrlsJYn/+eFn8N6jh3F430CpJw00hQQ08GokN9iqc8Z282rLEELwwGMn8dLZCeZ8R1cPjlx+BaLRKAhB6RCA37v6QnzqfZfg0K5utCWjSCUi2L+zEx+/9mJ84T9cgXhE3MxfPjQrh4QqB2elkfaQFYp0toCZ5QxmljLI5EpTSgRs3lgsikuOXIrQxlazKhRK8ZVvPeDq/tWT9A1J4HrP49VyesHvRQ5a54Wv3/sLJk8imcLhSy+HGBYrmPjuw4N4+4U7Deu+ZPc2/MF738IhnqYaeHcUJRlL6SymF9eQyRVKJNb9SySS2L9/H9PXl85O4NSZce59CToaksBm2Eqqsx0JbZfo+vwvnZnA2PQCk/fQJZcgHApBAIGA0gMTC4Vw/WV7qrZzzSW7MNjTCoGQmh2KQrG8lsP8agYUlNEAtvftQCsnxM6/biyO0N+naqi3yl339cB+Gma0nli13Ezcizr8kgBG9f7okReZtJ5t29DW1q4ZopbKDve1IRGt/ugIhOBt+3dgYsGP+Xjz+5MvyJhfXkdPewICIeX8BAT9/f14Wefg8/ipM7jZh176jbobsbx8g+kfzvHx8YrdCRuFvPWo67VR1tNqx87+UhvlZigUSiHaaLe7Ne7Ty6jac0NQlBUsZ/LoSsUr8nd3dzO5R6cWUJRkhBlHFJMeBMDgFSgV2m1wdz20nlhN8ppjMc0uFGhtay+p25p/q5kCljL8eXUeVtfzxmNXxsBldFQ3aBmNtXP5DcOWpr5oNAIxVGnMkmQZC8trlq8rCOQFAiCBvQLvgY7FYshkar9GlYcgkxfYfNC1CIfDjKaaK0o4PbaIoiwjLFaXVs+PzG6osG5ghSzGbVBKIQikImc0FsX6WuU1Z3LWX0xBQcMQ2MlD6zYmlpu27dbhNSnt1sdzuhJF1vuJgiCTL+KHT47gg1caO8kAwNOvT+PM1LIxtwx56eRe6F04dZ91VfKGAbKB5xnTUkCkL9BABDaD0cOqemK5IU+jWqXtgBCCcPghADld+sYYS1OdQEpU+d6jr2L39jZcsruHW+f4fBpfvf8Fh9LXAkGq1aupQiAEgvYiTIoSQgJF0GpoCAK7kU6NMGccVKePkkMEKqzQahmZUvyvf3oS7z48gHe/ZQhDva0AgJnldTxychQ/enoEuULRnfpsVpQhmXFmdYppsywMPMI2avL5mfASDUFgM9ST3EGSznby2aqz/J9abvOzQikefH4UDz4/irAoQBQIskVJl9mFNNNNX1nMXB2Nw8+qqOt6YEHw1wju55s0aPPBfpBXIHqHDwqBEB1VSt9kRYGswAODFQ88clZpR/vSEUiFEQu0evFGQd0dOdwgyKp1raSzH/k28+uFaGlpX8XPRvV0NonAof9uuKCfPU9p6SVhXK9xM1uEq1w0vAptBEJI2RPL7lRSLeaMvdIOvCKvJElMGutySdHbrgvVyhC4GqwQmF1OqFCKqUXtPK0NjQO669hCjN6yBAZYTyyrqLfTRz2mlLjakCqBtQnVazL9yodBvZXvDuZlYhWqM4iDopy6gsX+hiWwlamf1dVVT+utRXmv4W6YsWGtLVdhIUoKQ0Yr1uLqbpGUOB9fl6aRqnTBBZr7A/sEKzGxvESQ3C096Qv0zzqnTl0SOwa22hIH1cbIplXqTOear5JMubG+1CFDcx7YZ1h9OAcGBjA6OmrZEysIhiu3bWiRL0qQZcU0j1qfwnloC3kJhGpll5URrgdGLCIgolt4LxBaKYGr3QbN9WhVaFmhmF1a43qebea3TuJ6k70hCWwG7QMejUaxb98+7rlqZe2cq8V5szyUUjz/2ih+/sxpvDwyifNT81hOu9c8fvLAj13X4QSJZBLXv/fairSyRVwFwxuT327jKEgyJhfTkCX3AROB+pMXaEAC13qdbFDq5tWhUIp7H3kW37r/MYxyFuM3Ksoab/mSrWwabjzWJoQgmy9ienkNirlCoutHsOwZPARmHjhI40e79dZD9Z5fTuPzd34PL74+5qrtoIK5YtsW8c1nazWTx+LaOut96QJBkL5AgCSwNqi7H3CjHjut14vzPIxMzOGmv/rfWFixvn610SCoqyYAlEbWOn9mC9ZtWaGYXEyjJRZBSPTm5e73c2oXgSGwFfhFQqdt1gL69s9PzePGv/oGFlfMnVNKK4xCEEXrP7GsKEyQdbuQqmw25hSMRZz5XSpJtZYrYnxuFfmihJZYxJc+BQENRWC74MXE4sEpSWutWq9mcviTu+/HooGBqn+gH0NDu9HV1Yl4PAZCzHYCtOERZYoqnlhmm5tVC+yuAanqyFE6V5RkTC+tYWHFvhHvjZ9/FCt4rGq+I+y+4TsfvBMFAqxRIAuCM6B4hgIPLm/DAzfcAKP9aVxjSxPYiieWn+qz12Xv/tHTXPK2pFI4evRKdHexsZ42G3QxP+vVfKwhqjtyVPOmkmQZs8sZzK2uG24J4zPCFOgA0AGKPgDvIMBnO2Yw9eBx3F6Ucev7bobnIT8CFRNLnX/jjTOcqM9OPLGsotaq9TOvTeK5N6aY9FRrC6677jr0dHeXp1r4h/O4UqZ1MP9Q5dD8c9yPzb4UJBkTC2m8NDqHmeVMvchrDIIdoPifYQEvPnQc7/W6+kARWA+3BoNYLGZ6vl7jW7vtFiUF//jzl5j0aCyGa6+5BolErAp5q5GqCtlMieRHu9AFvSt9UPshKxSL6Sxen1jAS+fnMBtE4rLYTynu/8lx/BWl3jlzbun1wFbXfLYAACAASURBVH7tTujn2JdX9hcnz2Ilk2PSr7ziis2tPZliFIpCN4egrLPTplXXsLv6VUFOrstFQDqN6p4vFDGzlMHqeh7pbB40+ITlglD8l4dOoPXYMdx47BjcWQzRIPPATs/FYrEKTyyr5fzqj5PzhaKEL9zzEJNvaNcuDAz0M+myQpHJF5ErypVSyZIxqfq6XJOTBmWttUtR0jSKUmkXw4IkI5uXsJ4rYr1QqJuEverf/jViyd6q+agiQ1HykIsZpJfHMTf6NKZGHoMsc6zyFJ96exeWAfyx2/4FxogVpLm1IDmE3P+rFzG3VLmzAQHBkSOXMKtz8pKM5Ux+gzMUAqksZR/V51oVSiFJCgqSgqIsoygr5YUCskIBSiErFHRDI1A29uktnQMUhSJflFCUZQ3X2fXAQQcRRIhCAmIoga54D7p2HMHuwx/CG899C1Mjj3MK4L/+5E784rqbcJ+bdgND4EZBreei//nhZ5i0PcO70dbWWpFGKbCaLUK12LKwHgSOAQEkScFaroBMrohsQUKuICFXlCHpVvUwixncSP6gwOHvGk104uDbb0L7tgN45Ylv8Gr9xsN34cKrP4l5p11raAL7oeYGSfqePjeJV0YmmfRDhw4x+TO5IqhiYh2p4vigh6JQLGdyWMnksbyWR64oVy2zNaFu6eYcO/e9B6AKXnny7/WnuqUCPg/gFqd1B9oKHTTUmtw//PnzTNq23m3o6mzXWXopckW5ys590B38nf3mV7N4dWIJT70+g1cnljC9vL5B3ibcYOf+67Fz+B3sCYKbHjqB6ls9GqChJXA1KIqCubk5xhPLD+uz15ZnRaH4yeMnmfSLLriAyZ8ryhs7PZo0QvkSWKYUCytZzK5ksbKe89Thf2uAI4FzpwBF71BDACEGCO1AaBsgRJma9l32UcyMPQupUOEGG6Yy/jOAG530rmEJbIVMY2NjjCdWPTyvnJR76dwsVnVTR6FwGEO7Bhg1uSDJFtqoZGZRLgWJm1zKoFh0PZsRaPBuDc9oKhBqsM5YXwEvDYCSA5RpQJoBwv1AeEfF6VCkBfsu+TBeefLv9NX97g/uwuc+8EnY9v/c0iq0dndCt6iH55Ueu4cGEQ6FKpwdKAUKRcWCU0TJCSJflHF2egVPvj6N83NpFKWtT15eLC1JZqNwRgWev4AA5m4SUppINzwIIE0A8spGGaF8bB++BpFYSt9IW7yIDzu5vroS2Mht0itU88SqBZwQX6EUp86x+/UO79nDeESVpG9p+Z3ZUSjKeGV8EU+9MYOJxYbwXPIEkVCIkcCyLIPqVk0RQtAissZgMZwAQ2BKoSWl4VEchV6ki2IU/fvfw7RDgY84ub7AqNBeEVlLGDUmluqJFTTPK6NyZyYXsJatjOMVCoexs28HdKEqkJPkEpMN7p2sUIzOpTE+n7a8+95WQjIWZtIymTVmuqunvQWkOKlLJRBDKoE1oAqbxgOVAGmhNCbWYPvuX8PZF/9Rn/sdD9+K9qv/CLbiIAeGwHZglTB2YmLVY0rK6PyvXvtXJm2gf6dm9/gNA5RCIcvKhsMGW9f00jremF5BQZINCb6VIQgErQnWmJReXmTSDg21gdJKa3uytReCqF9LrE6n8ZRXzu8pLQCh7RVJidROpDqGkF46p00OSWFcB+C7nIoNsaXHwEGGGbmfOX2OSds9NMAsMihKimbBQaVafWp0AS+PL5bI+yZFZyrOqM+UKlheYuOHXdLPkrqtZx8Y9VnJw1ht5lgfaB6gGSa5d9eVTHsUeJ/da2wSGMFy+pBkGa+dY5cN9vf1MauCCpLCLK+bW83iiddmMLuS9bxvjYRUIopUnI3EsTA/j6JucYsoCtgTZiNwdvcdYQ1UNAcQ0d4hr0JP9q6+S5n2CMCZKDbHliJwPTysnLRndu7M+BzyxUoLaSIeR6olWbm8DgSSrJSJK8kKTp5fwIvnFlCsEgt6q6M9GUN3a5xJVxQFMxOjTPrRQ73A2rMVaYQIaO+9DKwEXoMlA5b2kNNMPcn23RAEZny+56HbUH3lhAYNNwaud4wqv/HqeVb67tjeW7puje+wpCjl9bbpbBEvnJtHJudPPCq7EIRN7y5nvtAWQvvo6hUIEA6JSMUjiIZF7ph/fHSEkb6EEFy/50lAF2Js28DliMQ72H7IGVgyYFUUK5QMWmSTsIIYQXvvhVicerEiqxLCUQD/v9WqG47AdqD1xHIKoxeGXw4hp06fYdK29WyEyikXI5AUChCCyYUMXhpbdB2MzilEgSAeCSEWCSESEhEOC5WPtxmBDWFhNZLNehfn57A4M82kHz3Yg9bMbUz6zgP/FgxRZdWvwIHiqqwDYntFnZ29FzMEJsCVaBQC+72EUOuJ5YRwtfS8UstNzrOzCK2tKSakqqwoODu9gtenVhy15QaCQNASCyMVjyAiVj7MzvZG8hdLCwsYPfM6kx6NhHH9zu8yL4O2ngvQ0XsxGKLKi6VxsBPQLIDOiqTWngt4Od9qp9otI4F5pFE9sRpJ7V5Ks8YndfyrckOmwPMj8zg3652nmRWIAkF7MoqWeGTzhRLg6SlKgdmZKUydP8s9/5GjC2in+gUjBHuPfByEiJXJtAAoGTg2GylZ6CV6sm2Il/OQnWq3lBFLjyB4YtnFSoZ150u1tpQNWDKlOHV+AWPztQvqLhCCjpYYBnpSaE1EHW/zWUtks1m8cfqUIXmvujCGw5F7mPQde69DR+8hMMYraRZcA5WhO6XOEk2L0LtgRuJdCIWT+i50//gu7NAnGqGhJLBdSWp3d0KrbfmpWust0ADKO/UVZQUvnl/EWrZQM6+qeCSE7lQcIVGA1fXAlFLIigy5KIFSk7G5m1A++qilAoFULCKbWcPSwhwyq8YOTYd3J/Hvdv41kx6JdWLvkY+BkWs0r5kKMuqjBSh5gGwKFQIBrd37sDhVqQWEijgEgLVmctBQBLYL1RPLiSGqXuck+UfMOVEMoSip5C3WZJxJSGk6pj0ZrfqQZnM5pJcXkF5awPraKqSC5+GPPcNb90bxO7u/hDCpfKkTIYRD7/wCovFOtlBxtiRF3YIWAaEyKnxrF0tgSnAAwINWqtzSBAYaa/wLlILY6UEIwYujJfIC/g87BUKwrS2OeNT48VCogsW5OcxPjSGbXkHQo3UQQnDdwQzet+MOiETvnUZw4G1/iM7th9mC8vLG2NfoObLxfNE8kz+R2snJh0GrVW55AtcSfnl0vTi6gLUsS2w/IAgE29sTpblUDigoFhcWMT36BgqZ2hrRnGKgJ47fvugBDEaf5Z7ffclHsXPf+8CQkUqasa8HoFKpDU0z0UQXJx/YcKMG2BIErqWU9butWDSMTLZSBV1dy0MQNwnlVxcEYk7ebC6HsTOnkVlyHIOtphjclsA7d53GZa33IizyXoAEuw9/BHsu/h0QQX/NFChurMn2Qn0GACiV01BURkTkGCMJBqzWWNfA7nawlUhqBh6BqSIDWgJvLF7wWpXe1hY3JO/i0hLGXzsJuWhtfJtKxNCWYncBcwSqWFDQKUKCgl3dAvpTM9gd/QW2R14GMShJhDD2v/Um9B/4Df7vXZwpRdgoi0sPngkqb9ZDFSB/FpEI935v4yXysCUksBGs7k6oRy0t0Pr0ECefLEsQw5WO+QIhkD1kcEdLzHDMOzU5gZmR06YW5f5tKVw5TLC/4w30xc9AVJahSCuAbO4FR2kRVK7twotoYhsOveNP0bH9Yn4GaR5Q0h5KXhUUACkZs/KvAco6zx8aFLD85gscgfVEc+OtNTY2hpUV+55K9fTaSsTYn6RYKCASq/xNQ6IAWfFmqWA8GkJ7MgK9IYpSirGRM1iYGDEsu6NdwAcveAIXtf6ylCABNA3UZsRuD4QI2LH3/dh76R8gEmvlZ5IXAXkJ3rpIaH5jZR3IvVYiMcAlsAAwk8NGCByBvYSXMbFqhY6WOEawVJFWzGcBtFekhQQBeQ+2nRUIQQ9n5Q4AjJ8bMSRvS4zgN/Y+haM7fgWBBH/1U2ff27Dnkk+gredCECN1WJrzgbwaFCdLC/w17QucDdhpk8AlxGIxVwsZ6oHOFEumYp7d2CwkejNO70zFIApsXbPTk5gfZxdWAMCBbRl87KJvoiUS7DXHQiiK7XuuQ//+30Kq6wCIoR+zUrI2+6I2ozTezT4PZE8CqWt1bbgbBjU8gc1U18HBQZw/f962J5bXK5DslOtsZYc/+RxLlHDIvZQIhwSk4mHmGcpkMpg88zK3zBUD5/EfD9yLkFC7SB9iKApBMH9UQ5EEQESkOobR1nMQrd2H0NpzCGKoijstLQLF6Y05Wh8kr7wErP1yYzoKzGIIhRMdE7AeXrbhCWyGaDSK/fv3c8/VyjvLbpkMEvjuzyoDuq9n2I3KoyH3kqIjyT7ciqLg/CsvcrfvfNfec/jg7n82nMZKtu3EtoGj6Nx5JSLxbQhFkgiFEqbzXoSIEER2HGgfxKb0JKWwr9IiAAWek5cWgfVngeypjfqBzbA7m1AUjnChsKzabGkCNyL2DrIBGfJplsDhkOBqKikkCkhyDGazk6PIZ9m5yav2zBqSt3vnEew5/Hto3XY5QNggct5tZ+0RlHxpLEpzG33zkLxUAXKvAOtPb6xA0kBgDYUKb1qO6MMLGKMh1gN7PS8b5Pp62lNoiUexppkLlqQiCrksItHN8TEBQVgUHQeta+GEW5UlCbOjrNFqoJPg3+35LkPeUDiBC9/2B+gdfj8gtAaPqHooxZJKq6j8cEpczoXSwgZxn9PUr4PA2jfyeXaWhABsVH8DBEoCB2mP4HqBEILhgV688Fpl7KZsZrWCwAAQizgnMC/g29zUOGTdmCwkCvjdC/4BEaEyPRxJ4vJrv4hk16WAaNloWntQWpq6UdIbjhkA4JWhigLFCSB7Gsi/Xp4aMgSJM/aG/Dpn1RQBG7jLAIEicBMlXLRnJ0PgzMoS2jor1etYWASrXFdHJCQyVmxKKeYm2efmmovW0d9SKRAEMYzDv/Zfkey+FBCYbULqCFryN6bSRhyq3AZpN1jjNJqGFtISUBwH8ueBwuiG8csiOPcqm2HD2YI2CQygtIWGXU+sWlmgzerraWF/lrUV9oc2cnushjjHfW89vcwsAwyJAt7Z9Q9M3t2HPoSO7VeU1GYeaKEUvVEpAB7MVVsCVbBpLNJCXZRvqzJAXitJbXm1ND8szZWWFRqpx1YQaodeBK8ujfNa58/f8ap03ptggxCC8fFxZndCK+WctOVlmb4Odqy0nl4BVRQQYVOKhAQBYVGwHUaWR/zlhTkm7S2DQGuk8v6FI0kMXvhhINQNdgxJS5Zd2Yle4BakRGIlXVKZ5XWA6mZjlAI2pfSGuqtKUFoo9VteLZFX/zJwPb4XALEVegIvzp1nr0TA01Zr3bIEBoDV1Xo8SO7RloyhqzWBhdXNB5AqCjLpJbS0VS4/S0RDWFm3N88d5kxB8SJYHNl+jknr2/MuiNFe/pSNtFySvF6oqmaQV4DCZGluVZovHfJq9TGoG9g2z+gtft0ArbwvhewSCnlmyjez2I2XrLaypQnciJ5YKvbu7KwgMACsLs67JjAhQJgJj0ORW2PdToeTzzFpPYO/BogtYB5QJbOx6bXX5KUloubPAYVzQGGMnZ5xBb9M5zrGh3uYHMsLnHhdBM/ecIP1cUddlxP6vWzPrieW16uQ3IybDw/34YlXKsdHqwsz6Nt9oCItFg6V1GiL1mh1axYt5KLELIxoiUfQKp5n5plT246AteIqpZjJXrkhUhnInwGyLwG5VzWEtXA/bd/yWsx8kI0dCivbmp96hc1J8bCdmhtiHtgpjDyxguqFpT03NLwP99z3NGTNuulsJo1cNo1YvKUif2sigoVVa1JJ5C1XlFh3vo7WOLN8MBpLQQxXBicHoAmZ6vKFLC2UvJfWnzcYR1t4Xmo6E2nxhRLqZOaAqSJhdpKNVS0D99npwZZWoRsRKrHbWhI4tLefmU5amJrAzj2VUjgVD2Mlk4dkwZjFe3HwgiuEQ2y+UDQFCDGwURsLzqUvVUruhmu/AgqsQcc7+KHtWXyhhHcyeVcW3oAkM2P22cfm8ZSdHmzpuNCNjve/4xImbXF6HIpSKTEJCLpSHsfA5mhHQqgFJfVZFzOZyrC94ReVgLVHgZkvAYvfKo1vQeGfCKV1OggQrtwfGACmxl5g0ghw37Fj3LkwQzQ0gRst4qRdXHfFxYhHKz2mpGIec5wd9hLREDpaor7FywIAQYiDJa+62bVV4ipA+hFg8s+BpR8CxSXOc09re1QloQuEe6Hd1AwA5GIO02McQ7OC/2O3+oYm8FZHIhbBe46yYV9mzr8BWWKnTNqTUezsbEFbIrJhafYYAoGlXQi4h1Aa207/L2D5hxsWaz8kngNUrdbFyyG8k0lbnH0ZsswYHWfFRfzMbte39BjYridWLa3QVut71+FB/OgXz1dYmWVZwsjLz2P48OVMdIlwSEBnKobOlG5VkGcGQ47zRjU5UBgFFv+hNAVUgTqNS2sFIVaSwDqMvfEEk0aA7119zH4koi1NYLueWLXcjdBqmTABjh4cxCMvjFSkp5fmMDM2gu0De2y37RwcS7MqgXmgRWD5fmD1wY1xMpPBXtO+w+NGosNMndn0JBYXJpisCsHXnDSxpQncqJ5Yerz/igN49rUJpLOV89lTZ0+DUmDHYC1JzJO2HAIXRoG5ezZjK7sFw/U6S+9qzQsxIDLI1Dl65le83E9cdyP02yRaQl3HwJRS5vASjbg7IQ+peAQfec+lXKk9PXIaIy89i3y+FvGpCMrbJKoHdONiUGDp+8DUn5eW2m05q/LGwYx3NachAvEjAKmUj7nMPMbPVW7ovXEpdzm9Cw0tgSmlnsbECoInllGZt+ztw3WX78MDT73GnFuen0Z6cQ6t3b1o7+lFPNmGcCRcsZuDdzCRwPIqMPdVIKv3MDIgMQmjPlEAnLYpAYaxsenmmDc6vOFuWnndZ175V56QmkwWwS75soiGJnA1NKInllmZiw8fRuyeH+BffvYMc05WZCzNTmJp1iOVld87MAQmKEne/Dlg+raNsKkW0Xr1hmNItTZdwMv3A5UNxvLY0EiMY3stzryKqbFTnHL4n0dvsR4DS48tTeBGhJlWIQoCvvCJ30QiFsG3f/xYjXumQt83UprXnfu68cPtCi5VcE81eBODnUlb+VwaLz17L+/UWFHG3S571EQjgRCCW37vevzZjR9Gb1dbrVtn54DXngBm70Zp570azdvWFfaur5hP47lffQP5HHcTs8++72a42ky5KYE1qDamDhLec+XF+LXLLsC3738M33nwcSwscx4QX6DeHwqs/BRYf8HdHDOlG1U2xn23g/TSCE4+9X2sr3N2CCH4zrU34vtu2wgcgbWD/EYhkxH8fiHEImF87Lfeid//javw+Mk38MSpM3hlZBLT88tYTq8jV/B4gTtBaaynSMDKT4D8SNUilkDL/0GW88DGfRM4O0bUBAQAQg4WaFAU8xmklycwNfo8piZOw0DLGA2FcJPbbgL1IzCRJEkQq1hJ/ZhaamQYvRBEUcBVRw7gqiMHOKWcGdMyC8/jhXv/H04nZGDlxyWjVSkBzlVhtuyTD/9/yGTshUHyA4SIIFV2g9CDKkXTHRw3MEuAa6/+JDzZZLkeBBYACLIsC4LQHIJ7hZqo/5SWFiAwLpF2CNwYWhWlMijrr+wW85TgPdfeCHYu0CFqzSABpUnDEKXU11/Sa8kd9PpqguIch7ywadfROUC8WUDxSEjBEaceV0aopQRWySsCEBVFaYrfGsFMOqvntMMVSilvtYxmBVFFDZw0W71zUbYhcBYUf3rNTfg2Id5fbK0IXEFeNAlsCr/VYS1RtZ+1aVwCc8lqRODGUJV9wCoFXqUUjwL44WML+NmxY1Dwh/40VgsCM+QFINpRob1+oINen9dt6Ylq5H+uTZM4cbJKmTjfuXJlI9G0q2zhK9/9SU+EsswJE2QGSSrgFw98pSItFNuGwx8suYWWggESSJKEu+++u5wGAJTSqc9//vOHAUgbh6z56+vu57UisHpoCdyUwB5DS24johqlaeuwb/03yWtWDZf8YU+Et+EEh0HdRvJEkqTyPSWEQJblckRV9R4pikIARLD5fBexufayCB/HCX4TWEQlcctk9tuI5RSNLp3NDm0efX71u/rXUAI3+pjVqPucF5Z2KKGVwGoQQDVt41nWrsxQncbV7zJ8cj/zk8DqReiPsgrtxcPdSN5Tenh1/dWkrJGENSvLHwNzewAv54Hdw9tnQZXA6qGXwIQQldARbJJWH/mAoKRKe+5L6ieB1YvhRjdTjVj6hyvICMpYV0s2RVFM1WJ9HjWtGsl5oWZLJ5nOuHSl5KS5usXePkOyLDME1t6vjTSCEpe0ElhPYL2zuJ7QjuAXgdULUAmrJ7ItI5ZTNLJ0NoJKRqCSiCrhjEhqVM6I/NYlsAss/wR1sVaTENB+vS6Rr0LrJbAkSRWk1ty3KAB14bnRRalbKNKNPDxC24KfBNaTtyItqGNgp6gmMb1QlfWS1CopjYjujMC8Z8yhAKH2NmWrhJv7ad0wbCaB1d90QwILKI2DedBKWS1xtVJYr2Zbgt8SWHvoCV1XBEU6O1WVteMwvZTVE5xHUqNz2vOcDsGZI0ct41cRIDYMJA4C2Ag0sP4iKtcqG10HCz2BFUVhxsAb94xHXp6abEZa3ljZFLUgsH5gTwAQu44cQRl/1hJaaWlGOLvn1TrNVGvDMTAPVR+zGtg2CIDoIDD4l0Dysspz+fPA2J8Aa0/aqlLVRHgSWIuNaSQRm6QTUSJiGJuSVk3jSVo9YfWqtSH8ILCRFU5PaM+w1chtRf3Vq8JagupJWU3aGtVhsbfwl6AW73VkENj3ndJGYnpEdwHDXwfOfhJYfRR2+qwlsCAIFfdINwbWElglnpa42jSAT1gFJX4YfWfghyqrJa9e8vLybBno38xOzmkJpD8AlD+r0oGXz6i8/pz6WZblirrU7wa91R2AvyTmzbxwjv7/zievChICBv8CECK2+sq7LwaWf62RVpXIev8HdWMpnnFX/5mnvTLwex5Y36hWha6ZNAuCOmwF1SQhT8oaqclmxiqthOaNrSml4G10SBWpyhDYAjH8+CmiA0DrO6rnC/cCbe8GVh5mTlGF88IiYvl+CIJQHgNrNRfNGFglqCp1KSqJq6rPqkRVbHzW/hoVN7kWrpTm3rAmkslvBIncZiozwCevERH1pFTrN1Kzuem6/WwBbMSeVm0tGxAipdhYVgPaGf7cLn6HOLt/lHHeQ8D66Q2D3GazUpETGFJIVmxEryewCo0KrSWpkSFX/VGNPus1Vf35isZrYQ32jKG1JLtTddgpzBwyqhmojKSwmXTmqdIVLwaxE/rHI18oQi7qY2+JQGSnB3fAoqrMPWw8xmIKSB5mml1bnWaykvB27v3h/D48F0ojQ64Rue0cZfhJYLM5h/qJXZ/hhPh6Y5JZmpEByqysGcH1D2b5M8Ig0X6mr8sLI2AIlDwChNrY9Fod+TOG95wBUYellZieeJnNGj9QdWiiza4vbpCmPVfNXqT/zNTrhwrNs27oSUsJIZZILAgC2tvbve2hB/B6wYNeLealmZ3jpWmtpmo7vHGc0UtBSL0Vcr5yL+LRcyfR2Xuoch9iEgJS7yyFmC2wkqwSDu5btSLrLwHrLwOJi8zzKTkg+zL08iOTnsLM1OtM9lDbUcOXon7Vl66nPDVY/5eapFELaQD8kcBcwmoOWy5jqvk+aId2btDtoV4nL81IauvLOU2r+OF0D2mo4xqm3YX5MczNvMp2SIiUDEktl3PHz5pW7B/UwjH6JwCtEoVz6UeAnKmoW5byOPXsD5isJDYEkriQqwmVr4T9bfSCS//q4ZG2olnOObP8vqnQPMJWHIqiMAGt02lO/Nw3EXhSUX/Obl3V0kzPxQ+CxNlIl6+e/Cly2RV+RbHdQMf1QMtlPqjVJsg8D7zxn4DiDOfiCsDivYwjhywX8dIz30c6vcQUEXt+b7O45t6oyyx19ytv0FGrrpF21RJfVWiAf/fVSWwBgJLP55lNfEZHR5HNZhGPm73Btx5441c9zKSx1fzVJDovv7jjRkhnPwPtM5jPr+G5x7+HS6/8bUSjiY3M2oICENtTOqRFID8KFCY2pJ8bmFw/CQO5M8C5zwFt15TahgBI00Dm5EY8r00Ui1mcfOr7WFxk9+oliUMgbe/e/K7RVMbHx5m0QqEwh0qy6tf/qs+/gwszz+/H9nUq9Fa3CktcIpFY2bdv38eh+ekLhQJWVlYwMDCAcNh4o6hGh5l05EldM0lsNb+TNAAgke2ghVnQXOUYsVjMYnbqVXR09CEaS/EvFCip0+HtQGwfEB0CxFaARACqAEoB9p/dDYjJjZ0AdwOJi4HkJSVXSrEFKM4C2VeB3GmgML6hWm8SbmXhDJ574ntIpzkbsQkJhIf+EkK4o2JIIwgC5ubm8Pjjj5fHwCqJFxYWHjh58uRz2Aylo2x81h4890noPls5V/HZz0lQ1dwX2ji030UAoS9+8Yt/H41GmRn4cDiM/v5+R/v7+jGv63edKmn0c7NO03iGKd4UiFmatm6BrmNP6DZEySxzHYIgYHj/UfQPXQ5RtKnQUam0Jam8VjqULAAFzJwyiZReBEICEONAqKOUZhP57CJGXv8lxsdO87sDAeeLn8AaLir/Pmrs8vn5eayurvJsCfL999//kZdffnkUJaIWsRkbq7hxqOn6IaXiIo0C/hKYQENWsAQWP/KRj1x68ODB78NfTaAhYDQ1ZPe72fSTnbz67/HQGq4a/CckInw7RTzeiv0XXoXu7QdAbG9J4i9ymRmMn38G58+9DKNRiKyE8NTkezGzNgSANfoZGR0XFxfvveeee76MTaKqxNX+VQPcOSUu7zwA/4ljNglNXnjhhZlLL700n0gkLPjBzzzRmQAABXhJREFUbX1opbLRZ7fn9XmtnpNoFNNrQ+hNnUdEZDfUk6Q8ZqZex9ToSQikiHi8FaJoQYPySYTIch5Ls6/h1VM/wauv/BLLy3OGefNSDI+N/ybm1/ttzRjkcrnT3/72t7+Yz+dz2CSvSlZZ95lHStfWPD8lsAqu9NUen/vc5z7S09PzJyhFNXjTwkvpaTR/6TSf+j0s5HHJjoewo+Vs1evp6tyO7X370N61C/FkD9hJD28fv0JuEatLY5idfgMzs6OWoopMre3Bi9O/jrycLPWII3W139XPmUzm8XvvvffPJiYmlrGpIuslsIxSlA4ziWpH6taFwNy40LpD+MAHPjB8+eWXfyYWi72XEPLmMkNr4AWJAXA9huyozGb5AYrd7S/ggu7HEBKs7YAYjUSxrXcX2jp2ItXai0RLD4hgfxyrQlEKyGYWkc3MYXlxAnOz55FZt77Fal6K49TsVZhIX1B1zlz7OZ/Pv3b+/Pnv3HfffQ9JpTklreRVv2tVZ20YHTckZsgL1IbAgDmJBe3foaGhxNVXX/2WaDTaKopinJaiVxIA0H4WBEGxGxSgUaBeoyzLFde+EbpF/117X9RVXuVyiqJU1AGgXE5b10Y59X6W69Hmk2VZ0NSDnra11HsvefWqnZ0rF9i18xECtLR0IJnsQCLZhliiA6IY3jgqR3ayXEQ+u4pcPo1sdg1rKwtYc7iDYVES8q+M9z798Knh59cLkQIACIIgU0oFURSVUt+I9i8VBEFOp9MLo6Ojo+fPn1/AJjH1BNZKYK3qrCehVbJWjc5RKwIDfBILnL/6dZVGayLVZVtbGdrgB9Wc4MvkQ+V9A4zvoz4dMK7f8NwH34Xh9x/F+we24e2CYBgXqq5Yy2LspTN48G//BT8bmYIqqlViyJrvwKbU1B/aKaEiKknMk8RGY147pDWNrFBLAgNskHcm4DtYAvMeTuDNQWDAnLB6Ylld6QKDvGbtmZ0HAHJwD1o//gFcv6cf72iJY5dnd8AhChKWp+bw1M+fx0//94+gdYKmus/awbJW5TUjsNZIxTNcWSGvI6mrRa0JDLDbrJiR1+ghA0oXtyVVaANYkapWpbVtKQv2/puVxfVXov/aK3BVfw8Ot6VwUCCwP6lvE5RCWs3gtZlFnHzqJTz+zQdwWpIYsuo/66Wc3nCkktUOiauR1gp5LaEeBFbbNSOv0fpJaP6+2QiswkjlNSItqpy3K3ltf25LIvzha3DBxcM43NOBva1J7I1G0KfJ6wQ0X8D0WhYji6s4+/IIXvjHh/HS9BzUOS4z0mo/a9P0qq1eEmuJq/ey0s/1Gh3VyGwL9SKwCisENpIA4Hx/M8HsBWekbltWh03OwSQvrP49OIzUvzmIgR3d6OlqQ29LHO3hEJJhEYlQqFJaywqKhSJWVjOYXc5gfmIWUz/+Jc6MziCHyoeeWvjL+6yPdqFXnbWSWCtljVwlrRy2VGUjBIUAVo1XPBK/2eFWJbarLht9h0ma9q/+M++7Fegfej1ZeWnVpDFgPA/LU6OtSNxqhysEjQxGxiutEQucz02UYIeYds7p08D5bJSm/6zvr5U0FbwH3ogEdqSxokvnjYP1xqy6kVaLoJLAikQAgtv/IMAtmfX1VPts5a/+M++7VRhJYKPP1QisTdOPg408oozG076SVotGIoARiZuoDi8kL++zWRpM0njfq6UD1aWt0WejNDMC8pb/WSWtWV89RZMEb064UZXdSl2vJDDgjRTW/61GcP33mhJWjyaBm1BhlbReENeJ9FXhVAprP1cjLi+N97nuaBK4iWpwYqyqhfQFqhu1nEph9W9giGqEJoGbcAOv1WavJLD+uxUiNySaBG6iVrA7ZWQV1aTwlsb/Bfm3rArubtb/AAAAAElFTkSuQmCC;" parent="1" vertex="1">
          <mxGeometry x="687" y="652" width="79.8" height="79.8" as="geometry" />
        </mxCell>
        <mxCell id="vA_zg9s_kciJOETXED91-65" value="" style="shape=image;verticalLabelPosition=bottom;labelBackgroundColor=#ffffff;verticalAlign=top;aspect=fixed;imageAspect=0;image=data:image/png,iVBORw0KGgoAAAANSUhEUgAAAPAAAADwCAYAAAA+VemSAAAABmJLR0QA/wD/AP+gvaeTAAAgAElEQVR4nO29eZQkV3Un/HsRuWdl7dXVXV1VXd3Vi6RuNWpJMFIjsAWSQGDsYQY04+WYbY7hIFlgzWFmDPZMfx+2xx58kJDUzScLCzNmwIDNZwuQEBIWAoH2tVtSa+mu7tr3LSsrt4h480dWZEXGexEZa2ZkKX99oivzxdsiMn5x77vvvvuAJppoookmmmiiiSaaaKKJJppoookmmmiiiSaaaKKJJppoookmmmiiiSaaaKKJJppoookmmmiiiSaaaKKJJppoookmmmhii4PUuwN6HDt2TBgaGrpQEIRuWZa3qemiKNazWxWQZblZr816CSGEUjqsKMqcIAjnCCHTgiC8+slPfrLoS+feJAgMgb/+9a9vJ4T8MYDfBtCjP0+IeVernbcDSqnj80EsG8R6AUBRlAIh5DlCyIOKotx30003PWZaoAkGgSDw3/3d3/0ugK8CSBnlaRQCVzvfaETzk8Cc/K8AuDsWi33tE5/4RNpW4Tcp6k7ge+655z8RQu52Q1AvyauiKWX9bbMKFimltxcKha/80R/90bLTSt4MqCuBv/71r18M4GkAETcEdXK+KWVrV6/Z71Ol/gUAfyGK4h3NsTIf9SbwvQA+AFT+yKlUCvv27UNra6ulemotgau150LyOAavzXr0w6j95eVlPPfccygWzXlo0OfnJEn62M033/yCtz1sfNSNwHfffXdvKBSaBCAAm6QYGhrC0aNHEQqF6tU13xAUYterrddffx2PPPIIkx6Px5HNZqvVVaSU/mVPT8+f3XDDDQWXXd0yEOrVcCgUeqe+/VgstmXJC/ijKTQShoeHkUqlQAipOLq7u3HhhReiq6sLglB6JNRzGoQJIX86Pz//zB133HF5XS4ggKgbgQEM6BN27NixZcnbBCAIAvbs2cOkp9NpJBIJDAwM4MILL0RnZ2eZvBwiHxJF8dETJ058qja9DjbqRmBKaUKfFo1G69GVmuLNLoX37NnD3IN0Og1RFCGKIiKRCAYHB7F//37E4/FyHl2ZKICvHj9+/Bt33XUX8xy9mRB4cSfLMpaX3c8k1II4VtvgjRW3ArG112V0PaFQCJFIBIXC5jCWUop8Po9EIoF8Pg8ASCQSOHDgAKanpzEzMwNKKQgh+jZ+X5blt9x+++3//uabbz7j02UFGg1B4NXVVSbd6gNvlxhOiOSGfF4Rt9YvADftdXZ2Ynp6uiItm82ira0NiqJUWKp37NiBtrY2jI6OIpvNMiQG8BZRFJ8+fvz4B2688cZHHXeqQVHPMbAjcMZEpnnt1u1XX7wsq6/DT/LqDU5etNfe3s7Usba2hnA4jHA4jFAoVNGWKo17e3sr+qTpYzul9Kd33nnnf3TVsQZEQxHYzoNjN28tJLXTtnjl/SKtl0Q1QltbG9PW6upqmcDhcJjphyAI6Ovrw65duyos1SoEQYgQQv7++PHjn/Cl0wFFYAhcbQ7RT/LagdMH2yvieo1aEFYPnoNOPp+HIAiIRCLlQ2+JJoSgq6sL+/bt4xo8CSEhAHffeeedn/f7GoKCwBDYDEEir10Ejbj1IKwekUikLGVVKIoCRVEQCoUQCoUYSaz2HQCSyST279+PRCLBuwZCCPnz48eP30YpbXzLYBU0BIGtwO7YuBYqtls120sDVz0Jy0MsFgNQeZ+KxWKFGh0KhSCKIncMHg6HsX//fmY8rfn8mRMnTnzt2LFjW+YZ52FLXFwQpa4TbEXSGhnBtHO8ar58Pl8hffUGLTWf+lcQBOzevRtdXV1GJP54T0/PHVtZEgd+GqkagqJeOy3jppxf9dSivXg8DkIqp4Ty+TzC4TAopWWVWpIkFItF07Z27dqFcDiMqakp3ulPnzhxQqCUfpoQUt/VHT6goQkcFPLWk7i1Iq3X7agSWK2XUopsNotQKARKaflQyat15ND+VdHX1wdBEDAxMVGuV/Ny+NSJEyewFUncsAS2M971o16n+d2W86p8vepWwVOh19fXywRWFAWUUkQiEayvr3Pr0JN5+/btoJRicnKSl/dTx48fXwTwBT+up14I1BjYa1L6aajaStNJ9bBMR6NRpj1VAmuPSCRS7qP+r77PhBDs2LEDO3furMir+fz5O+644w9rcHk1Q6AIbAV+kdePPujLBNEqXS8jl3bVmdqHfD4PURQrCMxz6jAis/p5+/btZRLrQQi5bSt5bDUUgetN3npNJ3mBehNWD/2yUUIIZFkGpZQhsd7zyojMehL39vbyrlcA8I0777zzWj+vr1ZoGAL7oV4H2SrtlYErKKTVk06dHtJCkiQoilI+r0pgQRBMpbDR5/7+fnR1dVX0YQMRAP90xx13XOz3dfuNhiBwPcfGTvPXY3zsdT122zM7eGV4fVUtx4IglElsRW02+rxr166y77UOKQA/uO2223q9uAf1Ql0JbCVeUz3J60RK14u4tZC2VslptS6z7wDKi/ydSF/1syAI2Lt3r1GAxF2iKN73pS99KenoIgKAhpDAZrDzEPmpMtebuF7DK6JWq78azMbAdj7v2bPHyHf60lgs9jeN6q1VdwK7iZroFyFrJXWdwg9S+UlWHngxo41UbafSV/s9FApheHgY4XCY153fueOOOxpyfrjuBAackdgPQjpRme3CrdrpF2lrDUVRKvoBlNRdVdpqofW6skNi/fdoNIp9+/aVN8rTXff/e/vtt3/I04usAQLjiWWHxFYfOEopFhYWkM1mPV1v7ARuJW69IAgCkskks2DALWRZBiGkQhIbEVi1TAOVZDb7rNap/55IJLBr1y6cPXtW3wwB8De33377c40UXyswBLYKO9J0YmICKysrntXpFPUkoBftr66uQlEUbNu2rXpmi/3hvVB5i/RV8rolrvZ7Z2cncrkcz+WyA8D3v/SlLx393Oc+l3F1kTVCIFRoFV5JSTVfOl19g7taWG3rAa/VY15gQbM2zQ4A5eiT2v4lEmyEWFXVtjPerfadEFIOlsfB4XA4fHfViw0IAkVgM9glL7C5aNxtnU5Qb+J6Da10NCOmVfD2SEom2dkcVdW2Slxef3j9EwQBw8PDFYEFNPl/+/bbb7/Z1gXVCQ1BYCfkBUpLzGKxGJPup2Ssh9T10xhFCEFLSwv6+vo8bUMbF1qtM5Vit4eWJMmWoUpbZ7U0dacI3jVRSv/yK1/5yiG31+k3Gm4MbATejxCNRjE8PFw1n506vczvtIwXZWtZJw+qCq0Fj8DaxfxOxrtGaWp6MpnErl27cO7cOX3TcULIP3z5y19+6y233JLVnwwKGkICV4NTCe1lXidkd0oWLyWhGzXYDdbX15n2WlpamHySJAFwN97Vgpfe3d2N7u5upm1K6UFBEI7bvLSaom4E1s4DukEQyGsHQSBuPQirRybDGnl5RiytCg04G++aXa+aPjg4aGQz+ditt956vcXLqjkC7wttBq/Ja+ehdip1ncALsgWBtCrU8Dn6318fpQPYNHa5He9qwTunBsjjzUMTQv7m1ltvbbd5mTVB3VVopyT2g7xet63N73R87BVxawW9Ss471tbWGA2so6Oj7CGlglJqaMTifTdK0/fLqN8tLS1GgQD6Adxa/eprj0AYsfQByqrBal5KKebn5w1jKjlBraSuG3jZpvpgm4RutQ2ecw2POISUlgNqwZOQAMrRK9WjUCiU/+bzee60lfYaVEHS29uL1dVV3o6YH73tttv+6bOf/ewPq1xeTREIAgPWSWxHolr1xLIKv8kYBPWWh3Q6DUqpZ55Yy8vLFZoXpbS8cZkeRoTVQx/NUg2KpygKZFku/9XCSPsbGhrCyZMnefn/5sSJEwc//elPL1nqVA1QdxXaDuyqw1Y8sazW92YiL88y7dWLkFKKubk5Jr2jo8N13fqAeGpoHjVIvNHLQH+94XAYg4ODPILvyOVyf+G6ox6iYQjsZCxbzRPLy3bd1B8E8lYbI/L8lJ1geXmZ2dw7EolwvbDsghBSDgKgEldPam1es+vt6uoyeql88tZbb3276856hMCo0F5A/2P09fVhYmKi4oFxU5+XCApprSCRSKCvr8+TNmdnZ8ufVQm3a9cuz+6HKIpldVk/ZhcEAeFwGMVi0ZLf/a5du5BOp8tz0eopSunt3/3ud992ww03yEbla4WGILDTsXE0GsWePXts12Unn928TvK7Led1HU6hKArGx8cZ8iwvL+OJJ54oj1Wz2Wx5WxXtFiuyLCOXy5W/q+NdAMyYWv9Z75ml34MpHA4jGo0iGo2W56PD4TD6+vowOjqqv5RLJyYmPgbga97dHWdoCAJXQ72mlBqFuEGxhE9OTjLaEKUUs7OzZclcjYjaz9WkqNF5RVHK1mlenYQQxGIxJJNJpFIpRCIRxvWTUvo/jh079s1jx47lTDvhMxpmDGyErUxet+Njv8fXZnO9PGjVZ4AlmB3yGsHteTVPNpvF3Nwczp49y/XbppT2t7a23li1Mp/R0ARuBPI6IVFQiWuFpGbQSjkz8jqt18vzFon+3+666y7W/7OGqLsrZRA8sew8kH6OjZ2WUct5TVy3hNXDyFjlRhKrxinV+qwNRauG6OH138lzxynTnU6nf8d2RR4iEGNgvzyxCoUCxsfHkcvlDH8wv1TMWo07/W5HjYk1ODjIbIdiFz09PbjyyisxNzdXdpJQDVW85X+EsKF01LyEEMZJg1Ja/m6Uph76QHlqPvWvDXwWdTRmBYLAgDtpzIPqiZXNGi/l9EvNrAVq1Y6iKEin05icnMTg4KDr+trb29HevrkuIJPJIJfLMSTjkU5PVjdQJbRWgmuD6kmSBEmSkM1m9dNIehz88pe/fPCWW255yVWHHCIwBLYKO1NKPOODnXrsohakqtc0kNm9dAM7mpFeYurPqVJVm0/9qz20geJ5arYoiuWppZaWFqytrWF+fh5ra2vcPlNKbwHwCYe3wBUaisB254NTqRTPKb1JXgcw2JrEFHbsCoIgVBDQSppa1oioKqm1LpRa8mvr1EpjfR2tra1ob2/H/Pw8JiYmeC+duu102DAEtkteYDMmlpka7aY9J3mdwK1F2i1aWlrQ2dnpWxt6iWklTS9NgcoAeNp0RVHKhi0t+QRBQDQaRSwWKx+qM0coFEIsFkMqlSqP/SmlOHXqFJ555pny943+1G1vpYYgsBPyAqUfSBsqpZ7TSbXI71XZetarlZw8K7ievGrcaD1p1bRwOFwmZiwWQyKRQDweRyKRQDQaNb2eUCjEhPm59NJLywTW9LtuMbMagsDV4JTgtchnN6+bMm7K1ao+PXhENTpUdZinVguCgHg8XnEkEglDy7kXe3LVc0ijom4EVhTF8lpPM3h5E4NA3iAQt14PppG01Y971b2DVZImk0lu+OBqbWnh5QxILVFXCWx3/tcp6iGh7eZ1kt9pGT/rcdIuz2ClV48jkUhZDY7H44hEIp73Q4VdMteT/HVXofXxfO3AK2LWm7z1Im4QVEBg0zKsJ7HWqOQ1Yav1p1FQdwKrsPsWs0rMfD5vaXdCL9qzk89pfrew254oikgkEq4IZNQmpbQikJ2iKBXL+vRB7rTlaoFGIHJgCGwHVsm7sLCAqampmrQXhDr9ao8QgqGhIdO5YDdjd3VMG4lELLlrmrVVa3W23mPnwBG42rjYjkrMi71kF41OXi/aUtfsqgT2sv+iKFomrhXw+lZvkvmJQBFYvflujFtBt8bWirxet6N6KHkJQohnsbaqtaPFViJ0YNcD8xY32H2Atm/f7rh9Px7WWlncvW5HFEXDsK+NCP10lVME4UUQKAnMgx0rtT5Pe3s7kskkCoWCK2u31fbc5nOa32kZK3UQQhCPxw0NSo0ON9NHQUDgCQy4mwpSV5W4rcfvfHbzuinjRx1bAY1I5ro7cgDeOcPXIo8f+ezmdZLf6/L1aLOWpKqmYgeF4IGQwF74pdYijx/57OZ1kt+rsvWuv1rdQSFVLREIAqvw4wcIMnkbnbhBU723srXZCIEisF1YeSPPzc15sjuhly8Cv9r3G0Hogx2IooiOjg60tbUB8I7QQXoxNCyBrTxMExMT3Igcdurwsj9BqrdR2neL5eVl7N27Fy0tLVtSQgd2HtgMVqWhV7sTWmmrkeq10m6t5q1rAaOdFbfCNTYkgatB/VHMvHy8+uG2Cnm3Gmm1qObt1cjX3nAqdLWbrD3f39+P8fFxJqJikMnbSIscatWum+D/bW1t6OrqslWmkVDXiBx233p2b240GsXw8LDtOuphubab10l+t+WCUr8efo1lG4HMdZfAXro42pHOfuexk8/PvF6Uq3WdXvRhKxiorKDuBFZhZcNlN+etIMhzxk7zOy1Ti7r8hF8W56Bdf2AIbIZG8/ett4T2opzXddQbjejnbAUNQeBqCJLqHBTyNqKvdK2wlcjc8AQ2e9AURcHCwgLW19dNf6hae1kF2WNrKxFX74nFgxdkflNHpXSDag/bxMSE4SS+l+3Uq65a1u0n/PSQWlpawt69e5FKpSz3o5GkckMTuBq88MRqBPIGlbi1GLdbIdvq6qolAvvVvp9oWE8sK+PeWCzmaxv1qqsW9dqF1pupll5NVtqtRdytemFLLOg3Qn9/P8bGxlAoFByV32oeW/Ume74oYWJuFfOr61hZy2FpLYvVTA6KRogplCIWCSEeCSMSFtHeEkNPWxI97Ul0tMQQCVt/ZJ14YtlBvaUvEBAVWr0RVm+IVatzNBrF3r17bZevdR47+ezmdZLfi3py+SJOvjGGZ0+fxxtjMzg7MYep+WXXwRv6ezuxf7AX+3ftwJEDg7ho906IonVFMgik8xKBILAdNJJDR72dPpyWcVJeoRSvnJ3Ez589jedeHcUrI5OQZNlV23pQSjE2vYCx6QX89MmXAQDxaASH9w3gsguH8OuXXYCB7ebS1itDVVBeBA1HYLcI0pyxH/mc5nda9vnXRnH/oy/gF8+/hqXVjOM2nSKbL+CJU2fwxKkzOPG9n2LfYC+uedtB/NavX4q2loRhua0yFxwoArsll9/nvczjRz6n+e2WS6/ncN+jL+BffvYsRibd737hJV4fncHrozP42395BNdecTE+9O7LccFQn2kZu1I5SIQPFIHdoJFUaz/y2c3rpFw2X8B3fvIEvvXjx5HOONmUniAWTyDRkkQkqu48GGNiTsuKBFmSoMgyctk8stl1ZLMZ5LPW2ywUZfzoF8/jvkdfwHVXHMJN/+EadLebTyU154F9hJOHU1EUzM/PW4qJFUSf4VqQ1yoePTmCbz/0HFYzOctlovEE2ju6kWprRaKlBclEEoLW4GTIE6o7X/ogyRIya2tYS6eRWV3B8tIiisWiaR8opXjgsZP4xXOv4lP//l340DVvrcnLvlZoCAI7veHj4+OWPLGCRl6/HyA79a9kcvjWT1/EyZGZqnkFUUB7Zzc6e3rR2t6BeDwOMNJM893mZYZCIbS1t6OtvR2gA1AArGfWsLK4iPm5WaytrsLorbCeK+DL/+fHePbV8/jCJ34TLfHqc8ONQOSGWtBvF7WKieUlguRqOTK1hK/+4EmsZc3n0VvbO7G9vx9d3dsghvRbsJi0SZkP1ctoCosAUskWpJIt6B8YQC6fx+z0FKYnxg3n/n/29Ct4Y2wGt/3n38XObR0W2gk26i6BteMN7YZm6sPmRt2JxWJV1ecgSd8gkffkyAy+dt8zKEpGU0EEvf2D6B8YRDLZUk6lejISL8aT1voej8Wwa2g3BgeHMDszjXMjb6CQZ4k8PrOIz/z1N/HVP/4oejqsu1gGEXUnsBGsGBKqPZQDAwMYGxtjYmJZLW8F9SCv36rdybPTuOuHT0FR+L/Bth07MbR3H2LxBKMiEz3ZdFUolKIgyZBlCklWICsUiqJU5BEIAAKEiABRJAiLAsIh69ubEpFg+47t6OnpxvjoeYyOjoHSyjYmZpfwmS99E3f/6ceRtKBOBxWBJbAXMPLEUrFVp52c5geAkYk5/O3x+7jkjcZjOHDRxejs3mZYXi+BC5KMfLF0FCS50rnDphErHBIQCYmIhkOIhUWEqnhghcJhDA3vRUdXN14+dQqFQuWLfGRyDie+91N87vffZ1pPkNGwBK73nHCQyetUQiuU4s//9l5kOWpna3sHLj5yGSKRSmn1lt09uOpgPwa6UxAIwdTSGh59eQL3PzOC9bwEqpOujIQGYMhkXVZJViDJCtbzRYBShEQBiWgYiWgYkbAxmds72nHZ296K5555CrlsJYn/+eFn8N6jh3F430CpJw00hQQ08GokN9iqc8Z282rLEELwwGMn8dLZCeZ8R1cPjlx+BaLRKAhB6RCA37v6QnzqfZfg0K5utCWjSCUi2L+zEx+/9mJ84T9cgXhE3MxfPjQrh4QqB2elkfaQFYp0toCZ5QxmljLI5EpTSgRs3lgsikuOXIrQxlazKhRK8ZVvPeDq/tWT9A1J4HrP49VyesHvRQ5a54Wv3/sLJk8imcLhSy+HGBYrmPjuw4N4+4U7Deu+ZPc2/MF738IhnqYaeHcUJRlL6SymF9eQyRVKJNb9SySS2L9/H9PXl85O4NSZce59CToaksBm2Eqqsx0JbZfo+vwvnZnA2PQCk/fQJZcgHApBAIGA0gMTC4Vw/WV7qrZzzSW7MNjTCoGQmh2KQrG8lsP8agYUlNEAtvftQCsnxM6/biyO0N+naqi3yl339cB+Gma0nli13Ezcizr8kgBG9f7okReZtJ5t29DW1q4ZopbKDve1IRGt/ugIhOBt+3dgYsGP+Xjz+5MvyJhfXkdPewICIeX8BAT9/f14Wefg8/ipM7jZh176jbobsbx8g+kfzvHx8YrdCRuFvPWo67VR1tNqx87+UhvlZigUSiHaaLe7Ne7Ty6jac0NQlBUsZ/LoSsUr8nd3dzO5R6cWUJRkhBlHFJMeBMDgFSgV2m1wdz20nlhN8ppjMc0uFGhtay+p25p/q5kCljL8eXUeVtfzxmNXxsBldFQ3aBmNtXP5DcOWpr5oNAIxVGnMkmQZC8trlq8rCOQFAiCBvQLvgY7FYshkar9GlYcgkxfYfNC1CIfDjKaaK0o4PbaIoiwjLFaXVs+PzG6osG5ghSzGbVBKIQikImc0FsX6WuU1Z3LWX0xBQcMQ2MlD6zYmlpu27dbhNSnt1sdzuhJF1vuJgiCTL+KHT47gg1caO8kAwNOvT+PM1LIxtwx56eRe6F04dZ91VfKGAbKB5xnTUkCkL9BABDaD0cOqemK5IU+jWqXtgBCCcPghADld+sYYS1OdQEpU+d6jr2L39jZcsruHW+f4fBpfvf8Fh9LXAkGq1aupQiAEgvYiTIoSQgJF0GpoCAK7kU6NMGccVKePkkMEKqzQahmZUvyvf3oS7z48gHe/ZQhDva0AgJnldTxychQ/enoEuULRnfpsVpQhmXFmdYppsywMPMI2avL5mfASDUFgM9ST3EGSznby2aqz/J9abvOzQikefH4UDz4/irAoQBQIskVJl9mFNNNNX1nMXB2Nw8+qqOt6YEHw1wju55s0aPPBfpBXIHqHDwqBEB1VSt9kRYGswAODFQ88clZpR/vSEUiFEQu0evFGQd0dOdwgyKp1raSzH/k28+uFaGlpX8XPRvV0NonAof9uuKCfPU9p6SVhXK9xM1uEq1w0vAptBEJI2RPL7lRSLeaMvdIOvCKvJElMGutySdHbrgvVyhC4GqwQmF1OqFCKqUXtPK0NjQO669hCjN6yBAZYTyyrqLfTRz2mlLjakCqBtQnVazL9yodBvZXvDuZlYhWqM4iDopy6gsX+hiWwlamf1dVVT+utRXmv4W6YsWGtLVdhIUoKQ0Yr1uLqbpGUOB9fl6aRqnTBBZr7A/sEKzGxvESQ3C096Qv0zzqnTl0SOwa22hIH1cbIplXqTOear5JMubG+1CFDcx7YZ1h9OAcGBjA6OmrZEysIhiu3bWiRL0qQZcU0j1qfwnloC3kJhGpll5URrgdGLCIgolt4LxBaKYGr3QbN9WhVaFmhmF1a43qebea3TuJ6k70hCWwG7QMejUaxb98+7rlqZe2cq8V5szyUUjz/2ih+/sxpvDwyifNT81hOu9c8fvLAj13X4QSJZBLXv/fairSyRVwFwxuT327jKEgyJhfTkCX3AROB+pMXaEAC13qdbFDq5tWhUIp7H3kW37r/MYxyFuM3Ksoab/mSrWwabjzWJoQgmy9ienkNirlCoutHsOwZPARmHjhI40e79dZD9Z5fTuPzd34PL74+5qrtoIK5YtsW8c1nazWTx+LaOut96QJBkL5AgCSwNqi7H3CjHjut14vzPIxMzOGmv/rfWFixvn610SCoqyYAlEbWOn9mC9ZtWaGYXEyjJRZBSPTm5e73c2oXgSGwFfhFQqdt1gL69s9PzePGv/oGFlfMnVNKK4xCEEXrP7GsKEyQdbuQqmw25hSMRZz5XSpJtZYrYnxuFfmihJZYxJc+BQENRWC74MXE4sEpSWutWq9mcviTu+/HooGBqn+gH0NDu9HV1Yl4PAZCzHYCtOERZYoqnlhmm5tVC+yuAanqyFE6V5RkTC+tYWHFvhHvjZ9/FCt4rGq+I+y+4TsfvBMFAqxRIAuCM6B4hgIPLm/DAzfcAKP9aVxjSxPYiieWn+qz12Xv/tHTXPK2pFI4evRKdHexsZ42G3QxP+vVfKwhqjtyVPOmkmQZs8sZzK2uG24J4zPCFOgA0AGKPgDvIMBnO2Yw9eBx3F6Ucev7bobnIT8CFRNLnX/jjTOcqM9OPLGsotaq9TOvTeK5N6aY9FRrC6677jr0dHeXp1r4h/O4UqZ1MP9Q5dD8c9yPzb4UJBkTC2m8NDqHmeVMvchrDIIdoPifYQEvPnQc7/W6+kARWA+3BoNYLGZ6vl7jW7vtFiUF//jzl5j0aCyGa6+5BolErAp5q5GqCtlMieRHu9AFvSt9UPshKxSL6Sxen1jAS+fnMBtE4rLYTynu/8lx/BWl3jlzbun1wFbXfLYAACAASURBVH7tTujn2JdX9hcnz2Ilk2PSr7ziis2tPZliFIpCN4egrLPTplXXsLv6VUFOrstFQDqN6p4vFDGzlMHqeh7pbB40+ITlglD8l4dOoPXYMdx47BjcWQzRIPPATs/FYrEKTyyr5fzqj5PzhaKEL9zzEJNvaNcuDAz0M+myQpHJF5ErypVSyZIxqfq6XJOTBmWttUtR0jSKUmkXw4IkI5uXsJ4rYr1QqJuEverf/jViyd6q+agiQ1HykIsZpJfHMTf6NKZGHoMsc6zyFJ96exeWAfyx2/4FxogVpLm1IDmE3P+rFzG3VLmzAQHBkSOXMKtz8pKM5Ux+gzMUAqksZR/V51oVSiFJCgqSgqIsoygr5YUCskIBSiErFHRDI1A29uktnQMUhSJflFCUZQ3X2fXAQQcRRIhCAmIoga54D7p2HMHuwx/CG899C1Mjj3MK4L/+5E784rqbcJ+bdgND4EZBreei//nhZ5i0PcO70dbWWpFGKbCaLUK12LKwHgSOAQEkScFaroBMrohsQUKuICFXlCHpVvUwixncSP6gwOHvGk104uDbb0L7tgN45Ylv8Gr9xsN34cKrP4l5p11raAL7oeYGSfqePjeJV0YmmfRDhw4x+TO5IqhiYh2p4vigh6JQLGdyWMnksbyWR64oVy2zNaFu6eYcO/e9B6AKXnny7/WnuqUCPg/gFqd1B9oKHTTUmtw//PnzTNq23m3o6mzXWXopckW5ys590B38nf3mV7N4dWIJT70+g1cnljC9vL5B3ibcYOf+67Fz+B3sCYKbHjqB6ls9GqChJXA1KIqCubk5xhPLD+uz15ZnRaH4yeMnmfSLLriAyZ8ryhs7PZo0QvkSWKYUCytZzK5ksbKe89Thf2uAI4FzpwBF71BDACEGCO1AaBsgRJma9l32UcyMPQupUOEGG6Yy/jOAG530rmEJbIVMY2NjjCdWPTyvnJR76dwsVnVTR6FwGEO7Bhg1uSDJFtqoZGZRLgWJm1zKoFh0PZsRaPBuDc9oKhBqsM5YXwEvDYCSA5RpQJoBwv1AeEfF6VCkBfsu+TBeefLv9NX97g/uwuc+8EnY9v/c0iq0dndCt6iH55Ueu4cGEQ6FKpwdKAUKRcWCU0TJCSJflHF2egVPvj6N83NpFKWtT15eLC1JZqNwRgWev4AA5m4SUppINzwIIE0A8spGGaF8bB++BpFYSt9IW7yIDzu5vroS2Mht0itU88SqBZwQX6EUp86x+/UO79nDeESVpG9p+Z3ZUSjKeGV8EU+9MYOJxYbwXPIEkVCIkcCyLIPqVk0RQtAissZgMZwAQ2BKoSWl4VEchV6ki2IU/fvfw7RDgY84ub7AqNBeEVlLGDUmluqJFTTPK6NyZyYXsJatjOMVCoexs28HdKEqkJPkEpMN7p2sUIzOpTE+n7a8+95WQjIWZtIymTVmuqunvQWkOKlLJRBDKoE1oAqbxgOVAGmhNCbWYPvuX8PZF/9Rn/sdD9+K9qv/CLbiIAeGwHZglTB2YmLVY0rK6PyvXvtXJm2gf6dm9/gNA5RCIcvKhsMGW9f00jremF5BQZINCb6VIQgErQnWmJReXmTSDg21gdJKa3uytReCqF9LrE6n8ZRXzu8pLQCh7RVJidROpDqGkF46p00OSWFcB+C7nIoNsaXHwEGGGbmfOX2OSds9NMAsMihKimbBQaVafWp0AS+PL5bI+yZFZyrOqM+UKlheYuOHXdLPkrqtZx8Y9VnJw1ht5lgfaB6gGSa5d9eVTHsUeJ/da2wSGMFy+pBkGa+dY5cN9vf1MauCCpLCLK+bW83iiddmMLuS9bxvjYRUIopUnI3EsTA/j6JucYsoCtgTZiNwdvcdYQ1UNAcQ0d4hr0JP9q6+S5n2CMCZKDbHliJwPTysnLRndu7M+BzyxUoLaSIeR6olWbm8DgSSrJSJK8kKTp5fwIvnFlCsEgt6q6M9GUN3a5xJVxQFMxOjTPrRQ73A2rMVaYQIaO+9DKwEXoMlA5b2kNNMPcn23RAEZny+56HbUH3lhAYNNwaud4wqv/HqeVb67tjeW7puje+wpCjl9bbpbBEvnJtHJudPPCq7EIRN7y5nvtAWQvvo6hUIEA6JSMUjiIZF7ph/fHSEkb6EEFy/50lAF2Js28DliMQ72H7IGVgyYFUUK5QMWmSTsIIYQXvvhVicerEiqxLCUQD/v9WqG47AdqD1xHIKoxeGXw4hp06fYdK29WyEyikXI5AUChCCyYUMXhpbdB2MzilEgSAeCSEWCSESEhEOC5WPtxmBDWFhNZLNehfn57A4M82kHz3Yg9bMbUz6zgP/FgxRZdWvwIHiqqwDYntFnZ29FzMEJsCVaBQC+72EUOuJ5YRwtfS8UstNzrOzCK2tKSakqqwoODu9gtenVhy15QaCQNASCyMVjyAiVj7MzvZG8hdLCwsYPfM6kx6NhHH9zu8yL4O2ngvQ0XsxGKLKi6VxsBPQLIDOiqTWngt4Od9qp9otI4F5pFE9sRpJ7V5Ks8YndfyrckOmwPMj8zg3652nmRWIAkF7MoqWeGTzhRLg6SlKgdmZKUydP8s9/5GjC2in+gUjBHuPfByEiJXJtAAoGTg2GylZ6CV6sm2Il/OQnWq3lBFLjyB4YtnFSoZ150u1tpQNWDKlOHV+AWPztQvqLhCCjpYYBnpSaE1EHW/zWUtks1m8cfqUIXmvujCGw5F7mPQde69DR+8hMMYraRZcA5WhO6XOEk2L0LtgRuJdCIWT+i50//gu7NAnGqGhJLBdSWp3d0KrbfmpWust0ADKO/UVZQUvnl/EWrZQM6+qeCSE7lQcIVGA1fXAlFLIigy5KIFSk7G5m1A++qilAoFULCKbWcPSwhwyq8YOTYd3J/Hvdv41kx6JdWLvkY+BkWs0r5kKMuqjBSh5gGwKFQIBrd37sDhVqQWEijgEgLVmctBQBLYL1RPLiSGqXuck+UfMOVEMoSip5C3WZJxJSGk6pj0ZrfqQZnM5pJcXkF5awPraKqSC5+GPPcNb90bxO7u/hDCpfKkTIYRD7/wCovFOtlBxtiRF3YIWAaEyKnxrF0tgSnAAwINWqtzSBAYaa/wLlILY6UEIwYujJfIC/g87BUKwrS2OeNT48VCogsW5OcxPjSGbXkHQo3UQQnDdwQzet+MOiETvnUZw4G1/iM7th9mC8vLG2NfoObLxfNE8kz+R2snJh0GrVW55AtcSfnl0vTi6gLUsS2w/IAgE29sTpblUDigoFhcWMT36BgqZ2hrRnGKgJ47fvugBDEaf5Z7ffclHsXPf+8CQkUqasa8HoFKpDU0z0UQXJx/YcKMG2BIErqWU9butWDSMTLZSBV1dy0MQNwnlVxcEYk7ebC6HsTOnkVlyHIOtphjclsA7d53GZa33IizyXoAEuw9/BHsu/h0QQX/NFChurMn2Qn0GACiV01BURkTkGCMJBqzWWNfA7nawlUhqBh6BqSIDWgJvLF7wWpXe1hY3JO/i0hLGXzsJuWhtfJtKxNCWYncBcwSqWFDQKUKCgl3dAvpTM9gd/QW2R14GMShJhDD2v/Um9B/4Df7vXZwpRdgoi0sPngkqb9ZDFSB/FpEI935v4yXysCUksBGs7k6oRy0t0Pr0ECefLEsQw5WO+QIhkD1kcEdLzHDMOzU5gZmR06YW5f5tKVw5TLC/4w30xc9AVJahSCuAbO4FR2kRVK7twotoYhsOveNP0bH9Yn4GaR5Q0h5KXhUUACkZs/KvAco6zx8aFLD85gscgfVEc+OtNTY2hpUV+55K9fTaSsTYn6RYKCASq/xNQ6IAWfFmqWA8GkJ7MgK9IYpSirGRM1iYGDEsu6NdwAcveAIXtf6ylCABNA3UZsRuD4QI2LH3/dh76R8gEmvlZ5IXAXkJ3rpIaH5jZR3IvVYiMcAlsAAwk8NGCByBvYSXMbFqhY6WOEawVJFWzGcBtFekhQQBeQ+2nRUIQQ9n5Q4AjJ8bMSRvS4zgN/Y+haM7fgWBBH/1U2ff27Dnkk+gredCECN1WJrzgbwaFCdLC/w17QucDdhpk8AlxGIxVwsZ6oHOFEumYp7d2CwkejNO70zFIApsXbPTk5gfZxdWAMCBbRl87KJvoiUS7DXHQiiK7XuuQ//+30Kq6wCIoR+zUrI2+6I2ozTezT4PZE8CqWt1bbgbBjU8gc1U18HBQZw/f962J5bXK5DslOtsZYc/+RxLlHDIvZQIhwSk4mHmGcpkMpg88zK3zBUD5/EfD9yLkFC7SB9iKApBMH9UQ5EEQESkOobR1nMQrd2H0NpzCGKoijstLQLF6Y05Wh8kr7wErP1yYzoKzGIIhRMdE7AeXrbhCWyGaDSK/fv3c8/VyjvLbpkMEvjuzyoDuq9n2I3KoyH3kqIjyT7ciqLg/CsvcrfvfNfec/jg7n82nMZKtu3EtoGj6Nx5JSLxbQhFkgiFEqbzXoSIEER2HGgfxKb0JKWwr9IiAAWek5cWgfVngeypjfqBzbA7m1AUjnChsKzabGkCNyL2DrIBGfJplsDhkOBqKikkCkhyDGazk6PIZ9m5yav2zBqSt3vnEew5/Hto3XY5QNggct5tZ+0RlHxpLEpzG33zkLxUAXKvAOtPb6xA0kBgDYUKb1qO6MMLGKMh1gN7PS8b5Pp62lNoiUexppkLlqQiCrksItHN8TEBQVgUHQeta+GEW5UlCbOjrNFqoJPg3+35LkPeUDiBC9/2B+gdfj8gtAaPqHooxZJKq6j8cEpczoXSwgZxn9PUr4PA2jfyeXaWhABsVH8DBEoCB2mP4HqBEILhgV688Fpl7KZsZrWCwAAQizgnMC/g29zUOGTdmCwkCvjdC/4BEaEyPRxJ4vJrv4hk16WAaNloWntQWpq6UdIbjhkA4JWhigLFCSB7Gsi/Xp4aMgSJM/aG/Dpn1RQBG7jLAIEicBMlXLRnJ0PgzMoS2jor1etYWASrXFdHJCQyVmxKKeYm2efmmovW0d9SKRAEMYzDv/Zfkey+FBCYbULqCFryN6bSRhyq3AZpN1jjNJqGFtISUBwH8ueBwuiG8csiOPcqm2HD2YI2CQygtIWGXU+sWlmgzerraWF/lrUV9oc2cnushjjHfW89vcwsAwyJAt7Z9Q9M3t2HPoSO7VeU1GYeaKEUvVEpAB7MVVsCVbBpLNJCXZRvqzJAXitJbXm1ND8szZWWFRqpx1YQaodeBK8ujfNa58/f8ap03ptggxCC8fFxZndCK+WctOVlmb4Odqy0nl4BVRQQYVOKhAQBYVGwHUaWR/zlhTkm7S2DQGuk8v6FI0kMXvhhINQNdgxJS5Zd2Yle4BakRGIlXVKZ5XWA6mZjlAI2pfSGuqtKUFoo9VteLZFX/zJwPb4XALEVegIvzp1nr0TA01Zr3bIEBoDV1Xo8SO7RloyhqzWBhdXNB5AqCjLpJbS0VS4/S0RDWFm3N88d5kxB8SJYHNl+jknr2/MuiNFe/pSNtFySvF6oqmaQV4DCZGluVZovHfJq9TGoG9g2z+gtft0ArbwvhewSCnlmyjez2I2XrLaypQnciJ5YKvbu7KwgMACsLs67JjAhQJgJj0ORW2PdToeTzzFpPYO/BogtYB5QJbOx6bXX5KUloubPAYVzQGGMnZ5xBb9M5zrGh3uYHMsLnHhdBM/ecIP1cUddlxP6vWzPrieW16uQ3IybDw/34YlXKsdHqwsz6Nt9oCItFg6V1GiL1mh1axYt5KLELIxoiUfQKp5n5plT246AteIqpZjJXrkhUhnInwGyLwG5VzWEtXA/bd/yWsx8kI0dCivbmp96hc1J8bCdmhtiHtgpjDyxguqFpT03NLwP99z3NGTNuulsJo1cNo1YvKUif2sigoVVa1JJ5C1XlFh3vo7WOLN8MBpLQQxXBicHoAmZ6vKFLC2UvJfWnzcYR1t4Xmo6E2nxhRLqZOaAqSJhdpKNVS0D99npwZZWoRsRKrHbWhI4tLefmU5amJrAzj2VUjgVD2Mlk4dkwZjFe3HwgiuEQ2y+UDQFCDGwURsLzqUvVUruhmu/AgqsQcc7+KHtWXyhhHcyeVcW3oAkM2P22cfm8ZSdHmzpuNCNjve/4xImbXF6HIpSKTEJCLpSHsfA5mhHQqgFJfVZFzOZyrC94ReVgLVHgZkvAYvfKo1vQeGfCKV1OggQrtwfGACmxl5g0ghw37Fj3LkwQzQ0gRst4qRdXHfFxYhHKz2mpGIec5wd9hLREDpaor7FywIAQYiDJa+62bVV4ipA+hFg8s+BpR8CxSXOc09re1QloQuEe6Hd1AwA5GIO02McQ7OC/2O3+oYm8FZHIhbBe46yYV9mzr8BWWKnTNqTUezsbEFbIrJhafYYAoGlXQi4h1Aa207/L2D5hxsWaz8kngNUrdbFyyG8k0lbnH0ZsswYHWfFRfzMbte39BjYridWLa3QVut71+FB/OgXz1dYmWVZwsjLz2P48OVMdIlwSEBnKobOlG5VkGcGQ47zRjU5UBgFFv+hNAVUgTqNS2sFIVaSwDqMvfEEk0aA7119zH4koi1NYLueWLXcjdBqmTABjh4cxCMvjFSkp5fmMDM2gu0De2y37RwcS7MqgXmgRWD5fmD1wY1xMpPBXtO+w+NGosNMndn0JBYXJpisCsHXnDSxpQncqJ5Yerz/igN49rUJpLOV89lTZ0+DUmDHYC1JzJO2HAIXRoG5ezZjK7sFw/U6S+9qzQsxIDLI1Dl65le83E9cdyP02yRaQl3HwJRS5vASjbg7IQ+peAQfec+lXKk9PXIaIy89i3y+FvGpCMrbJKoHdONiUGDp+8DUn5eW2m05q/LGwYx3NachAvEjAKmUj7nMPMbPVW7ovXEpdzm9Cw0tgSmlnsbECoInllGZt+ztw3WX78MDT73GnFuen0Z6cQ6t3b1o7+lFPNmGcCRcsZuDdzCRwPIqMPdVIKv3MDIgMQmjPlEAnLYpAYaxsenmmDc6vOFuWnndZ175V56QmkwWwS75soiGJnA1NKInllmZiw8fRuyeH+BffvYMc05WZCzNTmJp1iOVld87MAQmKEne/Dlg+raNsKkW0Xr1hmNItTZdwMv3A5UNxvLY0EiMY3stzryKqbFTnHL4n0dvsR4DS48tTeBGhJlWIQoCvvCJ30QiFsG3f/xYjXumQt83UprXnfu68cPtCi5VcE81eBODnUlb+VwaLz17L+/UWFHG3S571EQjgRCCW37vevzZjR9Gb1dbrVtn54DXngBm70Zp570azdvWFfaur5hP47lffQP5HHcTs8++72a42ky5KYE1qDamDhLec+XF+LXLLsC3738M33nwcSwscx4QX6DeHwqs/BRYf8HdHDOlG1U2xn23g/TSCE4+9X2sr3N2CCH4zrU34vtu2wgcgbWD/EYhkxH8fiHEImF87Lfeid//javw+Mk38MSpM3hlZBLT88tYTq8jV/B4gTtBaaynSMDKT4D8SNUilkDL/0GW88DGfRM4O0bUBAQAQg4WaFAU8xmklycwNfo8piZOw0DLGA2FcJPbbgL1IzCRJEkQq1hJ/ZhaamQYvRBEUcBVRw7gqiMHOKWcGdMyC8/jhXv/H04nZGDlxyWjVSkBzlVhtuyTD/9/yGTshUHyA4SIIFV2g9CDKkXTHRw3MEuAa6/+JDzZZLkeBBYACLIsC4LQHIJ7hZqo/5SWFiAwLpF2CNwYWhWlMijrr+wW85TgPdfeCHYu0CFqzSABpUnDEKXU11/Sa8kd9PpqguIch7ywadfROUC8WUDxSEjBEaceV0aopQRWySsCEBVFaYrfGsFMOqvntMMVSilvtYxmBVFFDZw0W71zUbYhcBYUf3rNTfg2Id5fbK0IXEFeNAlsCr/VYS1RtZ+1aVwCc8lqRODGUJV9wCoFXqUUjwL44WML+NmxY1Dwh/40VgsCM+QFINpRob1+oINen9dt6Ylq5H+uTZM4cbJKmTjfuXJlI9G0q2zhK9/9SU+EsswJE2QGSSrgFw98pSItFNuGwx8suYWWggESSJKEu+++u5wGAJTSqc9//vOHAUgbh6z56+vu57UisHpoCdyUwB5DS24johqlaeuwb/03yWtWDZf8YU+Et+EEh0HdRvJEkqTyPSWEQJblckRV9R4pikIARLD5fBexufayCB/HCX4TWEQlcctk9tuI5RSNLp3NDm0efX71u/rXUAI3+pjVqPucF5Z2KKGVwGoQQDVt41nWrsxQncbV7zJ8cj/zk8DqReiPsgrtxcPdSN5Tenh1/dWkrJGENSvLHwNzewAv54Hdw9tnQZXA6qGXwIQQldARbJJWH/mAoKRKe+5L6ieB1YvhRjdTjVj6hyvICMpYV0s2RVFM1WJ9HjWtGsl5oWZLJ5nOuHSl5KS5usXePkOyLDME1t6vjTSCEpe0ElhPYL2zuJ7QjuAXgdULUAmrJ7ItI5ZTNLJ0NoJKRqCSiCrhjEhqVM6I/NYlsAss/wR1sVaTENB+vS6Rr0LrJbAkSRWk1ty3KAB14bnRRalbKNKNPDxC24KfBNaTtyItqGNgp6gmMb1QlfWS1CopjYjujMC8Z8yhAKH2NmWrhJv7ad0wbCaB1d90QwILKI2DedBKWS1xtVJYr2Zbgt8SWHvoCV1XBEU6O1WVteMwvZTVE5xHUqNz2vOcDsGZI0ct41cRIDYMJA4C2Ag0sP4iKtcqG10HCz2BFUVhxsAb94xHXp6abEZa3ljZFLUgsH5gTwAQu44cQRl/1hJaaWlGOLvn1TrNVGvDMTAPVR+zGtg2CIDoIDD4l0Dysspz+fPA2J8Aa0/aqlLVRHgSWIuNaSQRm6QTUSJiGJuSVk3jSVo9YfWqtSH8ILCRFU5PaM+w1chtRf3Vq8JagupJWU3aGtVhsbfwl6AW73VkENj3ndJGYnpEdwHDXwfOfhJYfRR2+qwlsCAIFfdINwbWElglnpa42jSAT1gFJX4YfWfghyqrJa9e8vLybBno38xOzmkJpD8AlD+r0oGXz6i8/pz6WZblirrU7wa91R2AvyTmzbxwjv7/zievChICBv8CECK2+sq7LwaWf62RVpXIev8HdWMpnnFX/5mnvTLwex5Y36hWha6ZNAuCOmwF1SQhT8oaqclmxiqthOaNrSml4G10SBWpyhDYAjH8+CmiA0DrO6rnC/cCbe8GVh5mTlGF88IiYvl+CIJQHgNrNRfNGFglqCp1KSqJq6rPqkRVbHzW/hoVN7kWrpTm3rAmkslvBIncZiozwCevERH1pFTrN1Kzuem6/WwBbMSeVm0tGxAipdhYVgPaGf7cLn6HOLt/lHHeQ8D66Q2D3GazUpETGFJIVmxEryewCo0KrSWpkSFX/VGNPus1Vf35isZrYQ32jKG1JLtTddgpzBwyqhmojKSwmXTmqdIVLwaxE/rHI18oQi7qY2+JQGSnB3fAoqrMPWw8xmIKSB5mml1bnWaykvB27v3h/D48F0ojQ64Rue0cZfhJYLM5h/qJXZ/hhPh6Y5JZmpEByqysGcH1D2b5M8Ig0X6mr8sLI2AIlDwChNrY9Fod+TOG95wBUYellZieeJnNGj9QdWiiza4vbpCmPVfNXqT/zNTrhwrNs27oSUsJIZZILAgC2tvbve2hB/B6wYNeLealmZ3jpWmtpmo7vHGc0UtBSL0Vcr5yL+LRcyfR2Xuoch9iEgJS7yyFmC2wkqwSDu5btSLrLwHrLwOJi8zzKTkg+zL08iOTnsLM1OtM9lDbUcOXon7Vl66nPDVY/5eapFELaQD8kcBcwmoOWy5jqvk+aId2btDtoV4nL81IauvLOU2r+OF0D2mo4xqm3YX5MczNvMp2SIiUDEktl3PHz5pW7B/UwjH6JwCtEoVz6UeAnKmoW5byOPXsD5isJDYEkriQqwmVr4T9bfSCS//q4ZG2olnOObP8vqnQPMJWHIqiMAGt02lO/Nw3EXhSUX/Obl3V0kzPxQ+CxNlIl6+e/Cly2RV+RbHdQMf1QMtlPqjVJsg8D7zxn4DiDOfiCsDivYwjhywX8dIz30c6vcQUEXt+b7O45t6oyyx19ytv0FGrrpF21RJfVWiAf/fVSWwBgJLP55lNfEZHR5HNZhGPm73Btx5441c9zKSx1fzVJDovv7jjRkhnPwPtM5jPr+G5x7+HS6/8bUSjiY3M2oICENtTOqRFID8KFCY2pJ8bmFw/CQO5M8C5zwFt15TahgBI00Dm5EY8r00Ui1mcfOr7WFxk9+oliUMgbe/e/K7RVMbHx5m0QqEwh0qy6tf/qs+/gwszz+/H9nUq9Fa3CktcIpFY2bdv38eh+ekLhQJWVlYwMDCAcNh4o6hGh5l05EldM0lsNb+TNAAgke2ghVnQXOUYsVjMYnbqVXR09CEaS/EvFCip0+HtQGwfEB0CxFaARACqAEoB9p/dDYjJjZ0AdwOJi4HkJSVXSrEFKM4C2VeB3GmgML6hWm8SbmXhDJ574ntIpzkbsQkJhIf+EkK4o2JIIwgC5ubm8Pjjj5fHwCqJFxYWHjh58uRz2Aylo2x81h4890noPls5V/HZz0lQ1dwX2ji030UAoS9+8Yt/H41GmRn4cDiM/v5+R/v7+jGv63edKmn0c7NO03iGKd4UiFmatm6BrmNP6DZEySxzHYIgYHj/UfQPXQ5RtKnQUam0Jam8VjqULAAFzJwyiZReBEICEONAqKOUZhP57CJGXv8lxsdO87sDAeeLn8AaLir/Pmrs8vn5eayurvJsCfL999//kZdffnkUJaIWsRkbq7hxqOn6IaXiIo0C/hKYQENWsAQWP/KRj1x68ODB78NfTaAhYDQ1ZPe72fSTnbz67/HQGq4a/CckInw7RTzeiv0XXoXu7QdAbG9J4i9ymRmMn38G58+9DKNRiKyE8NTkezGzNgSANfoZGR0XFxfvveeee76MTaKqxNX+VQPcOSUu7zwA/4ljNglNXnjhhZlLL700n0gkLPjBzzzRmQAABXhJREFUbX1opbLRZ7fn9XmtnpNoFNNrQ+hNnUdEZDfUk6Q8ZqZex9ToSQikiHi8FaJoQYPySYTIch5Ls6/h1VM/wauv/BLLy3OGefNSDI+N/ybm1/ttzRjkcrnT3/72t7+Yz+dz2CSvSlZZ95lHStfWPD8lsAqu9NUen/vc5z7S09PzJyhFNXjTwkvpaTR/6TSf+j0s5HHJjoewo+Vs1evp6tyO7X370N61C/FkD9hJD28fv0JuEatLY5idfgMzs6OWoopMre3Bi9O/jrycLPWII3W139XPmUzm8XvvvffPJiYmlrGpIuslsIxSlA4ziWpH6taFwNy40LpD+MAHPjB8+eWXfyYWi72XEPLmMkNr4AWJAXA9huyozGb5AYrd7S/ggu7HEBKs7YAYjUSxrXcX2jp2ItXai0RLD4hgfxyrQlEKyGYWkc3MYXlxAnOz55FZt77Fal6K49TsVZhIX1B1zlz7OZ/Pv3b+/Pnv3HfffQ9JpTklreRVv2tVZ20YHTckZsgL1IbAgDmJBe3foaGhxNVXX/2WaDTaKopinJaiVxIA0H4WBEGxGxSgUaBeoyzLFde+EbpF/117X9RVXuVyiqJU1AGgXE5b10Y59X6W69Hmk2VZ0NSDnra11HsvefWqnZ0rF9i18xECtLR0IJnsQCLZhliiA6IY3jgqR3ayXEQ+u4pcPo1sdg1rKwtYc7iDYVES8q+M9z798Knh59cLkQIACIIgU0oFURSVUt+I9i8VBEFOp9MLo6Ojo+fPn1/AJjH1BNZKYK3qrCehVbJWjc5RKwIDfBILnL/6dZVGayLVZVtbGdrgB9Wc4MvkQ+V9A4zvoz4dMK7f8NwH34Xh9x/F+we24e2CYBgXqq5Yy2LspTN48G//BT8bmYIqqlViyJrvwKbU1B/aKaEiKknMk8RGY147pDWNrFBLAgNskHcm4DtYAvMeTuDNQWDAnLB6Ylld6QKDvGbtmZ0HAHJwD1o//gFcv6cf72iJY5dnd8AhChKWp+bw1M+fx0//94+gdYKmus/awbJW5TUjsNZIxTNcWSGvI6mrRa0JDLDbrJiR1+ghA0oXtyVVaANYkapWpbVtKQv2/puVxfVXov/aK3BVfw8Ot6VwUCCwP6lvE5RCWs3gtZlFnHzqJTz+zQdwWpIYsuo/66Wc3nCkktUOiauR1gp5LaEeBFbbNSOv0fpJaP6+2QiswkjlNSItqpy3K3ltf25LIvzha3DBxcM43NOBva1J7I1G0KfJ6wQ0X8D0WhYji6s4+/IIXvjHh/HS9BzUOS4z0mo/a9P0qq1eEmuJq/ey0s/1Gh3VyGwL9SKwCisENpIA4Hx/M8HsBWekbltWh03OwSQvrP49OIzUvzmIgR3d6OlqQ29LHO3hEJJhEYlQqFJaywqKhSJWVjOYXc5gfmIWUz/+Jc6MziCHyoeeWvjL+6yPdqFXnbWSWCtljVwlrRy2VGUjBIUAVo1XPBK/2eFWJbarLht9h0ma9q/+M++7Fegfej1ZeWnVpDFgPA/LU6OtSNxqhysEjQxGxiutEQucz02UYIeYds7p08D5bJSm/6zvr5U0FbwH3ogEdqSxokvnjYP1xqy6kVaLoJLAikQAgtv/IMAtmfX1VPts5a/+M++7VRhJYKPP1QisTdOPg408oozG076SVotGIoARiZuoDi8kL++zWRpM0njfq6UD1aWt0WejNDMC8pb/WSWtWV89RZMEb064UZXdSl2vJDDgjRTW/61GcP33mhJWjyaBm1BhlbReENeJ9FXhVAprP1cjLi+N97nuaBK4iWpwYqyqhfQFqhu1nEph9W9giGqEJoGbcAOv1WavJLD+uxUiNySaBG6iVrA7ZWQV1aTwlsb/Bfm3rArubtb/AAAAAElFTkSuQmCC;" parent="1" vertex="1">
          <mxGeometry x="548" y="197" width="100" height="100" as="geometry" />
        </mxCell>
      </root>
    </mxGraphModel>
  </diagram>
</mxfile>
